<svg width="202" height="80" viewBox="0 0 202 80" fill="none" xmlns="http://www.w3.org/2000/svg">
<path d="M40.9571 27.1142H52.961V13.8167C52.961 10.1029 51.2063 8.22611 47.6171 8.22611H46.2612C42.7118 8.22611 40.9172 10.1029 40.9172 13.8167V27.1142H40.9571ZM40.9571 35.6199L40.9969 50.2352C40.9969 53.9489 42.7916 55.7858 46.3409 55.7858H47.8962C51.4456 55.7858 53.2402 53.9489 53.2402 50.2352V43.0473H61.4157V49.8758C61.4157 59.2599 56.8693 64.0518 47.8564 64.0518H46.0617C37.0488 64.0518 32.5024 59.2999 32.5024 50.9939V15.2542C32.5024 4.75198 37.0488 0 46.0617 0H47.8564C56.8693 0 61.4157 4.75198 61.4157 14.1361L61.3758 35.5799H40.9571V35.6199Z" fill="#404040"/>
<path d="M75.334 52.4316C77.6471 54.5081 80.3191 55.6661 83.1107 55.6661C86.2213 55.6661 88.016 54.1487 88.016 50.5548V13.4175C88.016 9.82352 86.2213 8.30608 83.1107 8.30608C80.3191 8.30608 77.6471 9.46413 75.334 11.5406V52.4316ZM66.8794 0.718893H75.334V4.79202C77.328 2.59572 80.7577 0.0400391 85.663 0.0400391C92.8814 0.0400391 96.4307 5.03161 96.4307 12.4591V51.6729C96.4307 59.1003 92.8814 64.0919 85.663 64.0919C80.7577 64.0919 77.328 61.656 75.334 59.5795V79.7854H66.8794V0.718893Z" fill="#404040"/>
<path d="M121.755 52.791V32.1458L114.098 35.1807C110.987 36.4585 109.99 38.0958 109.99 41.6897V51.1937C109.99 54.2285 111.426 55.7061 114.098 55.7061C116.65 55.7061 119.003 54.7876 121.755 52.791ZM101.535 41.53C101.535 33.7431 103.968 30.6284 110.429 28.3123L121.755 24.2392V13.8168C121.755 10.103 119.96 8.14635 116.411 8.14635H115.055C111.505 8.14635 109.711 10.103 109.711 13.8168V22.6818H101.495V14.1762C101.495 4.79202 106.042 0.0400391 115.055 0.0400391H116.65C125.663 0.0400391 130.209 4.79202 130.209 14.1762V63.3731H121.755V59.4198C119.441 61.7359 116.291 64.052 111.426 64.052C104.646 64.052 101.535 59.9788 101.535 53.0306V41.53Z" fill="#404040"/>
<path d="M164.347 63.373H155.892V12.8982C155.892 9.78348 154.456 8.38584 151.904 8.38584C149.591 8.38584 147.118 9.30429 144.127 11.5006V63.373H135.673V0.718786H144.127V4.79191C146.6 2.35602 149.79 0 154.456 0C158.803 0 161.675 1.87683 163.23 5.11137C166.261 2.43589 169.81 0 174.676 0C181.216 0 184.566 4.19292 184.566 11.0214V63.3331H176.111V12.8982C176.111 9.78348 174.676 8.38584 172.123 8.38584C169.81 8.38584 167.338 9.30429 164.347 11.5006V63.373Z" fill="#404040"/>
<path d="M0 28.0326V36.4983L21.6949 57.7824V46.0023L7.4975 32.1456L21.6949 18.0095V6.46899L0 28.0326Z" fill="#00ABCD"/>
<path d="M195.294 18.0095L209.491 32.1456L195.294 46.0422V57.7824L216.989 36.4983V28.0326L195.294 6.46899V18.0095Z" fill="#00ABCD"/>
</svg>
