<svg width="499" height="694" viewBox="0 0 499 694" fill="none" xmlns="http://www.w3.org/2000/svg">
<path d="M328 130C234.664 130 159 205.664 159 299V399C159 492.336 234.664 568 328 568C421.336 568 497 492.336 497 399V299C497 205.664 421.336 130 328 130Z" fill="#DDFF52" stroke="#262961" stroke-width="4"/>
<path d="M85.2918 631.04L104.19 605.793L125.288 618.442L107.789 650.488C107.789 650.488 86.4917 641.739 85.7918 638.24C85.1418 634.74 85.2918 631.04 85.2918 631.04Z" fill="#FCB28D" stroke="#2B2D60" stroke-width="2.57618" stroke-miterlimit="10"/>
<path d="M85.2918 631.041C88.2915 635.841 101.24 647.289 108.339 649.339C104.89 657.138 101.74 661.738 101.74 661.738C101.74 661.738 77.3426 660.738 75.7428 642.84C81.1922 635.091 85.2918 631.041 85.2918 631.041Z" fill="#3AFFDC" stroke="#2B2D60" stroke-width="2.57618" stroke-miterlimit="10"/>
<path d="M102.64 661.736C102.64 661.736 98.3902 685.934 86.8915 692.533C62.2941 686.784 4.95016 645.538 3.6003 643.788C2.25045 642.039 1.40054 638.839 1.95048 635.639C12.9493 644.588 30.8474 658.587 32.9472 656.737C35.9969 654.037 40.0464 642.789 38.1466 632.14C56.1447 636.739 76.6425 642.838 76.6425 642.838L102.64 661.736Z" fill="white"/>
<path d="M97.0904 679.735C97.0904 679.735 96.1906 682.885 92.6909 687.134C92.6909 687.134 92.6909 687.184 92.6409 687.184C91.641 688.434 90.3912 689.734 88.9413 691.084C88.2914 691.584 87.6415 692.084 86.9415 692.484C62.3441 686.734 5.00021 645.489 3.65035 643.739C2.30049 641.989 1.45059 638.789 2.00053 635.59L1.85055 635.54C2.10053 634.69 2.45049 633.89 2.85045 633.14C2.85045 633.14 17.8988 643.939 34.5971 654.638C51.1453 665.287 69.2434 675.836 75.7427 675.636C88.1914 675.286 96.2905 679.285 97.0405 679.635C97.0405 679.735 97.0904 679.735 97.0904 679.735Z" fill="#43459A"/>
<path d="M311.317 553.899L320.866 579.046L344.663 573.297L332.064 542.8L311.317 553.899Z" fill="#FCB28D" stroke="#2B2D60" stroke-width="2.57618" stroke-miterlimit="10"/>
<path d="M318.815 573.896C321.765 575.596 338.763 574.496 342.612 568.247C345.762 575.696 347.962 582.946 347.962 582.946C347.962 582.946 342.512 594.544 334.313 594.544C326.114 594.544 321.915 591.745 321.965 588.695C322.015 585.645 322.015 585.645 322.015 585.645L318.815 573.896Z" fill="#3AFFDC" stroke="#2B2D60" stroke-width="2.57618" stroke-miterlimit="10"/>
<path d="M358.712 599.893C353.763 620.74 347.213 627.49 332.815 656.337C326.915 668.185 303.068 678.434 293.119 670.135C288.02 665.836 288.22 659.586 290.169 653.837C292.019 648.337 316.017 594.193 322.016 585.644C322.566 588.844 323.866 590.194 324.716 590.844C329.015 593.943 338.564 590.644 347.513 581.645C347.513 581.645 351.563 581.845 354.813 584.894C358.062 587.894 360.162 593.793 358.712 599.893Z" fill="white"/>
<path d="M358.712 599.894C353.763 620.742 349.913 628.991 332.815 656.338C323.966 670.487 303.068 678.436 293.119 670.137C288.02 665.837 288.22 659.588 290.169 653.838C290.669 661.788 300.968 671.587 316.767 662.337C332.515 653.088 349.763 609.943 351.013 605.593C352.263 601.244 349.563 586.696 352.163 583.046C358.762 586.646 360.162 593.795 358.712 599.894Z" fill="#43459A"/>
<path d="M99.9393 672.436C92.2901 670.136 86.0408 668.837 73.7421 675.536C73.7421 675.536 91.1402 685.785 93.8399 685.435C97.0896 681.285 99.9393 672.436 99.9393 672.436Z" fill="#3AFFDC"/>
<path d="M33.0457 656.288C30.9459 658.137 13.0478 644.139 2.04895 635.19C2.74888 631.34 5.59857 627.541 12.4478 626.641C15.4475 626.241 26.2964 628.641 38.1951 631.74C40.1449 642.339 36.0953 653.588 33.0457 656.288Z" fill="#3AFFDC" stroke="#2B2D60" stroke-width="2.57618" stroke-miterlimit="10"/>
<path d="M44.3957 643.388C45.4725 643.388 46.3455 642.515 46.3455 641.439C46.3455 640.362 45.4725 639.489 44.3957 639.489C43.3189 639.489 42.4459 640.362 42.4459 641.439C42.4459 642.515 43.3189 643.388 44.3957 643.388Z" fill="#00C3EB"/>
<path d="M52.4935 645.189C53.5703 645.189 54.4433 644.316 54.4433 643.239C54.4433 642.162 53.5703 641.289 52.4935 641.289C51.4166 641.289 50.5437 642.162 50.5437 643.239C50.5437 644.316 51.4166 645.189 52.4935 645.189Z" fill="#00C3EB"/>
<path d="M61.8936 647.238C62.9705 647.238 63.8434 646.365 63.8434 645.288C63.8434 644.211 62.9705 643.338 61.8936 643.338C60.8168 643.338 59.9438 644.211 59.9438 645.288C59.9438 646.365 60.8168 647.238 61.8936 647.238Z" fill="#00C3EB"/>
<path d="M42.7966 633.64C44.9464 636.239 44.3465 641.439 44.3465 641.439" stroke="#2B2D60" stroke-width="2.2685" stroke-miterlimit="10" stroke-linecap="round" stroke-linejoin="round"/>
<path d="M51.4435 635.941C53.5933 638.541 52.8433 643.19 52.8433 643.19" stroke="#2B2D60" stroke-width="2.2685" stroke-miterlimit="10" stroke-linecap="round" stroke-linejoin="round"/>
<path d="M60.2429 638.239C62.3927 640.839 61.7928 645.338 61.7928 645.338" stroke="#2B2D60" stroke-width="2.2685" stroke-miterlimit="10" stroke-linecap="round" stroke-linejoin="round"/>
<path d="M299.569 322.173C309.268 326.523 382.81 318.324 403.208 303.525C423.656 288.727 348.564 166.14 331.216 168.34C313.868 170.54 287.821 205.486 287.821 205.486C287.821 205.486 272.172 184.888 266.723 190.837C260.273 197.887 237.776 211.785 244.275 238.832C250.724 265.879 272.172 302.126 272.172 302.126C272.172 302.126 263.173 302.126 266.723 310.125C256.874 310.125 180.082 292.927 173.983 294.126C167.833 295.326 163.084 320.324 167.533 324.273C171.983 328.173 301.019 368.719 325.117 369.119C349.264 369.518 315.918 300.176 315.918 300.176" fill="#D32A97"/>
<path d="M175.132 297.925C155.534 294.576 154.284 293.976 154.284 293.976C154.284 293.976 147.035 286.926 138.586 286.277C130.087 285.627 118.088 275.478 114.788 277.327C111.489 279.177 113.088 287.676 126.637 292.276C121.688 296.175 99.2399 301.175 94.4904 307.824C90.7908 313.074 102.94 311.074 104.939 310.224C106.989 309.374 120.838 304.225 123.287 304.625C118.638 305.724 116.588 308.624 121.538 315.723C126.487 322.823 129.387 329.222 138.636 326.122C147.885 323.023 152.084 317.723 152.534 315.023C152.934 312.324 156.284 314.724 158.584 309.224C159.484 307.124 173.232 310.524 173.232 310.524L175.132 297.925Z" fill="#FCB28D" stroke="#2B2D60" stroke-width="2.57618" stroke-miterlimit="10" stroke-linecap="round" stroke-linejoin="round"/>
<path d="M403.209 303.525C382.811 318.324 334.616 325.723 324.917 321.374C324.917 321.374 334.566 340.472 335.666 354.47C336.316 362.719 334.016 369.269 325.117 369.119C300.969 368.719 171.933 328.173 167.533 324.273C163.084 320.374 167.883 295.326 173.983 294.126C180.132 292.927 256.874 310.125 266.723 310.125C263.123 302.126 272.172 302.126 272.172 302.126C272.172 302.126 250.725 265.879 244.275 238.832C242.176 230.033 243.125 222.634 245.625 216.385C246.875 213.285 248.475 210.485 250.275 207.936C250.475 207.636 250.675 207.386 250.875 207.086C256.474 199.486 263.573 194.337 266.773 190.837C272.222 184.888 287.871 205.486 287.871 205.486C287.871 205.486 313.918 170.49 331.266 168.34C348.614 166.14 423.656 288.727 403.209 303.525Z" fill="#3AFFDC" stroke="#2B2D60" stroke-width="2.57618" stroke-miterlimit="10" stroke-linecap="round" stroke-linejoin="round"/>
<path d="M325.117 369.118C300.969 368.718 171.933 328.173 167.533 324.273C163.084 320.373 167.883 295.326 173.983 294.126C180.132 292.926 256.874 310.125 266.723 310.125C263.123 302.125 272.172 302.125 272.172 302.125C272.172 302.125 250.725 265.879 244.275 238.832C242.176 230.033 243.125 222.634 245.625 216.384L250.275 207.935L250.875 206.835C250.875 206.935 250.875 207.035 250.875 207.085C249.625 237.332 289.721 284.777 293.47 289.077C297.22 293.376 321.417 312.374 326.867 329.023C329.716 337.722 333.366 346.871 335.716 354.47C336.316 362.769 334.016 369.268 325.117 369.118Z" fill="#43459A"/>
<path d="M332.764 166.19C348.862 169.24 378.709 178.439 402.707 218.784C426.704 259.13 442.252 322.173 454.251 373.768C454.251 380.417 414.405 385.767 410.856 377.318C407.306 368.868 386.858 274.928 386.858 274.928" fill="#D32A97"/>
<path d="M314.916 563.448L338.914 559.399L334.764 549.3L311.317 553.199L314.916 563.448Z" fill="#2B2D60"/>
<path d="M281.171 362.719C281.171 362.719 334.515 543.45 335.565 549.099C336.565 554.698 313.617 561.598 309.268 554.698C304.918 547.799 204.579 344.871 227.576 324.923C250.574 305.025 297.769 342.521 335.565 377.767" fill="#00C3EB"/>
<path d="M281.171 362.719C281.171 362.719 334.515 543.45 335.565 549.099C336.565 554.698 313.617 561.598 309.268 554.698C304.918 547.799 204.579 344.871 227.576 324.923C250.574 305.025 297.769 342.521 335.565 377.767" stroke="#2B2D60" stroke-width="2.57618" stroke-miterlimit="10" stroke-linecap="round" stroke-linejoin="round"/>
<path d="M321.516 320.874L335.314 370.419L407.806 358.17L392.108 298.727C380.259 301.126 371.66 304.976 366.111 307.976C355.862 313.475 351.862 318.224 342.463 320.724C334.014 322.974 326.415 321.974 321.516 320.874Z" fill="#FCB28D" stroke="#2B2D60" stroke-width="2.57618" stroke-miterlimit="10" stroke-linecap="round" stroke-linejoin="round"/>
<path d="M235.576 321.373C242.375 319.423 251.124 317.373 277.122 331.222C303.119 345.07 335.365 370.417 335.365 370.417L341.765 401.564L293.57 403.964C293.57 403.964 282.621 361.218 276.422 352.519C257.524 326.322 235.576 321.373 235.576 321.373Z" fill="#00C3EB"/>
<path d="M281.171 362.717C281.171 362.717 334.515 543.448 335.565 549.098C336.565 554.697 313.617 561.596 309.268 554.697C304.918 547.798 204.579 344.869 227.576 324.921C250.574 305.023 301.068 344.719 335.365 370.367" stroke="#2B2D60" stroke-width="2.57618" stroke-miterlimit="10" stroke-linecap="round" stroke-linejoin="round"/>
<path d="M97.0909 615.292L119.489 629.04L126.388 617.041L102.64 607.842L97.0909 615.292Z" fill="#2B2D60"/>
<path d="M227.677 408.865C261.523 406.065 341.315 401.565 341.315 401.565L335.415 370.419L407.908 358.17C407.908 358.17 441.104 398.066 436.355 427.963C429.255 472.408 384.96 469.858 361.213 465.259C340.865 461.309 267.772 464.109 247.175 465.009C243.775 465.159 240.575 466.858 238.626 469.658C220.727 494.855 131.987 619.342 123.038 620.692C113.089 622.242 101.19 611.893 101.19 607.693C101.19 603.994 191.581 454.11 213.578 417.664C216.528 412.614 221.777 409.364 227.677 408.865Z" fill="#00C3EB" stroke="#2B2D60" stroke-width="2.57618" stroke-miterlimit="10" stroke-linecap="round" stroke-linejoin="round"/>
<path d="M349.264 463.958C362.713 464.058 407.508 449.559 426.356 423.362C445.204 397.165 441.504 450.409 441.504 450.409L388.76 467.607C388.76 467.607 370.212 467.157 362.913 465.608C355.563 464.008 349.264 463.958 349.264 463.958Z" fill="#2B2D60"/>
<path d="M427.255 425.112C428.905 434.411 431.405 440.76 431.105 444.56C431.005 445.96 376.461 463.508 386.51 471.457C403.058 484.456 437.204 465.858 452.453 456.959C467.151 448.359 451.903 438.061 451.103 434.911C450.303 431.761 445.403 416.213 445.403 416.213L427.255 425.112Z" fill="#FCB28D" stroke="#2B2D60" stroke-width="2.57618" stroke-miterlimit="10" stroke-linecap="round" stroke-linejoin="round"/>
<path d="M373.46 258.48C373.46 258.48 420.205 418.313 423.805 426.712C427.405 435.112 467.2 429.762 467.2 423.163C455.202 371.618 424.005 245.632 400.007 205.286C376.01 164.94 348.863 166.24 332.815 166.24" fill="#3AFFDC"/>
<path d="M373.46 258.48C373.46 258.48 420.205 418.313 423.805 426.712C427.405 435.112 467.2 429.762 467.2 423.163C455.202 371.618 424.005 245.632 400.007 205.286C376.01 164.94 348.863 166.24 332.815 166.24" stroke="#2B2D60" stroke-width="2.57618" stroke-miterlimit="10" stroke-linecap="round" stroke-linejoin="round"/>
<path d="M232.376 155.942C236.825 160.741 245.174 164.241 253.823 166.241C257.773 167.14 261.773 167.74 265.522 168.04C267.972 168.24 270.272 168.29 272.371 168.19C278.921 167.89 283.57 166.34 283.62 163.291C283.62 162.041 283.97 160.541 284.57 158.991C288.02 149.542 300.118 135.594 304.768 129.994C308.268 125.845 318.867 118.046 310.267 101.147C308.718 98.0477 307.018 95.298 305.168 92.8483C290.669 73.3503 267.622 72.2505 251.224 75.8501C240.375 78.2498 230.826 84.8491 225.476 94.5481C224.277 96.6979 223.277 99.0476 222.577 101.547C221.977 103.747 221.627 105.997 221.627 108.397C221.777 124.295 219.577 142.143 232.376 155.942Z" fill="#FFFEC8"/>
<path d="M232.376 155.942C236.825 160.741 245.174 164.241 253.823 166.241C257.773 167.14 261.773 167.74 265.522 168.04C267.972 168.24 270.272 168.29 272.371 168.19C278.921 167.89 283.57 166.34 283.62 163.291C283.62 162.041 283.97 160.541 284.57 158.991C288.02 149.542 300.118 135.594 304.768 129.994C308.268 125.845 318.867 118.046 310.267 101.147C308.718 98.0477 307.018 95.298 305.168 92.8483C290.669 73.3503 267.622 72.2505 251.224 75.8501C240.375 78.2498 230.826 84.8491 225.476 94.5481C224.277 96.6979 223.277 99.0476 222.577 101.547C221.977 103.747 221.627 105.997 221.627 108.397C221.777 124.295 219.577 142.143 232.376 155.942Z" stroke="#2B2D60" stroke-width="2.9128" stroke-miterlimit="10"/>
<path d="M283.72 124.244C292.869 115.295 303.968 128.993 285.12 138.442C267.472 147.292 283.72 124.244 283.72 124.244Z" fill="#FCB28D"/>
<path d="M331.714 162.94C275.97 153.091 267.371 180.888 266.721 190.837C266.721 190.837 278.82 227.533 294.968 212.434C294.968 212.434 334.764 174.988 335.964 169.739C336.514 167.239 335.764 165.539 334.814 164.539C334.014 163.689 332.914 163.14 331.714 162.94Z" fill="#43459A" stroke="#2B2D60" stroke-width="2.57618" stroke-miterlimit="10"/>
<path d="M280.571 148.491C281.921 151.04 303.169 176.238 303.169 176.238L289.37 193.586L267.673 161.089L280.571 148.491Z" fill="#FCB28D" stroke="#2B2D60" stroke-width="2.57618" stroke-miterlimit="10"/>
<path d="M275.221 172.439L286.27 156.541L282.37 151.241L272.621 167.639L275.221 172.439Z" fill="#2B2D60"/>
<path d="M232.325 130.844C233.975 155.391 244.474 174.739 259.672 173.689C274.87 172.689 286.869 151.541 285.219 126.994C283.569 102.447 274.07 88.2482 258.872 89.2981C243.624 90.348 230.325 100.747 232.325 130.844Z" fill="#FCB28D"/>
<path d="M257.572 88.4974L256.273 95.4467C256.273 95.4467 234.075 111.195 230.575 119.894C227.076 128.593 233.175 95.0967 233.375 94.6968C233.525 94.2968 247.173 79.7983 247.173 79.7983L257.572 88.4974Z" fill="#FFFEC8"/>
<path d="M256.373 99.0967C256.373 99.0967 254.273 93.0474 254.773 88.5478C255.273 83.9983 285.12 74.0994 292.119 108.146C290.119 120.344 283.92 124.894 283.92 124.894C283.92 124.894 262.422 117.245 256.373 99.0967Z" fill="#FFFEC8"/>
<path d="M255.123 95.4976C246.574 102.197 235.475 111.096 232.475 118.395C232.475 118.395 230.525 144.742 239.524 160.191C243.324 166.29 248.573 173.789 259.222 174.139C271.721 174.539 280.77 157.241 282.37 151.292C282.37 151.292 284.87 141.993 285.069 138.543C290.069 136.143 296.768 131.094 295.068 124.944C293.319 118.795 285.819 121.545 283.97 124.944" stroke="#2B2D60" stroke-width="3.43491" stroke-miterlimit="10" stroke-linecap="round" stroke-linejoin="round"/>
<path d="M287.87 127.294C285.52 126.644 283.22 125.844 280.97 124.844C278.721 123.844 276.571 122.744 274.471 121.444C270.322 118.894 266.572 115.595 263.422 111.845C260.323 108.046 257.923 103.696 256.223 99.1465C255.373 96.8467 254.723 94.497 254.173 92.1472C253.673 89.7475 253.323 87.3477 253.073 84.948C253.073 84.748 253.223 84.548 253.423 84.498C253.623 84.498 253.823 84.648 253.873 84.848C254.573 89.5975 255.723 94.247 257.473 98.6965C259.223 103.096 261.622 107.296 264.622 110.945C267.622 114.645 271.221 117.745 275.221 120.294C277.221 121.594 279.321 122.694 281.47 123.694C283.62 124.694 285.87 125.544 288.12 126.344C288.37 126.444 288.52 126.744 288.42 126.994C288.42 127.244 288.12 127.394 287.87 127.294Z" fill="#2B2D60"/>
<path d="M251.374 142.342C250.674 146.091 249.174 148.491 248.174 149.441L251.374 142.342Z" fill="#FCB28D"/>
<path d="M251.374 142.342C250.674 146.091 249.174 148.491 248.174 149.441" stroke="#2B2D60" stroke-width="2.57618" stroke-miterlimit="10" stroke-linecap="round" stroke-linejoin="round"/>
<path d="M259.874 162.69C261.282 162.69 262.423 161.549 262.423 160.141C262.423 158.732 261.282 157.591 259.874 157.591C258.465 157.591 257.324 158.732 257.324 160.141C257.324 161.549 258.465 162.69 259.874 162.69Z" fill="#D32A97"/>
<path d="M265.021 154.24C264.471 157.24 259.072 162.139 253.722 160.69L265.021 154.24Z" fill="#FCB28D"/>
<path d="M265.021 154.24C264.471 157.24 259.072 162.139 253.722 160.69" stroke="#2B2D60" stroke-width="2.57618" stroke-miterlimit="10" stroke-linecap="round" stroke-linejoin="round"/>
<path d="M273.272 134.643C271.172 130.293 267.422 128.043 263.223 128.543C259.073 129.043 256.873 132.893 256.323 135.793" fill="#FCB28D"/>
<path d="M273.272 134.643C271.172 130.293 267.422 128.043 263.223 128.543C259.073 129.043 256.873 132.893 256.323 135.793" stroke="#2B2D60" stroke-width="2.57618" stroke-miterlimit="10" stroke-linecap="round" stroke-linejoin="round"/>
<path d="M246.575 135.943C246.125 131.993 238.226 125.794 232.877 133.793L246.575 135.943Z" fill="#FCB28D"/>
<path d="M246.575 135.943C246.125 131.993 238.226 125.794 232.877 133.793" stroke="#2B2D60" stroke-width="2.57618" stroke-miterlimit="10" stroke-linecap="round" stroke-linejoin="round"/>
<path d="M262.415 138.902C263.765 138.811 264.758 137.22 264.633 135.346C264.508 133.473 263.312 132.027 261.962 132.117C260.612 132.208 259.619 133.799 259.744 135.673C259.869 137.546 261.065 138.992 262.415 138.902Z" fill="#2B2D60"/>
<path d="M237.968 140.553C239.318 140.463 240.311 138.871 240.186 136.997C240.06 135.124 238.865 133.678 237.515 133.769C236.165 133.859 235.172 135.451 235.297 137.324C235.422 139.198 236.618 140.643 237.968 140.553Z" fill="#2B2D60"/>
<path d="M232.175 125.745C234.375 125.645 239.025 125.395 241.474 125.295C242.474 125.245 243.224 125.145 243.774 124.945C245.174 124.445 244.674 122.545 243.224 122.695C243.124 122.695 243.074 122.695 242.974 122.745L243.074 123.595L242.774 123.645L242.674 122.795C242.374 122.845 242.024 122.845 241.674 122.895L241.724 123.345L241.424 123.395L241.374 122.945C240.725 122.995 239.975 123.095 239.175 123.195C236.775 123.495 233.725 124.645 232.075 125.345C231.825 125.395 231.925 125.745 232.175 125.745Z" fill="#2B2D60"/>
<path d="M271.372 123.844C269.322 123.695 265.073 123.395 262.773 123.245C261.823 123.195 261.123 123.045 260.623 122.845C259.373 122.345 259.873 120.445 261.223 120.595C261.323 120.595 261.373 120.595 261.473 120.645L261.323 121.495L261.623 121.545L261.773 120.695C262.073 120.745 262.373 120.795 262.673 120.845L262.573 121.295L262.873 121.345L262.973 120.895C263.573 120.995 264.273 121.095 264.973 121.195C267.173 121.545 269.972 122.795 271.472 123.495C271.672 123.495 271.622 123.844 271.372 123.844Z" fill="#2B2D60"/>
<path d="M314.266 636.639C315.812 636.639 317.065 635.386 317.065 633.84C317.065 632.293 315.812 631.04 314.266 631.04C312.719 631.04 311.466 632.293 311.466 633.84C311.466 635.386 312.719 636.639 314.266 636.639Z" fill="#00C3EB"/>
<path d="M321.116 625.79C322.662 625.79 323.916 624.537 323.916 622.991C323.916 621.444 322.662 620.191 321.116 620.191C319.57 620.191 318.317 621.444 318.317 622.991C318.317 624.537 319.57 625.79 321.116 625.79Z" fill="#00C3EB"/>
<path d="M325.165 614.943C326.711 614.943 327.964 613.689 327.964 612.143C327.964 610.597 326.711 609.343 325.165 609.343C323.618 609.343 322.365 610.597 322.365 612.143C322.365 613.689 323.618 614.943 325.165 614.943Z" fill="#00C3EB"/>
<path d="M311.117 606.692C315.466 607.192 320.866 608.292 325.165 612.192" stroke="#2B2D60" stroke-width="2.2685" stroke-miterlimit="10" stroke-linecap="round" stroke-linejoin="round"/>
<path d="M306.467 617.143C310.817 617.643 316.716 618.742 321.016 622.642" stroke="#2B2D60" stroke-width="2.2685" stroke-miterlimit="10" stroke-linecap="round" stroke-linejoin="round"/>
<path d="M301.218 629.241C305.568 629.741 309.967 630.341 314.267 634.24" stroke="#2B2D60" stroke-width="2.2685" stroke-miterlimit="10" stroke-linecap="round" stroke-linejoin="round"/>
<path d="M321.967 585.044C322.917 589.894 326.666 593.843 335.565 590.044C345.614 585.694 347.564 581.645 347.564 581.645" stroke="#2B2D60" stroke-width="2.2685" stroke-miterlimit="10" stroke-linecap="round" stroke-linejoin="round"/>
<path d="M102.64 661.736C102.64 661.736 100.99 671.085 96.9904 679.735C95.7905 682.384 94.3407 684.934 92.6408 687.184C92.6408 687.184 92.6409 687.234 92.5909 687.234C91.441 688.734 90.2411 690.034 88.8912 691.133C88.2413 691.633 87.5914 692.133 86.8915 692.533C62.2941 686.784 4.95016 645.538 3.6003 643.788C2.25045 642.039 1.40054 638.839 1.95048 635.639C12.9493 644.588 30.8474 658.587 32.9472 656.737C33.4471 656.287 33.9971 655.587 34.547 654.687C37.1968 650.238 39.6965 640.989 38.1466 632.14C56.1447 636.739 76.6425 642.838 76.6425 642.838L102.64 661.736Z" stroke="#2B2D60" stroke-width="2.2685" stroke-miterlimit="10" stroke-linecap="round" stroke-linejoin="round"/>
<path d="M293.469 645.788C304.368 646.288 316.266 651.038 318.816 664.836C308.767 671.985 288.519 670.735 289.119 657.987C291.619 646.988 293.469 645.788 293.469 645.788Z" fill="#3AFFDC" stroke="#2B2D60" stroke-width="2.57618" stroke-miterlimit="10"/>
<path d="M358.712 599.893C353.763 620.74 351.463 624.59 333.665 654.687C323.266 672.235 303.118 678.434 293.119 670.135C288.02 665.836 288.22 659.586 290.169 653.837C292.019 648.337 316.017 594.193 322.016 585.644C322.566 588.844 323.866 590.194 324.716 590.844C329.015 593.943 338.564 590.644 347.513 581.645C347.513 581.645 351.563 581.845 354.813 584.894C358.062 587.894 360.162 593.793 358.712 599.893Z" stroke="#2B2D60" stroke-width="2.2685" stroke-miterlimit="10" stroke-linecap="round" stroke-linejoin="round"/>
<path d="M131.234 303.675C136.534 303.625 148.333 304.425 152.732 314.424L131.234 303.675Z" fill="#FCB28D"/>
<path d="M131.234 303.675C136.534 303.625 148.333 304.425 152.732 314.424" stroke="#2B2D60" stroke-width="2.57618" stroke-miterlimit="10" stroke-linecap="round" stroke-linejoin="round"/>
<path d="M131.187 310.024C137.636 308.775 140.886 304.875 140.886 304.875L131.187 310.024Z" fill="#FCB28D"/>
<path d="M131.187 310.024C137.636 308.775 140.886 304.875 140.886 304.875" stroke="#2B2D60" stroke-width="2.57618" stroke-miterlimit="10" stroke-linecap="round" stroke-linejoin="round"/>
<path d="M136.287 317.024C140.736 315.774 147.435 311.524 149.435 309.625L136.287 317.024Z" fill="#FCB28D"/>
<path d="M136.287 317.024C140.736 315.774 147.435 311.524 149.435 309.625" stroke="#2B2D60" stroke-width="2.57618" stroke-miterlimit="10" stroke-linecap="round" stroke-linejoin="round"/>
<path d="M289.768 192.986C287.818 195.836 286.968 201.735 286.968 201.735L289.768 192.986Z" fill="#FCB28D"/>
<path d="M289.768 192.986C287.818 195.836 286.968 201.735 286.968 201.735" stroke="#2B2D60" stroke-width="2.57618" stroke-miterlimit="10" stroke-linecap="round" stroke-linejoin="round"/>
<path d="M278.621 205.235C279.891 205.235 280.92 204.094 280.92 202.685C280.92 201.277 279.891 200.136 278.621 200.136C277.35 200.136 276.321 201.277 276.321 202.685C276.321 204.094 277.35 205.235 278.621 205.235Z" fill="white"/>
<path d="M292.92 206.835C294.19 206.835 295.22 205.694 295.22 204.286C295.22 202.877 294.19 201.736 292.92 201.736C291.65 201.736 290.62 202.877 290.62 204.286C290.62 205.694 291.65 206.835 292.92 206.835Z" fill="white"/>
<path d="M278.62 202.685C275.321 210.334 270.821 224.783 273.771 240.831" stroke="#2B2D60" stroke-width="2.57618" stroke-miterlimit="10" stroke-linecap="round" stroke-linejoin="round"/>
<path d="M292.42 204.285C292.57 207.385 295.22 224.733 294.07 243.381C292.92 262.029 292.92 262.029 292.92 262.029" stroke="#2B2D60" stroke-width="2.57618" stroke-miterlimit="10" stroke-linecap="round" stroke-linejoin="round"/>
<path d="M273.12 239.282C272.621 242.432 272.721 243.982 273.12 245.482C273.52 246.981 276.07 247.031 276.07 244.782C276.07 242.482 273.12 239.282 273.12 239.282Z" fill="#2B2D60"/>
<path d="M293.118 260.178C291.668 263.028 291.268 264.528 291.168 266.078C291.068 267.627 293.468 268.477 294.168 266.278C294.918 264.128 293.118 260.178 293.118 260.178Z" fill="#2B2D60"/>
<path d="M292.42 283.877C292.42 284.527 300.069 312.724 300.069 312.724C300.069 312.724 317.618 319.724 324.117 320.423C330.566 321.073 336.466 314.274 336.466 314.274L311.168 279.928L292.77 283.227L292.42 283.877Z" fill="#3AFFDC"/>
<path d="M293.421 289.077L300.12 312.674C308.819 317.974 324.917 321.373 324.917 321.373" stroke="#2B2D60" stroke-width="2.57618" stroke-miterlimit="10" stroke-linecap="round" stroke-linejoin="round"/>
<path d="M351.762 316.823C364.961 314.224 392.158 323.073 392.158 323.073L385.909 300.075C385.909 300.075 369.761 303.725 364.411 308.924C359.062 314.124 351.762 316.823 351.762 316.823Z" fill="#2B2D60"/>
<path d="M344.713 356.169C345.541 356.169 346.213 355.498 346.213 354.669C346.213 353.841 345.541 353.169 344.713 353.169C343.885 353.169 343.213 353.841 343.213 354.669C343.213 355.498 343.885 356.169 344.713 356.169Z" fill="#2B2D60"/>
<path d="M342.664 357.569C344.464 358.919 346.814 358.519 347.364 356.969" stroke="#2B2D60" stroke-width="2.57618" stroke-miterlimit="10" stroke-linecap="round" stroke-linejoin="round"/>
<path d="M340.163 401.665C346.163 401.665 355.862 402.665 362.861 404.715" stroke="#2B2D60" stroke-width="2.57618" stroke-miterlimit="10" stroke-linecap="round" stroke-linejoin="round"/>
<path d="M246.973 454.659C241.374 465.708 234.475 475.306 234.475 475.306" stroke="#2B2D60" stroke-width="2.57618" stroke-miterlimit="10" stroke-linecap="round" stroke-linejoin="round"/>
<path d="M271.171 301.675L273.671 304.724" stroke="#2B2D60" stroke-width="2.57618" stroke-miterlimit="10" stroke-linecap="round" stroke-linejoin="round"/>
<path d="M265.573 309.174L276.722 312.524" stroke="#2B2D60" stroke-width="2.57618" stroke-miterlimit="10" stroke-linecap="round" stroke-linejoin="round"/>
<path d="M386.508 471.457C386.508 471.457 399.357 464.458 406.006 461.508L386.508 471.457Z" fill="#FCB28D"/>
<path d="M386.508 471.457C386.508 471.457 399.357 464.458 406.006 461.508" stroke="#2B2D60" stroke-width="2.57618" stroke-miterlimit="10" stroke-linecap="round" stroke-linejoin="round"/>
<path d="M394.058 475.056L417.506 464.357" stroke="#2B2D60" stroke-width="2.57618" stroke-miterlimit="10" stroke-linecap="round" stroke-linejoin="round"/>
<path d="M263.471 465.357L315.766 463.857" stroke="#2B2D60" stroke-width="5.15236" stroke-miterlimit="10" stroke-linecap="round" stroke-linejoin="round"/>
<path d="M247.374 454.359C247.374 458.108 247.374 465.758 247.374 465.758C247.374 465.758 239.825 467.907 239.575 468.457C239.325 469.007 247.374 454.359 247.374 454.359Z" fill="#2B2D60"/>
<path d="M287.369 381.617C291.219 389.616 304.167 403.214 304.167 403.214L293.569 403.964L287.369 381.617Z" fill="#2B2D60"/>
<path d="M305.017 308.475C308.916 311.024 321.715 314.324 326.114 313.524L305.017 308.475Z" fill="#3AFFDC"/>
<path d="M305.017 308.475C308.916 311.024 321.715 314.324 326.114 313.524" stroke="#2B2D60" stroke-width="2.57618" stroke-miterlimit="10" stroke-linecap="round" stroke-linejoin="round"/>
<path d="M348.264 308.475C354.913 304.925 368.712 298.276 374.311 297.426L348.264 308.475Z" fill="#3AFFDC"/>
<path d="M348.264 308.475C354.913 304.925 368.712 298.276 374.311 297.426" stroke="#2B2D60" stroke-width="2.57618" stroke-miterlimit="10" stroke-linecap="round" stroke-linejoin="round"/>
<path d="M304.193 93.82C304.18 94.188 303.988 94.4083 303.753 94.5197C303.608 94.7215 303.384 94.8681 303.082 94.8855C293.424 95.6642 283.632 94.5859 274.34 91.8158C266.524 89.4807 255.557 85.6851 250.395 79.0726C250.317 78.9757 250.361 78.8286 250.461 78.7731C250.004 78.702 249.571 78.1494 249.912 77.7179C265.032 58.1509 279.958 38.3769 295.258 18.9583C295.216 18.9564 295.178 18.9769 295.136 18.9756C292.868 18.8072 290.618 18.399 288.411 17.8441C288.063 17.763 287.838 17.3353 287.949 16.9954C288.463 15.4671 288.807 13.6872 289.554 12.2705C289.892 11.626 290.397 11.2119 291.134 11.5245C292.251 11.9921 293.377 13.5459 294.169 14.4282C294.851 15.1816 295.479 15.9726 296.078 16.7869C296.065 13.7642 296.356 10.7569 296.812 7.76589C296.868 7.43125 297.323 7.22527 297.622 7.324C299.252 7.88955 300.868 8.50332 302.426 9.23951C303.164 9.58446 304.129 9.95382 304.086 10.93C304.035 11.9675 302.591 13.0085 301.989 13.6819C301.039 14.7411 300.113 15.8608 299.125 16.9092C301.321 16.4187 303.596 16.1648 305.782 15.7781C306.266 15.6867 306.7 16.0909 306.556 16.5802C306.039 18.4793 305.493 20.37 304.966 22.2663C304.868 22.5988 304.445 22.878 304.105 22.7354C301.832 21.7895 299.49 20.7911 297.352 19.5338C298.231 23.1516 298.925 26.8215 299.513 30.5242C299.524 30.5593 299.535 30.5942 299.533 30.6367C300.84 38.7919 301.616 47.0885 302.361 55.238C303.537 68.0196 304.458 80.9827 304.193 93.82ZM302.505 93.1306C302.357 89.1224 302.219 85.1164 302.082 81.1112C293.98 87.5039 281.369 89.1027 271.038 88.8112C272.299 89.2569 273.576 89.6865 274.857 90.064C283.882 92.7664 293.126 93.6094 302.505 93.1306ZM301.824 79.2813C301.88 79.2341 301.951 79.2121 302.001 79.1847C301.841 74.9285 301.66 70.6763 301.407 66.4133C286.088 73.0177 269.416 79.5638 252.505 76.7482C251.994 77.3628 251.483 77.9781 250.975 78.5831C250.873 78.7124 250.743 78.759 250.611 78.7735C254.542 80.1868 257.974 82.9313 261.713 84.8196C263.832 85.8906 265.989 86.8663 268.185 87.7473C268.207 87.7436 268.22 87.7362 268.242 87.7325C279.164 87.4959 292.978 86.4644 301.824 79.2813ZM301.299 64.6493C301.115 61.8102 300.906 58.9846 300.658 56.148C300.651 56.1357 300.654 56.1255 300.65 56.1034C295.421 59.2396 288.355 60.782 282.565 61.7436C276.954 62.6736 270.648 63.3341 265.232 61.2596C261.299 66.128 257.329 70.9427 253.348 75.7222C270.379 77.0517 285.814 71.0239 301.299 64.6493ZM300.458 54.2286C300.099 50.615 299.679 47.0258 299.207 43.4323C292.522 46.6387 283.832 48.3515 276.504 47.0319C273.039 51.5062 269.513 55.9309 265.974 60.3303C278.42 61.7762 288.938 58.9447 300.458 54.2286ZM299.003 41.8524C298.55 38.5194 298.094 35.1959 297.642 31.8636C294.254 33.1508 290.332 33.8342 286.752 33.576C283.684 37.7106 280.55 41.8147 277.39 45.9006C281.169 45.7386 284.883 45.7594 288.636 45.0372C292.231 44.3423 295.589 43.121 299.003 41.8524ZM303.861 21.11C304.257 19.8023 304.64 18.5014 305.037 17.1939C302.74 17.5591 300.373 17.9772 298.069 17.9685C298.007 18.0354 297.945 18.1021 297.876 18.1558C299.887 19.1205 301.841 20.1746 303.861 21.11ZM301.349 12.4298C301.663 12.0867 302.61 11.2499 302.38 10.6607C302.263 10.3387 300.594 9.86846 300.254 9.72596C299.504 9.41987 298.727 9.13746 297.961 8.84812C297.521 11.6417 297.261 14.435 297.069 17.2486C298.358 15.5449 299.914 14.0157 301.349 12.4298ZM297.437 30.3568C297.009 27.0844 296.593 23.8046 296.243 20.5231C293.418 24.5167 290.528 28.4801 287.599 32.4326C290.977 31.9718 294.155 31.3562 297.437 30.3568ZM295.16 17.6318C295.241 17.6454 295.309 17.6655 295.375 17.6953C294.29 16.4719 293.231 15.2346 292.055 14.1022C291.914 13.9653 291.239 13.1176 291.021 13.1383C290.461 13.1964 290.356 14.1326 290.218 14.5281C289.982 15.2556 289.739 15.9707 289.497 16.6864C291.367 17.1199 293.245 17.4187 295.16 17.6318Z" fill="#262961"/>
<path d="M302.081 81.1116C302.219 85.117 302.356 89.1222 302.504 93.131C293.126 93.6092 283.882 92.767 274.856 90.0644C273.575 89.6869 272.298 89.2573 271.037 88.8116C281.369 89.1025 293.979 87.5037 302.081 81.1116Z" fill="#F4259A"/>
<path d="M302.001 79.1849C301.95 79.2121 301.88 79.2343 301.824 79.2815C292.978 86.4646 279.164 87.4961 268.242 87.7319C268.219 87.7356 268.207 87.743 268.184 87.7467C265.988 86.8656 263.831 85.8899 261.712 84.8189C257.974 82.9308 254.541 80.1868 250.61 78.7729C250.742 78.7584 250.873 78.7117 250.975 78.5825C251.483 77.9774 251.993 77.3628 252.504 76.7476C269.415 79.5625 286.088 73.0172 301.406 66.4127C301.659 70.6763 301.841 74.9287 302.001 79.1849ZM292.618 83.2869C293.377 83.0538 293.097 81.8765 292.317 82.0717C289.451 82.8116 286.635 83.4586 283.713 83.926C283.267 83.9968 283.348 84.7324 283.799 84.7165C286.75 84.5871 289.793 84.1446 292.618 83.2869ZM292.103 81.3178C292.814 81.1763 292.542 80.1183 291.839 80.2305C290.092 80.5339 288.36 80.9273 286.631 81.3109C286.077 81.4239 286.296 82.2327 286.841 82.149C288.597 81.8894 290.37 81.6461 292.103 81.3178Z" fill="#DDFF52"/>
<path d="M300.658 56.1483C300.906 58.9855 301.115 61.8105 301.299 64.6495C285.815 71.0244 270.379 77.052 253.349 75.7218C257.329 70.9423 261.3 66.1279 265.232 61.2593C270.648 63.3338 276.954 62.6733 282.565 61.7432C288.354 60.7815 295.42 59.2391 300.65 56.103C300.654 56.1256 300.651 56.1351 300.658 56.1483Z" fill="#F4259A"/>
<path d="M292.317 82.0716C293.097 81.8765 293.377 83.0538 292.618 83.2869C289.793 84.1446 286.749 84.5868 283.799 84.7165C283.348 84.7324 283.267 83.9961 283.713 83.926C286.636 83.4587 289.452 82.8111 292.317 82.0716Z" fill="#262961"/>
<path d="M291.839 80.2298C292.542 80.1177 292.815 81.1765 292.103 81.3171C290.37 81.6461 288.597 81.8888 286.842 82.1477C286.296 82.2314 286.078 81.4226 286.631 81.3096C288.36 80.9264 290.092 80.5332 291.839 80.2298Z" fill="#262961"/>
<path d="M299.207 43.4322C299.679 47.0257 300.098 50.6149 300.458 54.2285C288.938 58.9446 278.42 61.7761 265.974 60.3295C269.513 55.9302 273.039 51.5055 276.504 47.0312C283.832 48.3514 292.522 46.6386 299.207 43.4322ZM280.33 58.6504C280.907 58.5658 280.743 57.7196 280.215 57.6707C277.778 57.4629 275.141 57.7909 272.698 57.9642C272.157 57.9959 272.118 58.8139 272.68 58.8196C275.171 58.8418 277.854 59.0053 280.33 58.6504ZM280.672 56.2962C281.252 56.1692 281.169 55.1886 280.558 55.2419C278.751 55.4219 277.004 55.6506 275.186 55.615C274.628 55.5991 274.615 56.4354 275.175 56.4833C276.98 56.6325 278.892 56.6751 280.672 56.2962Z" fill="#DDFF52"/>
<path d="M297.642 31.8626C298.095 35.1957 298.55 38.5191 299.003 41.8514C295.589 43.1198 292.231 44.3419 288.636 45.0363C284.883 45.7591 281.169 45.7378 277.39 45.8996C280.55 41.8137 283.684 37.7088 286.752 33.575C290.332 33.8332 294.254 33.1499 297.642 31.8626ZM296.504 37.6717C297.285 37.4025 296.872 36.2809 296.086 36.6026C294.49 37.2588 292.84 37.5171 291.118 37.5518C290.529 37.5692 290.507 38.4346 291.099 38.4816C292.943 38.6094 294.78 38.2903 296.504 37.6717ZM296.208 35.3203C296.644 35.0339 296.425 34.2258 295.86 34.4098C295.117 34.6589 294.411 34.9605 293.629 35.0914C292.789 35.2372 291.977 35.1786 291.139 35.1019C290.611 35.053 290.495 35.8795 291 36.0067C292.627 36.433 294.783 36.2609 296.208 35.3203Z" fill="#F4259A"/>
<path d="M305.036 17.1939C304.64 18.5016 304.257 19.8025 303.861 21.1099C301.84 20.1746 299.887 19.1205 297.875 18.1558C297.944 18.1021 298.006 18.0352 298.069 17.9685C300.373 17.978 302.739 17.5591 305.036 17.1939Z" fill="#F4259A"/>
<path d="M296.085 36.6023C296.871 36.2812 297.285 37.4024 296.504 37.6713C294.78 38.2899 292.942 38.6097 291.099 38.4813C290.507 38.4342 290.528 37.5687 291.118 37.5515C292.84 37.5167 294.489 37.2591 296.085 36.6023Z" fill="#262961"/>
<path d="M295.86 34.4099C296.425 34.2253 296.644 35.0341 296.208 35.3205C294.783 36.2611 292.627 36.4338 290.999 36.0067C290.495 35.8794 290.611 35.0524 291.138 35.1019C291.977 35.1787 292.789 35.2372 293.629 35.0914C294.411 34.9607 295.117 34.6582 295.86 34.4099Z" fill="#262961"/>
<path d="M302.38 10.6608C302.611 11.2493 301.663 12.0861 301.349 12.4298C299.914 14.0163 298.358 15.5449 297.069 17.2486C297.26 14.435 297.52 11.6415 297.961 8.84814C298.726 9.1373 299.504 9.4199 300.254 9.72599C300.594 9.86848 302.262 10.3394 302.38 10.6608Z" fill="#F4259A"/>
<path d="M296.243 20.5231C296.594 23.8048 297.009 27.0844 297.437 30.3568C294.155 31.3562 290.977 31.9712 287.598 32.4324C290.528 28.4807 293.418 24.5167 296.243 20.5231Z" fill="#DDFF52"/>
<path d="M295.375 17.6954C295.309 17.6658 295.241 17.6455 295.159 17.632C293.245 17.419 291.366 17.1201 289.496 16.6859C289.739 15.9708 289.981 15.2557 290.217 14.5276C290.355 14.1327 290.461 13.1966 291.02 13.1378C291.239 13.1171 291.914 13.9648 292.054 14.1017C293.23 15.2354 294.29 16.4722 295.375 17.6954Z" fill="#F4259A"/>
<path d="M280.215 57.6707C280.743 57.7196 280.908 58.5659 280.33 58.6504C277.854 59.0052 275.171 58.8418 272.68 58.8193C272.118 58.813 272.157 57.9958 272.698 57.964C275.141 57.7908 277.778 57.4628 280.215 57.6707Z" fill="#262961"/>
<path d="M280.558 55.2421C281.169 55.1882 281.252 56.1694 280.672 56.2964C278.892 56.6753 276.981 56.6327 275.175 56.4835C274.615 56.4355 274.628 55.5993 275.187 55.6152C277.005 55.651 278.751 55.4221 280.558 55.2421Z" fill="#262961"/>
</svg>
