<svg width="499" height="622" viewBox="0 0 499 622" fill="none" xmlns="http://www.w3.org/2000/svg">
<path d="M328 58C234.664 58 159 133.664 159 227V327C159 420.336 234.664 496 328 496C421.336 496 497 420.336 497 327V227C497 133.664 421.336 58 328 58Z" fill="#DDFF52" stroke="#262961" stroke-width="4"/>
<path d="M85.2923 559.04L104.19 533.793L125.288 546.442L107.79 578.488C107.79 578.488 86.4922 569.739 85.7922 566.24C85.1423 562.74 85.2923 559.04 85.2923 559.04Z" fill="#FCB28D" stroke="#2B2D60" stroke-width="2.57618" stroke-miterlimit="10"/>
<path d="M85.2912 559.041C88.2909 563.841 101.239 575.289 108.339 577.339C104.889 585.138 101.739 589.738 101.739 589.738C101.739 589.738 77.342 588.738 75.7422 570.84C81.1916 563.091 85.2912 559.041 85.2912 559.041Z" fill="#3AFFDC" stroke="#2B2D60" stroke-width="2.57618" stroke-miterlimit="10"/>
<path d="M102.64 589.736C102.64 589.736 98.3906 613.934 86.8918 620.533C62.2944 614.784 4.95053 573.538 3.60067 571.788C2.25081 570.039 1.40091 566.839 1.95085 563.639C12.9497 572.588 30.8478 586.587 32.9476 584.737C35.9972 582.037 40.0468 570.789 38.147 560.14C56.1451 564.739 76.6429 570.838 76.6429 570.838L102.64 589.736Z" fill="white"/>
<path d="M97.0915 607.736C97.0915 607.736 96.1917 610.885 92.692 615.135C92.692 615.135 92.692 615.185 92.642 615.185C91.6421 616.435 90.3923 617.735 88.9424 619.084C88.2925 619.584 87.6426 620.084 86.9426 620.484C62.3452 614.735 5.00131 573.489 3.65145 571.739C2.30159 569.99 1.45169 566.79 2.00163 563.59L1.85165 563.54C2.10163 562.69 2.45159 561.891 2.85155 561.141C2.85155 561.141 17.8999 571.939 34.5982 582.638C51.1464 593.287 69.2445 603.836 75.7438 603.636C88.1925 603.286 96.2916 607.286 97.0416 607.636C97.0416 607.736 97.0915 607.736 97.0915 607.736Z" fill="#43459A"/>
<path d="M311.316 481.899L320.865 507.046L344.663 501.297L332.064 470.8L311.316 481.899Z" fill="#FCB28D" stroke="#2B2D60" stroke-width="2.57618" stroke-miterlimit="10"/>
<path d="M318.814 501.896C321.764 503.596 338.762 502.496 342.612 496.247C345.762 503.696 347.961 510.946 347.961 510.946C347.961 510.946 342.512 522.544 334.313 522.544C326.114 522.544 321.914 519.745 321.964 516.695C322.014 513.645 322.014 513.645 322.014 513.645L318.814 501.896Z" fill="#3AFFDC" stroke="#2B2D60" stroke-width="2.57618" stroke-miterlimit="10"/>
<path d="M358.712 527.893C353.763 548.74 347.213 555.49 332.815 584.337C326.915 596.185 303.068 606.434 293.119 598.135C288.019 593.836 288.219 587.586 290.169 581.837C292.019 576.337 316.017 522.193 322.016 513.644C322.566 516.844 323.866 518.194 324.716 518.844C329.015 521.943 338.564 518.644 347.513 509.645C347.513 509.645 351.563 509.845 354.812 512.894C358.062 515.894 360.162 521.793 358.712 527.893Z" fill="white"/>
<path d="M358.712 527.894C353.763 548.742 349.913 556.991 332.815 584.338C323.966 598.487 303.068 606.436 293.119 598.137C288.019 593.837 288.219 587.588 290.169 581.838C290.669 589.788 300.968 599.587 316.766 590.337C332.515 581.088 349.763 537.943 351.013 533.593C352.263 529.244 349.563 514.696 352.163 511.046C358.762 514.646 360.162 521.795 358.712 527.894Z" fill="#43459A"/>
<path d="M99.9394 600.437C92.2902 598.137 86.0409 596.837 73.7422 603.536C73.7422 603.536 91.1404 613.785 93.8401 613.435C97.0897 609.286 99.9394 600.437 99.9394 600.437Z" fill="#3AFFDC"/>
<path d="M33.0455 584.288C30.9458 586.138 13.0477 572.139 2.04883 563.19C2.74875 559.341 5.59845 555.541 12.4477 554.641C15.4474 554.241 26.2963 556.641 38.195 559.741C40.1448 570.34 36.0952 581.588 33.0455 584.288Z" fill="#3AFFDC" stroke="#2B2D60" stroke-width="2.57618" stroke-miterlimit="10"/>
<path d="M44.3951 571.389C45.4719 571.389 46.3449 570.516 46.3449 569.439C46.3449 568.362 45.4719 567.489 44.3951 567.489C43.3182 567.489 42.4453 568.362 42.4453 569.439C42.4453 570.516 43.3182 571.389 44.3951 571.389Z" fill="#00C3EB"/>
<path d="M52.4947 573.189C53.5715 573.189 54.4445 572.316 54.4445 571.239C54.4445 570.162 53.5715 569.289 52.4947 569.289C51.4179 569.289 50.5449 570.162 50.5449 571.239C50.5449 572.316 51.4179 573.189 52.4947 573.189Z" fill="#00C3EB"/>
<path d="M61.8931 575.238C62.97 575.238 63.8429 574.365 63.8429 573.288C63.8429 572.211 62.97 571.338 61.8931 571.338C60.8163 571.338 59.9434 572.211 59.9434 573.288C59.9434 574.365 60.8163 575.238 61.8931 575.238Z" fill="#00C3EB"/>
<path d="M42.7969 561.64C44.9466 564.239 44.3467 569.439 44.3467 569.439" stroke="#2B2D60" stroke-width="2.2685" stroke-miterlimit="10" stroke-linecap="round" stroke-linejoin="round"/>
<path d="M51.4434 563.941C53.5931 566.541 52.8432 571.191 52.8432 571.191" stroke="#2B2D60" stroke-width="2.2685" stroke-miterlimit="10" stroke-linecap="round" stroke-linejoin="round"/>
<path d="M60.2441 566.239C62.3939 568.839 61.794 573.338 61.794 573.338" stroke="#2B2D60" stroke-width="2.2685" stroke-miterlimit="10" stroke-linecap="round" stroke-linejoin="round"/>
<path d="M299.569 250.173C309.268 254.523 382.81 246.324 403.208 231.525C423.656 216.727 348.564 94.14 331.216 96.3398C313.868 98.5396 287.82 133.486 287.82 133.486C287.82 133.486 272.172 112.888 266.723 118.837C260.273 125.887 237.776 139.785 244.275 166.832C250.724 193.879 272.172 230.126 272.172 230.126C272.172 230.126 263.173 230.126 266.723 238.125C256.874 238.125 180.082 220.927 173.983 222.126C167.833 223.326 163.084 248.324 167.533 252.273C171.983 256.173 301.019 296.719 325.116 297.119C349.264 297.518 315.917 228.176 315.917 228.176" fill="#D32A97"/>
<path d="M175.133 225.925C155.535 222.576 154.285 221.976 154.285 221.976C154.285 221.976 147.036 214.926 138.587 214.277C130.088 213.627 118.089 203.478 114.789 205.327C111.49 207.177 113.089 215.676 126.638 220.276C121.689 224.175 99.2409 229.175 94.4914 235.824C90.7918 241.074 102.941 239.074 104.94 238.224C106.99 237.374 120.839 232.225 123.288 232.625C118.639 233.724 116.589 236.624 121.539 243.723C126.488 250.823 129.388 257.222 138.637 254.122C147.886 251.023 152.085 245.723 152.535 243.023C152.935 240.324 156.285 242.724 158.585 237.224C159.485 235.124 173.233 238.524 173.233 238.524L175.133 225.925Z" fill="#FCB28D" stroke="#2B2D60" stroke-width="2.57618" stroke-miterlimit="10" stroke-linecap="round" stroke-linejoin="round"/>
<path d="M403.208 231.525C382.81 246.324 334.615 253.723 324.916 249.374C324.916 249.374 334.565 268.472 335.665 282.47C336.315 290.719 334.015 297.269 325.116 297.119C300.969 296.719 171.932 256.173 167.533 252.273C163.083 248.374 167.883 223.326 173.982 222.126C180.132 220.927 256.873 238.125 266.722 238.125C263.123 230.126 272.172 230.126 272.172 230.126C272.172 230.126 250.724 193.879 244.275 166.832C242.175 158.033 243.125 150.634 245.625 144.385C246.874 141.285 248.474 138.485 250.274 135.936C250.474 135.636 250.674 135.386 250.874 135.086C256.473 127.486 263.573 122.337 266.772 118.837C272.222 112.888 287.87 133.486 287.87 133.486C287.87 133.486 313.917 98.4896 331.266 96.3398C348.614 94.14 423.656 216.727 403.208 231.525Z" fill="#3AFFDC" stroke="#2B2D60" stroke-width="2.57618" stroke-miterlimit="10" stroke-linecap="round" stroke-linejoin="round"/>
<path d="M325.116 297.119C300.969 296.719 171.932 256.173 167.533 252.273C163.083 248.374 167.883 223.327 173.982 222.127C180.132 220.927 256.873 238.125 266.722 238.125C263.123 230.126 272.172 230.126 272.172 230.126C272.172 230.126 250.724 193.88 244.275 166.833C242.175 158.033 243.125 150.634 245.625 144.385L250.274 135.936L250.874 134.836C250.874 134.936 250.874 135.036 250.874 135.086C249.624 165.333 289.72 212.778 293.47 217.077C297.219 221.377 321.417 240.375 326.866 257.023C329.716 265.722 333.365 274.871 335.715 282.47C336.315 290.769 334.015 297.269 325.116 297.119Z" fill="#43459A"/>
<path d="M332.764 94.1895C348.862 97.2391 378.709 106.438 402.706 146.784C426.704 187.13 442.252 250.173 454.251 301.767C454.251 308.417 414.405 313.766 410.855 305.317C407.306 296.868 386.858 202.928 386.858 202.928" fill="#D32A97"/>
<path d="M314.916 491.448L338.913 487.399L334.764 477.3L311.316 481.199L314.916 491.448Z" fill="#2B2D60"/>
<path d="M281.171 290.719C281.171 290.719 334.515 471.45 335.565 477.099C336.565 482.698 313.618 489.598 309.268 482.698C304.919 475.799 204.579 272.871 227.577 252.923C250.574 233.025 297.769 270.521 335.565 305.767" fill="#00C3EB"/>
<path d="M281.171 290.719C281.171 290.719 334.515 471.45 335.565 477.099C336.565 482.698 313.618 489.598 309.268 482.698C304.919 475.799 204.579 272.871 227.577 252.923C250.574 233.025 297.769 270.521 335.565 305.767" stroke="#2B2D60" stroke-width="2.57618" stroke-miterlimit="10" stroke-linecap="round" stroke-linejoin="round"/>
<path d="M321.516 248.874L335.314 298.419L407.806 286.17L392.108 226.727C380.259 229.126 371.66 232.976 366.111 235.976C355.862 241.475 351.862 246.224 342.463 248.724C334.014 250.974 326.415 249.974 321.516 248.874Z" fill="#FCB28D" stroke="#2B2D60" stroke-width="2.57618" stroke-miterlimit="10" stroke-linecap="round" stroke-linejoin="round"/>
<path d="M235.576 249.372C242.375 247.422 251.125 245.373 277.122 259.221C303.119 273.07 335.366 298.417 335.366 298.417L341.765 329.564L293.57 331.963C293.57 331.963 282.621 289.218 276.422 280.519C257.524 254.322 235.576 249.372 235.576 249.372Z" fill="#00C3EB"/>
<path d="M281.171 290.717C281.171 290.717 334.515 471.448 335.565 477.098C336.565 482.697 313.618 489.596 309.268 482.697C304.919 475.798 204.579 272.869 227.577 252.921C250.574 233.023 301.069 272.719 335.365 298.367" stroke="#2B2D60" stroke-width="2.57618" stroke-miterlimit="10" stroke-linecap="round" stroke-linejoin="round"/>
<path d="M97.0918 543.291L119.489 557.04L126.389 545.041L102.641 535.842L97.0918 543.291Z" fill="#2B2D60"/>
<path d="M227.678 336.865C261.524 334.065 341.316 329.565 341.316 329.565L335.417 298.419L407.909 286.17C407.909 286.17 441.105 326.066 436.356 355.963C429.257 400.408 384.961 397.858 361.214 393.259C340.866 389.309 267.774 392.109 247.176 393.009C243.776 393.159 240.577 394.858 238.627 397.658C220.729 422.855 131.988 547.342 123.039 548.692C113.09 550.242 101.191 539.893 101.191 535.693C101.191 531.994 191.582 382.11 213.579 345.664C216.529 340.614 221.779 337.364 227.678 336.865Z" fill="#00C3EB" stroke="#2B2D60" stroke-width="2.57618" stroke-miterlimit="10" stroke-linecap="round" stroke-linejoin="round"/>
<path d="M349.264 391.958C362.712 392.058 407.507 377.559 426.355 351.362C445.203 325.165 441.504 378.409 441.504 378.409L388.759 395.607C388.759 395.607 370.211 395.157 362.912 393.608C355.563 392.008 349.264 391.958 349.264 391.958Z" fill="#2B2D60"/>
<path d="M427.257 353.112C428.906 362.411 431.406 368.76 431.106 372.56C431.006 373.96 376.462 391.508 386.511 399.457C403.059 412.456 437.206 393.858 452.454 384.959C467.152 376.359 451.904 366.061 451.104 362.911C450.304 359.761 445.405 344.213 445.405 344.213L427.257 353.112Z" fill="#FCB28D" stroke="#2B2D60" stroke-width="2.57618" stroke-miterlimit="10" stroke-linecap="round" stroke-linejoin="round"/>
<path d="M373.46 186.48C373.46 186.48 420.205 346.313 423.805 354.712C427.404 363.112 467.2 357.762 467.2 351.163C455.202 299.618 424.005 173.632 400.007 133.286C376.01 92.9403 348.863 94.2401 332.814 94.2401" fill="#3AFFDC"/>
<path d="M373.46 186.48C373.46 186.48 420.205 346.313 423.805 354.712C427.404 363.112 467.2 357.762 467.2 351.163C455.202 299.618 424.005 173.632 400.007 133.286C376.01 92.9403 348.863 94.2401 332.814 94.2401" stroke="#2B2D60" stroke-width="2.57618" stroke-miterlimit="10" stroke-linecap="round" stroke-linejoin="round"/>
<path d="M232.376 83.9416C236.825 88.7411 245.174 92.2407 253.823 94.2405C257.773 95.1404 261.773 95.7403 265.522 96.0403C267.972 96.2403 270.272 96.2903 272.371 96.1903C278.921 95.8903 283.57 94.3405 283.62 91.2908C283.62 90.041 283.97 88.5411 284.57 86.9913C288.02 77.5423 300.118 63.5937 304.768 57.9943C308.268 53.8448 318.867 46.0456 310.267 29.1474C308.718 26.0477 307.018 23.298 305.168 20.8483C290.669 1.35035 267.622 0.250465 251.224 3.85008C240.375 6.24983 230.826 12.8491 225.476 22.5481C224.277 24.6979 223.277 27.0476 222.577 29.5474C221.977 31.7471 221.627 33.9969 221.627 36.3966C221.777 52.295 219.577 70.1431 232.376 83.9416Z" fill="#FFFEC8"/>
<path d="M232.376 83.9416C236.825 88.7411 245.174 92.2407 253.823 94.2405C257.773 95.1404 261.773 95.7403 265.522 96.0403C267.972 96.2403 270.272 96.2903 272.371 96.1903C278.921 95.8903 283.57 94.3405 283.62 91.2908C283.62 90.041 283.97 88.5411 284.57 86.9913C288.02 77.5423 300.118 63.5937 304.768 57.9943C308.268 53.8448 318.867 46.0456 310.267 29.1474C308.718 26.0477 307.018 23.298 305.168 20.8483C290.669 1.35035 267.622 0.250465 251.224 3.85008C240.375 6.24983 230.826 12.8491 225.476 22.5481C224.277 24.6979 223.277 27.0476 222.577 29.5474C221.977 31.7471 221.627 33.9969 221.627 36.3966C221.777 52.295 219.577 70.1431 232.376 83.9416Z" stroke="#2B2D60" stroke-width="2.9128" stroke-miterlimit="10"/>
<path d="M283.72 52.244C292.869 43.2949 303.968 56.9935 285.12 66.4425C267.472 75.2915 283.72 52.244 283.72 52.244Z" fill="#FCB28D"/>
<path d="M331.714 90.9396C275.97 81.0906 267.371 108.888 266.721 118.837C266.721 118.837 278.819 155.533 294.968 140.434C294.968 140.434 334.763 102.988 335.963 97.7388C336.513 95.2391 335.763 93.5393 334.813 92.5394C334.014 91.6895 332.914 91.1395 331.714 90.9396Z" fill="#43459A" stroke="#2B2D60" stroke-width="2.57618" stroke-miterlimit="10"/>
<path d="M280.572 76.4912C281.922 79.0409 303.17 104.238 303.17 104.238L289.372 121.586L267.674 89.0899L280.572 76.4912Z" fill="#FCB28D" stroke="#2B2D60" stroke-width="2.57618" stroke-miterlimit="10"/>
<path d="M275.221 100.439L286.27 84.5407L282.37 79.2412L272.621 95.6395L275.221 100.439Z" fill="#2B2D60"/>
<path d="M232.325 58.8441C233.975 83.3915 244.474 102.739 259.672 101.69C274.87 100.69 286.869 79.5419 285.219 54.9945C283.57 30.4472 274.071 16.2487 258.872 17.2986C243.624 18.3484 230.325 28.7473 232.325 58.8441Z" fill="#FCB28D"/>
<path d="M257.572 16.4969L256.273 23.4462C256.273 23.4462 234.075 39.1945 230.575 47.8936C227.076 56.5927 233.175 23.0962 233.375 22.6963C233.525 22.2963 247.173 7.79785 247.173 7.79785L257.572 16.4969Z" fill="#FFFEC8"/>
<path d="M256.372 27.0967C256.372 27.0967 254.272 21.0474 254.772 16.5478C255.272 11.9983 285.119 2.09938 292.118 36.1458C290.118 48.3445 283.919 52.894 283.919 52.894C283.919 52.894 262.421 45.2448 256.372 27.0967Z" fill="#FFFEC8"/>
<path d="M255.123 23.4971C246.574 30.1964 235.475 39.0954 232.475 46.3946C232.475 46.3946 230.525 72.7418 239.524 88.1902C243.324 94.2896 248.573 101.789 259.222 102.139C271.721 102.539 280.77 85.2405 282.37 79.2912C282.37 79.2912 284.87 69.9921 285.069 66.5425C290.069 64.1428 296.768 59.0933 295.068 52.9439C293.319 46.7946 285.819 49.5443 283.97 52.9439" stroke="#2B2D60" stroke-width="3.43491" stroke-miterlimit="10" stroke-linecap="round" stroke-linejoin="round"/>
<path d="M287.871 55.2935C285.521 54.6436 283.221 53.8437 280.971 52.8438C278.722 51.8439 276.572 50.744 274.472 49.4441C270.322 46.8944 266.573 43.5948 263.423 39.8452C260.323 36.0456 257.924 31.696 256.224 27.1465C255.374 24.8467 254.724 22.497 254.174 20.1472C253.674 17.7475 253.324 15.3477 253.074 12.948C253.074 12.748 253.224 12.548 253.424 12.498C253.624 12.498 253.824 12.648 253.874 12.848C254.574 17.5975 255.724 22.247 257.474 26.6965C259.224 31.0961 261.623 35.2956 264.623 38.9452C267.623 42.6448 271.222 45.7445 275.222 48.2943C277.222 49.5941 279.321 50.694 281.471 51.6939C283.621 52.6938 285.871 53.5437 288.12 54.3436C288.37 54.4436 288.52 54.7436 288.42 54.9935C288.42 55.2435 288.12 55.3935 287.871 55.2935Z" fill="#2B2D60"/>
<path d="M251.374 70.3418C250.674 74.0914 249.174 76.4911 248.174 77.441L251.374 70.3418Z" fill="#FCB28D"/>
<path d="M251.374 70.3418C250.674 74.0914 249.174 76.4911 248.174 77.441" stroke="#2B2D60" stroke-width="2.57618" stroke-miterlimit="10" stroke-linecap="round" stroke-linejoin="round"/>
<path d="M259.874 90.6903C261.282 90.6903 262.424 89.5487 262.424 88.1406C262.424 86.7324 261.282 85.5908 259.874 85.5908C258.466 85.5908 257.324 86.7324 257.324 88.1406C257.324 89.5487 258.466 90.6903 259.874 90.6903Z" fill="#D32A97"/>
<path d="M265.021 82.2402C264.472 85.2399 259.072 90.1394 253.723 88.6895L265.021 82.2402Z" fill="#FCB28D"/>
<path d="M265.021 82.2402C264.472 85.2399 259.072 90.1394 253.723 88.6895" stroke="#2B2D60" stroke-width="2.57618" stroke-miterlimit="10" stroke-linecap="round" stroke-linejoin="round"/>
<path d="M273.272 62.6426C271.173 58.2931 267.423 56.0433 263.224 56.5433C259.074 57.0432 256.874 60.8928 256.324 63.7925" fill="#FCB28D"/>
<path d="M273.272 62.6426C271.173 58.2931 267.423 56.0433 263.224 56.5433C259.074 57.0432 256.874 60.8928 256.324 63.7925" stroke="#2B2D60" stroke-width="2.57618" stroke-miterlimit="10" stroke-linecap="round" stroke-linejoin="round"/>
<path d="M246.576 63.9429C246.126 59.9933 238.226 53.794 232.877 61.7931L246.576 63.9429Z" fill="#FCB28D"/>
<path d="M246.576 63.9429C246.126 59.9933 238.226 53.794 232.877 61.7931" stroke="#2B2D60" stroke-width="2.57618" stroke-miterlimit="10" stroke-linecap="round" stroke-linejoin="round"/>
<path d="M262.415 66.9012C263.765 66.8109 264.758 65.2191 264.633 63.3456C264.508 61.4722 263.312 60.0266 261.962 60.1169C260.612 60.2071 259.619 61.799 259.744 63.6724C259.87 65.5459 261.065 66.9914 262.415 66.9012Z" fill="#2B2D60"/>
<path d="M237.968 68.5525C239.318 68.4623 240.311 66.8704 240.186 64.997C240.061 63.1235 238.865 61.678 237.515 61.7682C236.165 61.8585 235.172 63.4504 235.297 65.3238C235.422 67.1972 236.618 68.6428 237.968 68.5525Z" fill="#2B2D60"/>
<path d="M232.176 53.7446C234.376 53.6446 239.026 53.3947 241.475 53.2947C242.475 53.2447 243.225 53.1447 243.775 52.9447C245.175 52.4447 244.675 50.5449 243.225 50.6949C243.125 50.6949 243.075 50.6949 242.975 50.7449L243.075 51.5948L242.775 51.6448L242.675 50.7949C242.375 50.8449 242.025 50.8449 241.675 50.8949L241.725 51.3449L241.425 51.3949L241.375 50.9449C240.726 50.9949 239.976 51.0949 239.176 51.1949C236.776 51.4948 233.726 52.6447 232.076 53.3447C231.826 53.3947 231.926 53.7446 232.176 53.7446Z" fill="#2B2D60"/>
<path d="M271.373 51.844C269.323 51.694 265.073 51.394 262.774 51.2441C261.824 51.1941 261.124 51.0441 260.624 50.8441C259.374 50.3442 259.874 48.4444 261.224 48.5943C261.324 48.5943 261.374 48.5943 261.474 48.6443L261.324 49.4942L261.624 49.5442L261.774 48.6943C262.074 48.7443 262.374 48.7943 262.674 48.8443L262.574 49.2943L262.874 49.3443L262.974 48.8943C263.574 48.9943 264.273 49.0943 264.973 49.1943C267.173 49.5442 269.973 50.7941 271.473 51.494C271.673 51.494 271.623 51.844 271.373 51.844Z" fill="#2B2D60"/>
<path d="M314.266 564.639C315.813 564.639 317.066 563.386 317.066 561.84C317.066 560.293 315.813 559.04 314.266 559.04C312.72 559.04 311.467 560.293 311.467 561.84C311.467 563.386 312.72 564.639 314.266 564.639Z" fill="#00C3EB"/>
<path d="M321.116 553.791C322.662 553.791 323.916 552.537 323.916 550.991C323.916 549.445 322.662 548.191 321.116 548.191C319.57 548.191 318.316 549.445 318.316 550.991C318.316 552.537 319.57 553.791 321.116 553.791Z" fill="#00C3EB"/>
<path d="M325.165 542.943C326.711 542.943 327.965 541.69 327.965 540.144C327.965 538.597 326.711 537.344 325.165 537.344C323.619 537.344 322.365 538.597 322.365 540.144C322.365 541.69 323.619 542.943 325.165 542.943Z" fill="#00C3EB"/>
<path d="M311.117 534.692C315.467 535.192 320.866 536.292 325.166 540.192" stroke="#2B2D60" stroke-width="2.2685" stroke-miterlimit="10" stroke-linecap="round" stroke-linejoin="round"/>
<path d="M306.467 545.143C310.816 545.643 316.716 546.742 321.015 550.642" stroke="#2B2D60" stroke-width="2.2685" stroke-miterlimit="10" stroke-linecap="round" stroke-linejoin="round"/>
<path d="M301.219 557.241C305.568 557.741 309.968 558.341 314.267 562.241" stroke="#2B2D60" stroke-width="2.2685" stroke-miterlimit="10" stroke-linecap="round" stroke-linejoin="round"/>
<path d="M321.967 513.044C322.917 517.894 326.666 521.843 335.565 518.044C345.614 513.694 347.564 509.645 347.564 509.645" stroke="#2B2D60" stroke-width="2.2685" stroke-miterlimit="10" stroke-linecap="round" stroke-linejoin="round"/>
<path d="M102.64 589.736C102.64 589.736 100.99 599.085 96.9908 607.735C95.7909 610.384 94.341 612.934 92.6412 615.184C92.6412 615.184 92.6412 615.234 92.5912 615.234C91.4414 616.734 90.2415 618.034 88.8916 619.133C88.2417 619.633 87.5917 620.133 86.8918 620.533C62.2944 614.784 4.95053 573.538 3.60067 571.788C2.25081 570.039 1.40091 566.839 1.95085 563.639C12.9497 572.588 30.8478 586.587 32.9476 584.737C33.4475 584.287 33.9975 583.587 34.5474 582.687C37.1971 578.238 39.6968 568.989 38.147 560.14C56.1451 564.739 76.6429 570.838 76.6429 570.838L102.64 589.736Z" stroke="#2B2D60" stroke-width="2.2685" stroke-miterlimit="10" stroke-linecap="round" stroke-linejoin="round"/>
<path d="M293.47 573.788C304.369 574.288 316.268 579.038 318.817 592.836C308.768 599.985 288.521 598.735 289.12 585.987C291.62 574.988 293.47 573.788 293.47 573.788Z" fill="#3AFFDC" stroke="#2B2D60" stroke-width="2.57618" stroke-miterlimit="10"/>
<path d="M358.712 527.893C353.763 548.74 351.463 552.59 333.665 582.687C323.266 600.235 303.118 606.434 293.119 598.135C288.019 593.836 288.219 587.586 290.169 581.837C292.019 576.337 316.017 522.193 322.016 513.644C322.566 516.844 323.866 518.194 324.716 518.844C329.015 521.943 338.564 518.644 347.513 509.645C347.513 509.645 351.563 509.845 354.812 512.894C358.062 515.894 360.162 521.793 358.712 527.893Z" stroke="#2B2D60" stroke-width="2.2685" stroke-miterlimit="10" stroke-linecap="round" stroke-linejoin="round"/>
<path d="M131.234 231.675C136.534 231.625 148.333 232.425 152.732 242.424L131.234 231.675Z" fill="#FCB28D"/>
<path d="M131.234 231.675C136.534 231.625 148.333 232.425 152.732 242.424" stroke="#2B2D60" stroke-width="2.57618" stroke-miterlimit="10" stroke-linecap="round" stroke-linejoin="round"/>
<path d="M131.188 238.024C137.637 236.775 140.886 232.875 140.886 232.875L131.188 238.024Z" fill="#FCB28D"/>
<path d="M131.188 238.024C137.637 236.775 140.886 232.875 140.886 232.875" stroke="#2B2D60" stroke-width="2.57618" stroke-miterlimit="10" stroke-linecap="round" stroke-linejoin="round"/>
<path d="M136.287 245.024C140.737 243.774 147.436 239.525 149.436 237.625L136.287 245.024Z" fill="#FCB28D"/>
<path d="M136.287 245.024C140.737 243.774 147.436 239.525 149.436 237.625" stroke="#2B2D60" stroke-width="2.57618" stroke-miterlimit="10" stroke-linecap="round" stroke-linejoin="round"/>
<path d="M289.768 120.986C287.819 123.836 286.969 129.735 286.969 129.735L289.768 120.986Z" fill="#FCB28D"/>
<path d="M289.768 120.986C287.819 123.836 286.969 129.735 286.969 129.735" stroke="#2B2D60" stroke-width="2.57618" stroke-miterlimit="10" stroke-linecap="round" stroke-linejoin="round"/>
<path d="M278.62 133.235C279.89 133.235 280.92 132.094 280.92 130.685C280.92 129.277 279.89 128.136 278.62 128.136C277.35 128.136 276.32 129.277 276.32 130.685C276.32 132.094 277.35 133.235 278.62 133.235Z" fill="white"/>
<path d="M292.921 134.836C294.191 134.836 295.221 133.694 295.221 132.286C295.221 130.878 294.191 129.736 292.921 129.736C291.651 129.736 290.621 130.878 290.621 132.286C290.621 133.694 291.651 134.836 292.921 134.836Z" fill="white"/>
<path d="M278.62 130.686C275.321 138.335 270.821 152.783 273.771 168.832" stroke="#2B2D60" stroke-width="2.57618" stroke-miterlimit="10" stroke-linecap="round" stroke-linejoin="round"/>
<path d="M292.42 132.285C292.57 135.385 295.22 152.733 294.07 171.381C292.92 190.029 292.92 190.029 292.92 190.029" stroke="#2B2D60" stroke-width="2.57618" stroke-miterlimit="10" stroke-linecap="round" stroke-linejoin="round"/>
<path d="M273.122 167.282C272.622 170.432 272.722 171.982 273.122 173.482C273.522 174.981 276.071 175.031 276.071 172.782C276.071 170.482 273.122 167.282 273.122 167.282Z" fill="#2B2D60"/>
<path d="M293.119 188.179C291.669 191.028 291.269 192.528 291.169 194.078C291.069 195.628 293.469 196.478 294.169 194.278C294.919 192.128 293.119 188.179 293.119 188.179Z" fill="#2B2D60"/>
<path d="M292.42 211.877C292.42 212.527 300.069 240.724 300.069 240.724C300.069 240.724 317.617 247.724 324.117 248.423C330.566 249.073 336.465 242.274 336.465 242.274L311.168 207.928L292.77 211.227L292.42 211.877Z" fill="#3AFFDC"/>
<path d="M293.422 217.077L300.121 240.675C308.82 245.974 324.919 249.374 324.919 249.374" stroke="#2B2D60" stroke-width="2.57618" stroke-miterlimit="10" stroke-linecap="round" stroke-linejoin="round"/>
<path d="M351.764 244.823C364.962 242.224 392.159 251.073 392.159 251.073L385.91 228.075C385.91 228.075 369.762 231.725 364.412 236.924C359.063 242.124 351.764 244.823 351.764 244.823Z" fill="#2B2D60"/>
<path d="M344.713 284.17C345.541 284.17 346.213 283.498 346.213 282.67C346.213 281.841 345.541 281.17 344.713 281.17C343.884 281.17 343.213 281.841 343.213 282.67C343.213 283.498 343.884 284.17 344.713 284.17Z" fill="#2B2D60"/>
<path d="M342.664 285.569C344.464 286.919 346.814 286.519 347.364 284.969" stroke="#2B2D60" stroke-width="2.57618" stroke-miterlimit="10" stroke-linecap="round" stroke-linejoin="round"/>
<path d="M340.164 329.665C346.163 329.665 355.862 330.665 362.862 332.715" stroke="#2B2D60" stroke-width="2.57618" stroke-miterlimit="10" stroke-linecap="round" stroke-linejoin="round"/>
<path d="M246.973 382.658C241.374 393.707 234.475 403.306 234.475 403.306" stroke="#2B2D60" stroke-width="2.57618" stroke-miterlimit="10" stroke-linecap="round" stroke-linejoin="round"/>
<path d="M271.172 229.675L273.672 232.724" stroke="#2B2D60" stroke-width="2.57618" stroke-miterlimit="10" stroke-linecap="round" stroke-linejoin="round"/>
<path d="M265.572 237.174L276.721 240.523" stroke="#2B2D60" stroke-width="2.57618" stroke-miterlimit="10" stroke-linecap="round" stroke-linejoin="round"/>
<path d="M386.508 399.457C386.508 399.457 399.356 392.457 406.006 389.508L386.508 399.457Z" fill="#FCB28D"/>
<path d="M386.508 399.457C386.508 399.457 399.356 392.457 406.006 389.508" stroke="#2B2D60" stroke-width="2.57618" stroke-miterlimit="10" stroke-linecap="round" stroke-linejoin="round"/>
<path d="M394.059 403.056L417.506 392.357" stroke="#2B2D60" stroke-width="2.57618" stroke-miterlimit="10" stroke-linecap="round" stroke-linejoin="round"/>
<path d="M263.473 393.357L315.767 391.857" stroke="#2B2D60" stroke-width="5.15236" stroke-miterlimit="10" stroke-linecap="round" stroke-linejoin="round"/>
<path d="M247.373 382.359C247.373 386.109 247.373 393.758 247.373 393.758C247.373 393.758 239.824 395.908 239.574 396.458C239.324 397.008 247.373 382.359 247.373 382.359Z" fill="#2B2D60"/>
<path d="M287.369 309.617C291.219 317.616 304.167 331.215 304.167 331.215L293.568 331.965L287.369 309.617Z" fill="#2B2D60"/>
<path d="M305.018 236.475C308.917 239.024 321.716 242.324 326.115 241.524L305.018 236.475Z" fill="#3AFFDC"/>
<path d="M305.018 236.475C308.917 239.024 321.716 242.324 326.115 241.524" stroke="#2B2D60" stroke-width="2.57618" stroke-miterlimit="10" stroke-linecap="round" stroke-linejoin="round"/>
<path d="M348.264 236.475C354.913 232.925 368.711 226.276 374.311 225.426L348.264 236.475Z" fill="#3AFFDC"/>
<path d="M348.264 236.475C354.913 232.925 368.711 226.276 374.311 225.426" stroke="#2B2D60" stroke-width="2.57618" stroke-miterlimit="10" stroke-linecap="round" stroke-linejoin="round"/>
</svg>
