<svg width="665" height="698" viewBox="0 0 665 698" fill="none" xmlns="http://www.w3.org/2000/svg">
<g clip-path="url(#clip0_0_1458)">
<path d="M327.997 120.292C334.833 131.41 329.273 132.564 329.395 136.27C329.516 139.976 332.797 141.373 335.774 143.894C338.751 146.446 339.45 153.159 349.627 153.737C356.979 154.162 364.816 160.571 372.381 163.67C375.297 164.855 378.183 165.553 381.008 165.219C391.063 163.943 386.446 156.896 390.729 156.076C395.013 155.255 398.84 159.296 400.784 150.851C402.789 142.224 410.627 150.608 412.814 144.016C415.002 137.424 408.531 137.88 408.531 134.66C408.531 131.41 422.657 132.473 420.227 122.752C417.979 113.761 408.288 122.418 405.402 108.748C405.159 107.655 404.794 104.556 404.794 104.526C404.582 102.187 404.369 100.061 404.187 98.0862C403.002 85.905 401.757 78.5842 392.339 76.5793C381.464 74.2707 375.327 77.4906 375.327 77.4906C368.371 68.3472 353.758 63.578 341.425 73.9062C333.314 80.6802 334.012 87.9099 332.524 96.2332C331.005 104.556 321.648 109.964 327.997 120.292Z" fill="#FFFDC6"/>
<path d="M327.997 120.292C334.833 131.41 329.273 132.564 329.395 136.27C329.516 139.976 332.797 141.373 335.774 143.894C338.751 146.446 339.45 153.159 349.627 153.737C356.979 154.162 364.816 160.571 372.381 163.67C375.297 164.855 378.183 165.553 381.008 165.219C391.063 163.943 386.446 156.896 390.729 156.076C395.013 155.255 398.84 159.296 400.784 150.851C402.789 142.224 410.627 150.608 412.814 144.016C415.002 137.424 408.531 137.88 408.531 134.66C408.531 131.41 422.657 132.473 420.227 122.752C417.979 113.761 408.288 122.418 405.402 108.748C405.159 107.655 404.977 106.44 404.855 105.042C404.855 104.891 404.825 104.556 404.794 104.526C404.582 102.187 404.369 100.061 404.187 98.0862C403.002 85.905 401.757 78.5842 392.339 76.5793C381.464 74.2707 375.327 77.4906 375.327 77.4906C368.371 68.3472 353.758 63.578 341.425 73.9062C333.314 80.6802 334.012 87.9099 332.524 96.2332C331.005 104.556 321.648 109.964 327.997 120.292Z" stroke="#262961" stroke-width="2.25714" stroke-miterlimit="10"/>
<path d="M309.983 292.134C308.434 315.737 357.13 315.129 358.011 298.756C359.409 272.784 381.707 246.325 391.124 235.39C400.541 224.424 402.546 205.772 397.291 191.434C392.035 177.097 373.839 182.412 373.444 177.613C373.322 175.912 373.747 170.383 374.416 164.308C374.841 160.42 375.357 156.045 375.874 151.641C376.633 145.14 377.393 138.639 377.788 133.809C377.879 132.686 376.512 132.078 375.752 132.898L360.533 148.694C360.35 148.876 360.229 149.15 360.199 149.423L357.708 177.157C357.647 177.734 357.191 178.19 356.614 178.22C354.639 178.372 349.475 178.767 339.268 179.405C322.256 180.468 322.468 190.007 319.218 196.629C315.967 203.251 309.922 213.397 309.466 221.599C308.646 237.03 312.352 244.958 313.173 246.538C313.264 246.751 313.325 246.963 313.294 247.176C313.112 250.092 311.411 270.293 309.983 292.134Z" fill="#FFB28B"/>
<path d="M387.295 181.987C394.465 184.782 399.295 183.81 408.105 227.644C416.914 271.478 421.38 287.182 420.59 295.506C419.8 303.829 414.727 305.53 412.267 304.619C409.806 303.707 399.811 285.694 394.86 263.154C389.908 240.615 384.987 233.203 380.035 229.497C375.083 225.791 387.295 181.987 387.295 181.987Z" fill="#FFB28B"/>
<path d="M458.381 236.909C450.696 244.989 418.282 276.247 416.884 277.645C415.487 279.042 404.368 302.311 413.482 304.862C422.595 307.414 448.296 268.744 452.063 263.611C454.888 259.722 465.186 244.169 465.946 240.919C466.705 237.669 463.576 231.441 458.381 236.909Z" fill="#FFB28B"/>
<path d="M309.194 221.629C303.877 234.357 286.227 284.114 289.934 297.298C293.64 310.481 307.523 284.327 316.302 267.68C325.082 251.034 309.194 221.629 309.194 221.629Z" fill="#FFB28B"/>
<path d="M292.697 300.852C284.616 294.503 242.025 244.534 234.856 231.806C227.687 219.078 253.6 232.96 273.042 256.563C292.484 280.166 295.947 283.416 295.947 283.416L292.697 300.852Z" fill="#FFB28B"/>
<path d="M273.041 256.562C282.306 267.802 287.926 274.424 291.298 278.282C295.46 258.263 305.424 230.651 309.191 221.629C309.191 221.629 325.11 251.003 316.3 267.68C309.039 281.441 298.68 301.095 293.091 300.852C293.091 300.852 291.541 301.034 290.326 298.756C278.661 287.577 241.508 243.652 234.825 231.805C227.686 219.077 253.599 232.959 273.041 256.562Z" stroke="#262961" stroke-width="1.50459" stroke-miterlimit="10"/>
<path d="M366.152 207.413C364.755 207.535 336.867 216.101 335.592 218.167C334.316 220.232 335.014 224.181 335.014 224.181L360.593 220.263L366.152 207.413Z" fill="#262961"/>
<path d="M306.883 308.811C309.071 319.018 339.024 317.013 352.33 305.713C354.183 304.133 355.732 302.341 356.826 300.397C357.13 299.85 357.403 299.303 357.646 298.756C358.102 297.663 358.436 296.539 358.527 295.354C359.56 283.598 365.301 271.448 370.83 262.183C376.39 252.827 381.736 246.417 381.736 246.417C381.736 246.417 375.387 230.105 373.321 217.863C372.683 214.126 372.44 210.755 372.896 208.325C373.534 204.983 381.068 186.484 386.293 181.654C386.293 181.654 384.258 180.985 383.377 180.925C377.848 185.177 370.04 206.958 370.04 206.958C370.04 206.958 344.431 214.673 337.171 221.295C337.323 212.82 332.25 196.447 332.25 195.232C332.25 193.987 337.019 179.132 337.019 179.132L333.768 179.801C333.768 179.801 331.581 191.435 329.88 194.685C328.179 197.936 312.595 208.932 310.377 214.461C308.19 219.989 308.585 231.229 309.8 237.213C311.015 243.197 312.504 246.113 312.2 253.07C311.896 260.026 308.494 291.496 306.823 306.837C306.732 307.535 306.762 308.173 306.883 308.811Z" fill="white"/>
<path d="M377.848 118.743C385.746 112 394.04 123.695 378.212 130.347C363.418 136.575 377.848 118.743 377.848 118.743Z" fill="#FFB28B"/>
<path d="M409.928 226.003C413.239 249.15 416.125 265.827 418.221 276.338C424.631 270.141 451.485 244.169 458.381 236.909C463.576 231.471 466.705 237.668 465.946 240.918C465.186 244.169 454.888 259.722 452.063 263.61C448.296 268.744 422.595 307.413 413.482 304.862C413.026 304.862 412.601 304.771 412.267 304.649C409.806 303.738 399.812 285.724 394.86 263.185C389.908 240.675 384.987 233.233 380.035 229.527C375.083 225.821 387.265 182.018 387.265 182.018C394.465 184.812 403.67 181.987 409.928 226.003Z" fill="#FFB28B"/>
<path d="M311.926 246.933C311.926 246.933 308.281 239.005 309.192 221.63C309.618 213.428 315.693 203.282 318.944 196.66C322.194 190.038 321.982 180.499 338.994 179.436C349.505 178.768 354.639 178.373 356.522 178.221C357.008 178.191 357.403 177.796 357.434 177.31L359.044 157.777C359.044 157.777 374.628 157.929 374.172 161.817C373.504 167.893 373.018 175.882 373.17 177.583C373.413 180.59 387.296 181.988 387.296 181.988C395.285 184.296 403.214 182.504 409.928 226.702C413.452 249.819 416.125 265.798 418.221 276.308C424.631 270.111 451.485 244.139 458.381 236.879C463.576 231.441 466.705 237.638 465.946 240.888C465.186 244.139 454.888 259.692 452.063 263.58C448.296 268.714 422.595 307.383 413.482 304.832C413.026 304.832 412.601 304.741 412.267 304.619C409.806 303.708 399.812 285.694 394.86 263.155C392.399 251.915 389.939 244.412 387.478 239.278C376.967 251.824 358.983 275.457 357.707 298.726C356.826 315.13 304.544 329.893 307.066 306.381C309.982 279.315 311.926 246.933 311.926 246.933Z" stroke="#262961" stroke-width="2.25714" stroke-miterlimit="10"/>
<path d="M85.2142 694.203C90.5304 695.813 123.613 697.21 127.319 692.532C131.025 687.854 147.46 676.858 152.077 677.071C156.695 677.314 155.085 692.107 155.085 692.107C155.085 692.107 162.71 693.049 164.927 692.107C166.143 691.591 166.75 682.295 166.659 672.97C166.598 665.132 166.021 657.234 164.927 654.561C164.927 654.561 151.834 650.217 146.761 650.217C141.657 650.217 101.406 685.151 101.406 685.151L86.3078 686.032C85.5788 686.062 84.9104 686.457 84.5155 687.065C84.0598 687.733 83.513 688.675 83.1788 689.677C82.5409 691.469 82.6016 693.413 85.2142 694.203Z" fill="white" stroke="#262961" stroke-width="2.25714" stroke-miterlimit="10"/>
<path d="M85.2142 694.203C90.5304 695.813 123.613 697.21 127.319 692.532C131.025 687.854 147.46 676.858 152.077 677.071C156.695 677.314 155.085 692.107 155.085 692.107C155.085 692.107 162.71 693.049 164.927 692.107C166.143 691.591 166.75 682.295 166.659 672.97C166.598 665.132 166.021 657.234 164.927 654.561C164.927 654.561 151.834 650.217 146.761 650.217C141.657 650.217 101.406 685.151 101.406 685.151L86.0952 686.032C85.518 686.062 84.9712 686.366 84.637 686.852C84.1813 687.52 83.5434 688.553 83.1788 689.647C82.5409 691.469 82.6016 693.413 85.2142 694.203Z" stroke="#262961" stroke-width="1.50459" stroke-miterlimit="10"/>
<path d="M172.673 599.336C164.106 611.608 146.76 650.248 146.76 650.248C146.76 650.248 147.185 653.376 153.2 655.533C160.977 658.328 164.106 656.262 164.349 655.564C164.592 654.865 189.047 613.127 189.047 613.127L172.673 599.336Z" fill="#FFB28B" stroke="#262961" stroke-width="2.25714" stroke-miterlimit="10"/>
<path d="M168.542 606.048C170.76 611.547 170.638 610.605 175.165 620.69C178.233 627.525 179.326 629.773 179.326 629.773L187.164 616.012L171.428 601.431L168.542 606.048Z" fill="#262961"/>
<path d="M155.357 687.58C155.296 690.132 155.084 692.106 155.084 692.106C155.084 692.106 162.709 693.048 164.926 692.106C165.746 691.772 166.263 687.459 166.506 681.869C162.435 685.271 158.547 686.821 155.357 687.58Z" fill="#262961"/>
<path d="M83.1158 692.654C83.45 693.322 84.088 693.869 85.212 694.203C90.5282 695.813 123.61 697.21 127.317 692.532C128.015 691.651 129.2 690.527 130.658 689.282C128.957 689.464 127.195 689.738 125.342 690.041C115.226 691.773 90.7712 693.17 83.1158 692.654Z" fill="#262961"/>
<path d="M166.231 601.736C173.856 602.587 175.588 607.872 179.78 612.064C183.942 616.256 187.071 626.888 218.664 631.9C250.258 636.943 247.129 638.887 270.399 646.724C293.669 654.561 319.005 652.04 365.15 629.956C369.19 628.012 372.866 626.007 376.238 623.941C381.949 620.418 386.749 616.742 390.85 613.006C411.933 593.625 413.877 572.362 422.079 563.157C432.833 551.128 449.511 551.128 476.578 541.347C503.645 531.565 501.215 497.452 489.428 497.452C477.611 497.452 407.71 477.981 357.737 449.487C374.415 421.54 382.678 365.282 380.248 348.514C379.671 344.474 378.668 340.434 377.544 336.424C376.815 333.812 376.025 331.169 375.266 328.557C372.349 318.593 355.732 308.66 357.737 298.727H357.677L352.603 299.334L340.239 300.853L307.096 304.893C307.096 304.893 307.036 305.592 306.914 306.837C306.306 313.55 304.362 335.877 304.21 344.626C303.998 354.954 179.415 579.956 166.231 601.736Z" fill="#3AFFDC"/>
<path d="M533.327 601.493C532.902 604.409 534.087 606.991 535.788 607.842C536.183 608.054 536.608 608.145 537.034 608.145C537.489 608.145 537.975 608.054 538.431 607.781C539.099 607.447 539.737 606.839 540.375 605.958C544.78 598.941 550.795 577.131 552.861 564.403C553.499 560.454 553.772 557.386 553.468 555.928C553.134 554.227 552.344 552.07 551.433 549.792C548.972 543.655 545.479 536.517 546.907 534.876C548.243 533.327 550.552 534.208 554.197 535.393C555.899 535.94 557.934 536.578 560.273 537.064C561.549 535.727 562.217 534.026 562.582 532.507C563.098 530.259 562.916 528.376 562.916 528.376C562.916 528.376 557.995 524.731 552.314 521.389C548.699 519.263 544.81 517.227 541.681 516.316C533.662 513.977 529.166 515.891 525.064 517.076C525.064 517.076 524.973 517.106 524.852 517.197C524.153 517.714 521.844 519.961 521.206 528.345C520.417 538.309 532.112 560.909 531.596 565.618C530.533 575.642 534.087 596.238 533.327 601.493Z" fill="white" stroke="#262961" stroke-width="2.25714" stroke-miterlimit="10"/>
<path d="M526.735 521.268C541.955 532.507 552.253 556.292 552.891 564.433C553.529 560.484 553.802 557.416 553.499 555.958C552.284 549.731 544.962 537.185 546.907 534.907C548.851 532.629 552.922 535.575 560.273 537.064C561.549 535.727 562.217 534.026 562.582 532.507C563.098 530.259 562.916 528.376 562.916 528.376C562.916 528.376 549.701 518.655 541.681 516.316C533.662 513.977 529.166 515.891 525.064 517.076C525.064 517.076 525.368 517.258 525.247 517.349L526.735 521.268Z" fill="#40439D"/>
<path d="M533.327 601.493C532.568 606.748 537.003 610.879 540.406 605.989C544.81 598.972 550.825 577.161 552.891 564.433C553.529 560.484 553.802 557.416 553.499 555.958C552.284 549.731 544.962 537.185 546.907 534.907C548.851 532.629 552.922 535.575 560.273 537.064C561.549 535.727 562.217 534.026 562.582 532.507C563.098 530.259 562.916 528.376 562.916 528.376C562.916 528.376 549.701 518.655 541.681 516.316C533.662 513.977 529.166 515.891 525.064 517.076C525.064 517.076 524.973 517.106 524.852 517.197C524.153 517.714 521.844 519.961 521.206 528.345C520.416 538.309 532.112 560.909 531.596 565.618C530.533 575.642 534.087 596.238 533.327 601.493Z" stroke="#262961" stroke-width="2.25714" stroke-miterlimit="10"/>
<path d="M488.639 502.251C507.048 508.448 526.916 518.017 526.916 518.017C526.916 518.017 531.473 527.19 522.602 531.291C504.193 526.674 484.902 522.968 484.902 522.968L488.639 502.251Z" fill="#FFB28B" stroke="#262961" stroke-width="2.25714" stroke-miterlimit="10"/>
<path d="M500.397 506.959C501.977 510.058 501.096 516.923 501.734 519.535C502.372 522.148 501.734 526.704 501.734 526.704L494.504 524.912C494.504 524.912 495.233 504.894 495.446 505.046C495.658 505.197 500.397 506.959 500.397 506.959Z" fill="#262961"/>
<path d="M554.653 535.332C556.354 535.879 558.389 536.517 560.728 537.003C562.004 535.666 562.672 533.965 563.037 532.446C563.553 530.198 563.371 528.315 563.371 528.315C563.371 528.315 558.45 524.67 552.769 521.328C556.627 525.733 555.655 533.661 554.653 535.332Z" fill="#262961"/>
<path d="M536.244 607.78C536.518 608.054 536.943 608.145 537.49 608.115C537.915 608.084 538.371 607.963 538.887 607.75C539.556 607.416 540.194 606.808 540.832 605.927C545.236 598.91 551.251 577.1 553.317 564.372C553.955 560.423 554.229 557.355 553.925 555.897C553.591 554.196 552.801 552.039 551.889 549.761C549.854 561.759 545.935 577.768 544.477 582.477C542.107 590.192 534.239 605.684 536.244 607.78Z" fill="#262961"/>
<path d="M328.209 443.685C305.851 480.259 319.187 503.072 363.691 517.623C399.629 529.379 383.681 598.03 376.238 623.972C381.949 620.449 386.749 616.773 390.85 613.037C411.933 593.656 413.877 572.392 422.079 563.188C432.833 551.159 449.511 551.159 476.578 541.378C503.645 531.596 501.215 497.483 489.428 497.483C477.611 497.483 407.71 478.011 357.737 449.518C374.415 421.571 383.498 369.293 381.068 352.524C380.491 348.484 377.635 334.724 376.511 330.714C376.481 330.714 376.42 364.827 328.209 443.685Z" fill="#40439D"/>
<path d="M165.655 602.039C166.08 602.221 166.566 602.403 167.082 602.525C167.66 602.616 167.842 602.707 168.237 602.798C168.905 602.981 169.573 603.193 170.181 603.497C171.427 604.074 172.551 604.925 173.553 605.897C175.558 607.871 177.077 610.423 179.234 612.61C181.087 614.645 182.727 617.258 184.915 619.354C187.041 621.48 189.502 623.272 192.114 624.73C202.625 630.624 214.655 632.294 226.077 634.299C231.819 635.362 237.561 636.486 243.12 638.127C248.679 639.737 253.995 642.106 259.524 644.202C265.023 646.268 270.552 648.333 276.354 649.822C282.126 651.28 288.11 652.039 294.065 652.1C306.003 652.191 317.76 649.7 329.03 646.176C340.301 642.622 351.207 638.096 361.869 633.145C372.623 628.376 383.074 622.27 391.883 614.19C400.724 606.14 407.65 596.055 412.632 585.301C415.184 579.955 417.28 574.426 419.953 569.414C422.444 564.341 426.667 560.635 431.588 557.932C436.54 555.258 442.099 553.557 447.689 551.978C453.309 550.398 458.99 548.91 464.64 547.209C467.465 546.358 470.29 545.477 473.085 544.535L477.278 543.077C478.705 542.5 480.133 541.953 481.5 541.224C486.999 538.43 491.768 534.086 494.927 528.739C498.087 523.423 499.758 517.227 499.606 510.999C499.515 507.901 498.968 504.742 497.57 501.765C496.872 500.307 495.93 498.849 494.533 497.694C493.196 496.51 491.252 495.781 489.399 495.811C486.786 495.72 483.839 495.173 481.014 494.626C478.189 494.049 475.333 493.411 472.508 492.712C466.858 491.315 461.207 489.766 455.618 488.126C444.378 484.875 433.259 481.23 422.262 477.251C400.298 469.231 378.578 460.3 358.103 448.97L358.346 449.851C365.302 438.216 369.92 425.428 373.565 412.457C377.18 399.486 379.884 386.241 381.524 372.845C382.314 366.132 382.861 359.388 382.709 352.584C382.679 345.719 381.069 338.914 378.669 332.535C376.299 326.095 372.472 320.172 367.854 315.19C365.606 312.669 363.206 310.299 361.292 307.717C359.348 305.135 358.285 302.037 358.437 298.786V298.756C358.437 298.422 358.163 298.118 357.799 298.118H357.708L307.067 304.285C306.763 304.315 306.55 304.558 306.52 304.862L304.788 325.518L304.059 335.877L303.786 341.071C303.603 342.803 303.877 344.625 303.3 346.023C300.9 352.402 297.71 358.599 294.672 364.765C291.604 370.932 288.445 377.098 285.255 383.234C272.496 407.748 259.403 432.111 246.218 456.412C233.034 480.714 219.728 504.954 206.362 529.134L165.655 602.039ZM166.809 601.462C167.113 601.249 167.325 601.158 167.477 600.915L168.115 599.821L169.422 597.573L172.004 593.078L177.138 584.056L187.284 565.982L207.425 529.742C220.792 505.532 234.097 481.291 247.282 456.989C260.466 432.688 273.559 408.325 286.318 383.811C289.508 377.675 292.667 371.509 295.735 365.342C298.773 359.115 301.963 353.009 304.424 346.417C304.728 345.597 304.91 344.473 304.849 343.683L304.94 341.101L305.214 335.937L305.943 325.609L307.674 304.953L307.127 305.53L357.768 299.364L357.07 298.695C356.705 302.158 357.738 305.834 359.713 308.72C361.596 311.666 363.996 314.066 366.123 316.618C370.436 321.66 373.93 327.25 376.178 333.416C378.395 339.613 379.884 346.083 380.005 352.645C380.218 359.267 379.732 365.919 379.003 372.542C377.514 385.816 374.932 398.969 371.469 411.88C367.854 424.729 363.753 437.578 357.161 449.182C356.979 449.486 357.1 449.881 357.404 450.063C377.727 461.88 399.265 471.54 421.259 479.802C432.257 483.934 443.375 487.761 454.646 491.163C460.266 492.895 465.946 494.474 471.657 495.902C474.513 496.631 477.399 497.299 480.285 497.877C483.201 498.454 486.057 499.031 489.307 499.183C491.495 499.122 493.317 500.884 494.411 503.253C495.505 505.592 496.021 508.357 496.082 511.09C496.203 516.589 494.684 522.178 491.829 526.917C489.004 531.686 484.751 535.513 479.799 538.004C477.369 539.28 474.635 540.131 471.87 541.103C469.106 542.045 466.341 542.925 463.546 543.776C457.987 545.477 452.337 546.996 446.656 548.606C441.006 550.246 435.264 551.978 429.887 554.924C427.183 556.352 424.692 558.266 422.444 560.362C420.166 562.427 418.313 565.192 416.946 567.804C414.121 573.181 412.116 578.649 409.625 583.904C404.794 594.445 398.233 604.074 389.727 611.881C381.251 619.718 371.226 625.672 360.594 630.441C350.022 635.393 339.238 639.919 328.149 643.473C317.092 646.966 305.608 649.457 294.065 649.396C270.612 650.034 250.289 634.238 226.472 632.112C220.67 631.079 214.868 630.411 209.217 629.044C203.597 627.677 197.977 626.006 192.965 623.181C190.444 621.814 188.074 620.174 186.039 618.169C183.943 616.194 182.424 613.825 180.297 611.516C178.262 609.542 176.712 607.021 174.525 604.864C173.431 603.801 172.156 602.859 170.758 602.251C170.06 601.917 169.33 601.674 168.571 601.492C168.237 601.431 167.72 601.249 167.568 601.279C167.325 601.31 167.113 601.401 166.809 601.462Z" fill="#262961"/>
<path d="M302.601 345.294L303.968 361.485C304.332 366.862 304.727 372.269 304.363 377.615C304.332 377.828 304.514 378.04 304.727 378.071C304.94 378.101 305.152 377.919 305.183 377.706C305.79 372.269 305.669 366.831 305.547 361.424L304.909 345.233V345.203C304.879 344.565 304.362 344.079 303.725 344.109C303.087 344.14 302.601 344.656 302.631 345.294C302.601 345.264 302.601 345.294 302.601 345.294Z" fill="#262961"/>
<path d="M335.775 121.659C335.775 141.647 342.883 157.869 355.278 157.869C367.672 157.869 379.125 141.556 379.125 121.568C379.125 101.58 371.925 89.3687 359.531 89.3687C347.136 89.3687 335.775 97.1148 335.775 121.659Z" fill="#FFB28B"/>
<path d="M355.976 89.4293C355.976 89.4293 355.216 83.3235 356.583 79.1619C357.951 75.0002 388.056 71.598 387.904 105.073C383.59 116.161 376.846 119.229 376.846 119.229C376.846 119.229 357.343 111.088 355.976 89.4293Z" fill="#FFFDC6"/>
<path d="M382.193 246.417C380.067 240.554 375.388 226.429 373.232 213.853C373.232 213.853 372.867 209.539 376.3 200.305C378.183 195.232 380.492 190.918 381.707 188.792C382.193 187.941 382.74 187.091 383.348 186.301L386.75 181.684" stroke="#262961" stroke-width="2.25714" stroke-miterlimit="10" stroke-linecap="round" stroke-linejoin="round"/>
<path d="M327.42 254.315C324.777 253.313 322.225 252.159 319.734 250.852C318.489 250.214 317.274 249.516 316.119 248.756C314.995 248.027 313.719 247.177 312.96 246.387L312.899 246.296C312.443 245.84 311.745 245.84 311.289 246.296C310.833 246.751 310.833 247.45 311.289 247.906C311.319 247.936 311.35 247.967 311.35 247.967C312.686 249.091 313.871 249.698 315.177 250.397C316.453 251.065 317.76 251.673 319.096 252.219C321.739 253.343 324.443 254.285 327.177 255.075C327.39 255.136 327.633 255.014 327.693 254.801C327.754 254.619 327.633 254.406 327.42 254.315Z" fill="#262961"/>
<path d="M358.559 88.275L357.131 93.834C357.131 93.834 338.266 105.408 334.954 112.273C331.643 119.138 338.418 92.2847 338.57 91.981C338.721 91.6772 350.599 80.6504 350.599 80.6504L358.559 88.275Z" fill="#FFFDC6"/>
<path d="M376.422 144.29C374.781 149.029 365.425 158.871 355.278 157.868C346.651 157.018 342.793 150.639 340.028 145.475C333.558 132.473 336.596 111.179 336.596 111.179C339.421 105.408 348.929 98.7854 356.22 93.834" stroke="#262961" stroke-width="1.50459" stroke-miterlimit="10" stroke-linecap="round" stroke-linejoin="round"/>
<path d="M375.6 165.279C373.413 164.641 363.206 161.452 359.014 159.447C359.165 157.746 359.014 157.776 359.014 157.776C359.014 157.776 369.038 155.194 371.529 151.245C374.02 147.296 376.846 144.775 376.846 144.775L375.6 165.279Z" fill="#262961"/>
<path d="M374.781 158.81L377.758 130.347C377.758 130.347 386.781 127.947 387.115 121.416C387.419 114.855 379.277 115.736 377.272 119.047" stroke="#262961" stroke-width="2.25714" stroke-miterlimit="10" stroke-linecap="round" stroke-linejoin="round"/>
<path d="M378.243 228.07C381.949 231.077 384.987 235.087 386.141 239.552V239.582C386.263 240.068 386.749 240.372 387.235 240.22C387.721 240.099 388.025 239.613 387.873 239.127C387.873 239.096 387.873 239.066 387.842 239.066C386.111 234.175 382.587 230.348 378.547 227.583C378.395 227.492 378.212 227.523 378.121 227.675C378.091 227.766 378.121 227.948 378.243 228.07Z" fill="#262961"/>
<path d="M311.289 212.699C312.686 209.996 328.392 197.663 329.577 195.354C330.731 193.015 334.438 180.166 334.438 180.166" stroke="#262961" stroke-width="1.50459" stroke-miterlimit="10" stroke-linecap="round" stroke-linejoin="round"/>
<path d="M366.365 183.021L363.479 184.236C362.537 184.661 361.535 184.995 360.654 185.573L361.444 185.876L359.591 182.444C359.53 182.353 359.408 182.292 359.317 182.353C359.226 182.413 359.196 182.504 359.226 182.596L360.38 186.332C360.472 186.605 360.745 186.757 361.018 186.666L361.17 186.636C362.173 186.332 363.084 185.816 364.026 185.36L366.821 183.963C367.064 183.841 367.185 183.537 367.064 183.264C366.912 183.021 366.608 182.93 366.365 183.021Z" fill="#262961"/>
<path d="M381.372 120.596C377.787 119.108 374.355 117.285 371.226 115.007C368.127 112.728 365.363 109.964 363.175 106.805C360.927 103.706 359.196 100.213 357.981 96.5376C356.857 92.8316 356.188 89.0041 355.824 85.1159C355.824 84.9032 355.642 84.7513 355.429 84.7817C355.247 84.7817 355.095 84.964 355.095 85.1766C355.247 89.1256 355.763 93.0746 356.917 96.9021C358.072 100.699 359.803 104.344 362.082 107.625C364.421 110.875 367.307 113.7 370.527 116.04C373.747 118.379 377.362 120.14 381.068 121.507C381.311 121.598 381.585 121.477 381.676 121.234C381.737 120.961 381.615 120.687 381.372 120.596Z" fill="#262961"/>
<path d="M464.731 190.798C467.313 178.739 479.13 170.992 491.221 173.483C503.311 175.944 511.149 187.7 508.81 199.82L464.731 190.798Z" fill="white" stroke="#262961" stroke-width="1.50459" stroke-miterlimit="10"/>
<path d="M464.913 193.106L508.627 201.916C508.84 201.946 509.083 201.885 509.296 201.733C509.873 201.369 510.238 200.731 510.268 200.032C510.329 199.182 510.268 198.149 509.751 198.058L465.429 190.524C464.73 190.372 464.032 190.828 463.88 191.557C463.728 192.256 464.184 192.954 464.913 193.106Z" fill="#262961"/>
<path d="M456.77 262.913C458.471 265.373 483.442 269.383 485.933 267.226C488.029 265.404 502.337 219.261 506.621 205.318C507.38 202.827 507.836 201.369 507.836 201.369L465.397 192.59C465.397 192.59 465.245 193.623 464.972 195.446C463.028 208.295 455.281 260.726 456.77 262.913Z" fill="#FFFDC6" stroke="#262961" stroke-width="1.50459" stroke-miterlimit="10"/>
<path d="M490.826 222.117C480.072 218.714 470.29 219.474 460.903 223.332C459.992 230.106 459.415 235.391 459.415 235.391L492.314 240.434L490.826 222.117Z" fill="#262961"/>
<path d="M495.959 235.3C488.456 236.697 483.443 232.991 478.674 229.589C473.904 226.187 467.434 225.033 460.143 229.103C458.958 238.155 455.525 265.221 455.525 265.221L486.269 269.99C486.269 269.99 499.028 237.761 498.876 237.426C498.724 237.153 495.959 235.3 495.959 235.3Z" fill="#3AFFDC"/>
<path d="M500.971 140.068L493.984 175.944C493.862 176.642 493.163 177.341 492.465 177.523C491.493 177.766 490.429 177.493 489.427 177.219C488.212 176.885 487.361 175.974 487.604 174.728C489.153 167.104 495.381 139.188 495.381 139.188L500.971 140.068Z" fill="#00C3EB" stroke="#262961" stroke-width="1.50459" stroke-miterlimit="10"/>
<path d="M508.323 190.221C507.958 194.23 500.333 195.719 492.313 195.233C484.293 194.747 497.933 198.331 497.933 198.331H509.022C509.022 198.331 509.386 197.39 509.022 194.261C508.657 191.162 508.323 190.221 508.323 190.221Z" fill="#262961"/>
<path d="M456.832 262.457C458.533 264.917 483.504 268.927 485.996 266.77C488.092 264.947 502.4 218.805 506.683 204.862C507.443 202.371 507.898 200.913 507.898 200.913L465.46 192.134C465.46 192.134 465.308 193.167 465.034 194.99C463.09 207.839 455.344 260.269 456.832 262.457Z" stroke="#262961" stroke-width="1.50459" stroke-miterlimit="10"/>
<path d="M506.713 222.055C507.199 224.242 505.953 226.763 503.432 228.798C503.432 232.413 502.976 234.904 497.964 236.362C497.265 239.916 497.417 243.501 493.498 243.47C489.579 243.44 482.471 237.82 483.534 232.504C484.628 227.188 490.491 218.683 499.27 218.865C500.181 218.865 501.488 218.865 502.551 218.865C504.495 218.865 506.287 220.141 506.713 222.055Z" fill="#FFB28B" stroke="#262961" stroke-width="1.50459" stroke-miterlimit="10" stroke-linecap="round" stroke-linejoin="round"/>
<path d="M468.558 214.248C469.348 214.521 469.956 215.19 470.047 216.01C470.229 217.438 468.862 219.078 463.758 221.083C460.751 222.055 460.204 226.004 460.204 226.004C460.204 226.004 456.164 223.483 456.62 218.956C457.045 214.43 462.695 213.671 465.156 213.671C466.584 213.64 467.768 213.975 468.558 214.248Z" fill="#FFB28B" stroke="#262961" stroke-width="1.50459" stroke-miterlimit="10" stroke-linecap="round" stroke-linejoin="round"/>
<path d="M224.042 119.198C224.042 119.198 252.111 201.277 252.749 205.59C253.387 209.904 206.301 212.698 203.384 210.693C199.526 201.732 177.016 126.61 176.53 122.752C193.208 119.198 224.042 119.198 224.042 119.198Z" fill="white" stroke="#262961" stroke-width="1.50459" stroke-miterlimit="10"/>
<path d="M221.641 124.667C224.77 134.145 245.701 198.149 245.944 199.303C246.187 200.457 208.335 204.376 206.847 204.194C205.328 204.042 181.754 128.008 181.633 126.854C181.511 125.73 221.641 124.667 221.641 124.667Z" fill="#3AFFDC" stroke="#262961" stroke-width="1.50459" stroke-miterlimit="10" stroke-linecap="round" stroke-linejoin="round"/>
<path d="M248.77 233.72C245.944 230.53 246.765 226.703 247.585 219.199C248.405 211.666 244.122 201.733 241.327 197.115C238.562 192.498 239.474 191.222 238.076 190.281C236.679 189.369 234.036 191.101 236.345 199.667C238.653 208.233 236.284 210.36 236.284 210.36L219.333 211.18C219.333 211.18 218.968 217.255 233.611 228.95C248.253 240.615 248.77 233.72 248.77 233.72Z" fill="#FFB28B"/>
<path d="M350.598 131.623C349.838 134.63 348.471 136.483 347.59 137.243L350.598 131.623Z" fill="#FFB28B"/>
<path d="M350.598 131.623C349.838 134.63 348.471 136.483 347.59 137.243" stroke="#262961" stroke-width="1.50459" stroke-miterlimit="10" stroke-linecap="round" stroke-linejoin="round"/>
<path d="M352.056 148.239C350.597 148.239 349.413 147.055 349.413 145.596C349.413 144.136 350.597 142.953 352.056 142.953C353.516 142.953 354.699 144.136 354.699 145.596C354.699 147.055 353.516 148.239 352.056 148.239Z" fill="#F4259A"/>
<path d="M357.342 143.896C355.914 145.931 350.264 147.753 346.77 144.898" stroke="#262961" stroke-width="1.50459" stroke-miterlimit="10" stroke-linecap="round" stroke-linejoin="round"/>
<path d="M368.828 126.185C367.37 122.509 364.423 120.504 361.021 120.687C357.618 120.869 355.644 123.876 355.036 126.185" stroke="#262961" stroke-width="1.41582" stroke-miterlimit="10" stroke-linecap="round" stroke-linejoin="round"/>
<path d="M347.105 125.79C346.954 122.57 340.878 117.102 336.108 123.299" stroke="#262961" stroke-width="1.43448" stroke-miterlimit="10" stroke-linecap="round" stroke-linejoin="round"/>
<path d="M359.925 125.791C358.817 125.791 357.92 124.567 357.92 123.057C357.92 121.547 358.817 120.323 359.925 120.323C361.032 120.323 361.93 121.547 361.93 123.057C361.93 124.567 361.032 125.791 359.925 125.791Z" fill="#262961"/>
<path d="M339.632 125.791C338.524 125.791 337.627 124.567 337.627 123.057C337.627 121.547 338.524 120.323 339.632 120.323C340.739 120.323 341.637 121.547 341.637 123.057C341.637 124.567 340.739 125.791 339.632 125.791Z" fill="#262961"/>
<path d="M249.438 234.206C247.919 233.203 246.4 230.925 246.825 226.429C247.25 221.933 248.435 216.496 246.946 211.362C245.488 206.198 244.455 202.037 241.478 197.419C238.501 192.832 239.382 190.797 238.046 190.281C236.709 189.764 235.068 190.159 235.494 195.536C235.919 200.913 238.927 203.829 236.192 210.573C230.421 210.603 219.302 211.15 219.302 211.15C220.274 216.01 222.856 218.44 226.502 222.602C230.147 226.763 232.729 227.918 233.884 229.801" stroke="#262961" stroke-width="1.50459" stroke-miterlimit="10"/>
<path d="M231.213 204.436C232.823 205.53 232.61 206.988 231.213 207.049C229.815 207.11 228.114 206.289 228.965 204.953C229.846 203.647 231.213 204.436 231.213 204.436Z" fill="#00C3EB" stroke="#262961" stroke-width="1.50459" stroke-miterlimit="10" stroke-linecap="round" stroke-linejoin="round"/>
<path d="M495.533 226.521C491.675 225.822 488.212 223.938 488.212 223.938L495.533 226.521Z" fill="#FFB28B"/>
<path d="M495.533 226.521C491.675 225.822 488.212 223.938 488.212 223.938" stroke="#262961" stroke-width="1.50459" stroke-miterlimit="10" stroke-linecap="round" stroke-linejoin="round"/>
<path d="M493.559 233.81C486.207 232.504 484.536 229.861 484.536 229.861L493.559 233.81Z" fill="#FFB28B"/>
<path d="M493.559 233.81C486.207 232.504 484.536 229.861 484.536 229.861" stroke="#262961" stroke-width="1.50459" stroke-miterlimit="10" stroke-linecap="round" stroke-linejoin="round"/>
<path d="M393.615 467.196C375.115 458.387 360.199 464.796 354.883 466.649C349.566 468.502 346.103 467.803 346.103 467.803C348.807 463.338 355.581 453.526 357.677 449.517" fill="#262961"/>
<path d="M383.104 231.532C383.651 232.322 386.081 239.764 386.203 240.676C386.324 241.587 387.479 238.883 387.479 238.883L383.104 231.532Z" fill="#262961"/>
<path d="M335.805 117.771C337.202 117.589 340.119 117.164 341.698 116.981C342.336 116.89 342.822 116.769 343.157 116.617C344.007 116.222 343.612 115.037 342.67 115.22C342.61 115.22 342.549 115.25 342.519 115.25L342.64 115.766L342.427 115.827L342.306 115.28C342.124 115.311 341.911 115.371 341.698 115.402L341.759 115.675L341.546 115.736L341.486 115.463C341.06 115.554 340.605 115.645 340.119 115.736C338.63 116.04 336.716 116.981 335.714 117.498C335.562 117.589 335.623 117.802 335.805 117.771Z" fill="#262961"/>
<path d="M366.852 117.71C365.181 117.618 361.687 117.467 359.834 117.375C359.075 117.345 358.498 117.254 358.072 117.072C357.04 116.677 357.435 115.128 358.528 115.219C358.589 115.219 358.65 115.219 358.71 115.249L358.619 115.948L358.862 115.978L358.953 115.279C359.196 115.31 359.439 115.34 359.683 115.371L359.622 115.735L359.865 115.765L359.956 115.431C360.442 115.492 360.989 115.553 361.596 115.614C363.389 115.857 365.697 116.798 366.913 117.345C367.125 117.436 367.064 117.74 366.852 117.71Z" fill="#262961"/>
<path d="M356.611 68.0443C351.599 68.0443 346.313 69.7758 341.392 73.8766C333.281 80.6507 333.979 87.8804 332.491 96.2036C331.002 104.527 321.646 109.964 327.995 120.262C334.83 131.38 329.271 132.534 329.392 136.24C329.514 139.946 332.795 141.344 335.772 143.865C338.141 145.9 339.083 150.578 344.521 152.674C347.437 155.955 351.052 157.838 355.275 157.838C355.761 157.899 356.247 157.899 356.733 157.899C357.553 157.899 358.343 157.838 359.133 157.717C359.072 157.747 359.011 157.747 359.011 157.747L357.401 177.28C357.371 177.766 356.976 178.16 356.49 178.191C354.637 178.343 349.472 178.738 338.961 179.406C338.232 179.467 337.534 179.527 336.835 179.588C336.926 179.284 336.987 179.102 336.987 179.102L333.736 179.77C333.736 179.77 333.706 179.892 333.676 180.074C321.949 182.626 321.767 190.736 318.912 196.599C316.785 200.943 313.444 206.806 311.287 212.638C311.256 212.729 311.226 212.82 311.196 212.912C310.831 213.458 310.558 213.944 310.375 214.4C309.585 216.435 309.13 219.2 308.917 222.237C308.917 222.268 308.887 222.268 308.887 222.298C308.826 222.45 308.765 222.602 308.704 222.754C308.674 222.814 308.674 222.845 308.644 222.906C308.553 223.118 308.492 223.331 308.401 223.544C308.37 223.604 308.34 223.665 308.34 223.726C308.279 223.878 308.218 224.06 308.127 224.242C308.097 224.333 308.066 224.394 308.036 224.485C307.945 224.698 307.854 224.941 307.763 225.154C307.732 225.214 307.702 225.305 307.672 225.366C307.611 225.548 307.52 225.761 307.459 225.943C307.429 226.034 307.398 226.126 307.337 226.247C307.277 226.429 307.186 226.642 307.125 226.824C307.094 226.915 307.064 226.976 307.034 227.067C306.943 227.31 306.851 227.584 306.73 227.857C306.699 227.979 306.639 228.1 306.608 228.191C306.548 228.373 306.487 228.556 306.396 228.738C306.335 228.859 306.305 228.981 306.274 229.102C306.183 229.346 306.092 229.619 306.001 229.862C305.94 230.014 305.879 230.166 305.849 230.287C305.788 230.469 305.727 230.652 305.636 230.834C305.575 230.986 305.515 231.138 305.454 231.29C305.393 231.472 305.332 231.624 305.272 231.806C305.181 232.049 305.089 232.322 304.998 232.565C304.938 232.748 304.877 232.9 304.816 233.082C304.755 233.264 304.695 233.446 304.603 233.659C304.543 233.811 304.512 233.932 304.451 234.084C304.391 234.297 304.3 234.479 304.239 234.692C304.208 234.753 304.178 234.844 304.148 234.904C303.996 235.33 303.844 235.755 303.692 236.211C303.662 236.332 303.601 236.454 303.571 236.545C303.479 236.788 303.419 237 303.327 237.243C303.297 237.335 303.267 237.426 303.236 237.517C303.054 238.003 302.902 238.489 302.72 239.005C302.69 239.066 302.69 239.096 302.659 239.157C302.568 239.431 302.477 239.704 302.386 239.947C302.355 240.008 302.325 240.099 302.295 240.16C301.991 241.01 301.687 241.891 301.414 242.772C301.383 242.833 301.383 242.863 301.353 242.924C300.928 244.2 300.502 245.476 300.077 246.782C296.705 257.08 293.333 268.532 291.298 278.252C290.994 277.888 290.66 277.493 290.295 277.098C289.809 276.551 289.323 275.974 288.776 275.306C287.956 274.364 287.075 273.301 286.072 272.147C286.042 272.116 286.042 272.086 286.012 272.055C285.89 271.904 285.769 271.752 285.617 271.6C285.556 271.539 285.526 271.478 285.465 271.417C285.343 271.296 285.222 271.144 285.1 270.992C285.04 270.901 284.979 270.84 284.888 270.749C284.766 270.628 284.675 270.476 284.554 270.354C284.462 270.263 284.402 270.172 284.311 270.051C284.219 269.929 284.098 269.807 284.007 269.686C283.916 269.564 283.824 269.473 283.733 269.352C283.642 269.23 283.551 269.109 283.43 269.018C283.338 268.896 283.217 268.775 283.126 268.653C283.035 268.532 282.913 268.41 282.822 268.289C282.731 268.167 282.64 268.046 282.549 267.955C282.427 267.803 282.306 267.681 282.184 267.529C282.093 267.408 282.002 267.286 281.911 267.195C281.789 267.074 281.698 266.922 281.576 266.8C281.455 266.648 281.333 266.496 281.212 266.345C281.121 266.223 281.03 266.132 280.938 266.01C280.817 265.859 280.665 265.707 280.544 265.555C280.422 265.433 280.331 265.281 280.209 265.16C280.088 265.008 279.966 264.886 279.845 264.735C279.723 264.583 279.602 264.461 279.48 264.309C279.359 264.157 279.207 263.975 279.085 263.823C278.964 263.702 278.873 263.55 278.751 263.428C278.63 263.276 278.478 263.125 278.356 262.942C278.235 262.79 278.113 262.639 277.992 262.487C277.87 262.335 277.718 262.183 277.597 262.031C277.475 261.879 277.354 261.727 277.202 261.575C277.08 261.423 276.929 261.241 276.807 261.089C276.685 260.937 276.564 260.786 276.412 260.634C276.291 260.482 276.139 260.33 276.017 260.148C275.865 259.965 275.713 259.783 275.592 259.631C275.501 259.51 275.379 259.388 275.288 259.267C275.106 259.054 274.954 258.841 274.772 258.629C274.681 258.507 274.589 258.416 274.498 258.295C274.316 258.052 274.103 257.839 273.921 257.596C273.648 257.262 273.344 256.897 273.07 256.563C271.248 254.346 269.364 252.219 267.45 250.184C266.812 249.516 266.175 248.847 265.537 248.179C263.927 246.539 262.347 244.99 260.737 243.501C260.099 242.894 259.461 242.316 258.823 241.77C257.881 240.919 256.939 240.099 255.998 239.309C255.36 238.793 254.752 238.276 254.145 237.79C253.233 237.031 252.322 236.332 251.441 235.664C250.833 235.208 250.256 234.783 249.679 234.358C249.618 234.297 249.557 234.267 249.497 234.206C249.163 233.993 248.828 233.689 248.525 233.355C247.066 231.472 246.763 229.376 246.915 226.399C247.34 221.903 248.494 216.496 247.036 211.362C247.036 211.362 247.036 211.362 247.036 211.332C246.823 210.33 246.55 209.358 246.277 208.385C250.347 207.565 252.96 206.624 252.808 205.591C252.2 201.277 224.1 119.199 224.1 119.199C224.1 119.199 193.236 119.199 176.588 122.753C177.044 126.611 199.585 201.763 203.443 210.694C204.111 211.15 206.997 211.332 211.098 211.332C213.529 211.332 216.384 211.271 219.422 211.119C219.422 211.119 219.331 212.881 221.488 216.314C221.548 216.405 221.609 216.526 221.7 216.618C222.764 218.228 224.313 220.202 226.591 222.511C226.591 222.541 226.622 222.541 226.622 222.541C230.267 226.703 232.849 227.857 234.004 229.74C234.216 230.318 234.52 230.986 234.945 231.745V231.776C235.037 231.958 235.158 232.171 235.28 232.353C235.31 232.414 235.34 232.474 235.401 232.535C235.492 232.687 235.583 232.839 235.705 233.021C235.735 233.082 235.796 233.143 235.826 233.203C235.948 233.386 236.039 233.538 236.161 233.72C236.191 233.781 236.221 233.841 236.252 233.872C236.373 234.084 236.525 234.297 236.647 234.51C236.677 234.54 236.677 234.57 236.707 234.601C246.52 249.364 279.177 287.851 290.234 298.514C290.265 298.544 290.295 298.574 290.325 298.605C290.356 298.635 290.386 298.666 290.417 298.696C290.66 299.182 290.933 299.546 291.176 299.82C291.723 300.519 292.361 300.822 293.09 300.822C293.242 300.822 293.394 300.822 293.546 300.792C297.556 300.336 303.753 290.646 309.555 280.257C309.373 282.475 309.191 284.723 308.978 287.031C308.188 294.413 307.429 301.551 306.851 306.807C306.791 307.232 306.791 307.627 306.821 308.022C306.639 310.148 306.365 313.216 306.092 316.679C306.092 316.74 306.092 316.801 306.092 316.861C306.062 317.165 306.031 317.499 306.001 317.833C305.97 318.016 305.97 318.228 305.94 318.411C305.94 318.502 305.94 318.593 305.91 318.654C305.454 324.334 304.938 330.865 304.603 336.333V336.363C304.573 336.819 304.543 337.244 304.512 337.669C304.512 337.761 304.512 337.852 304.482 337.973C304.451 338.277 304.452 338.581 304.421 338.885C304.421 339.036 304.391 339.188 304.391 339.371C304.391 339.522 304.36 339.705 304.36 339.857C304.36 340.1 304.33 340.373 304.33 340.616C304.33 340.738 304.33 340.859 304.3 341.011C304.3 341.224 304.269 341.436 304.269 341.618C304.269 341.71 304.269 341.831 304.269 341.922C304.269 342.196 304.239 342.439 304.239 342.682C304.239 342.773 304.239 342.834 304.239 342.925C304.239 343.198 304.208 343.441 304.208 343.684C304.208 343.745 304.208 343.806 304.208 343.866C304.208 344.14 304.208 344.383 304.178 344.626C303.965 354.954 179.413 579.955 166.229 601.736C167.87 601.918 169.237 602.313 170.391 602.829C169.783 603.832 169.176 604.895 168.508 606.019C159.485 621.845 146.726 650.217 146.726 650.217C141.623 650.217 101.371 685.151 101.371 685.151L86.2729 686.031H86.0603C85.4831 686.062 84.9363 686.366 84.6021 686.852C84.5717 686.912 84.511 686.973 84.4806 687.034C84.4806 687.034 84.4806 687.064 84.4502 687.064C84.4198 687.095 84.3895 687.125 84.3895 687.186C84.3591 687.247 84.3287 687.307 84.2679 687.368C84.2376 687.398 84.2072 687.459 84.1768 687.49C84.1465 687.55 84.1161 687.611 84.0553 687.672C84.0249 687.702 83.9945 687.763 83.9641 687.824C83.9338 687.884 83.9034 687.945 83.8427 688.006C83.8123 688.067 83.7819 688.097 83.7515 688.158C83.7212 688.219 83.6907 688.279 83.63 688.371C83.5996 688.431 83.5692 688.462 83.5388 688.522C83.5085 688.583 83.4781 688.674 83.4174 688.735C83.387 688.796 83.3566 688.826 83.3566 688.887C83.3262 688.978 83.2958 689.069 83.235 689.13C83.2047 689.16 83.2047 689.221 83.1743 689.251C83.1136 689.373 83.0832 689.525 83.0224 689.646C82.6579 690.679 82.5363 691.742 82.9617 692.623C82.992 692.654 82.992 692.684 83.0224 692.714C83.0528 692.806 83.1136 692.866 83.1743 692.957C83.2047 693.018 83.2351 693.049 83.2958 693.109C83.3262 693.14 83.3566 693.17 83.387 693.2C83.4173 693.231 83.4781 693.292 83.5085 693.322C83.5389 693.352 83.5692 693.383 83.63 693.413C83.6907 693.443 83.7211 693.504 83.7819 693.535C83.8123 693.565 83.873 693.595 83.9034 693.626C83.9641 693.656 84.0249 693.717 84.0857 693.747C84.1465 693.778 84.1768 693.808 84.2375 693.808C84.3287 693.838 84.3894 693.899 84.4806 693.93C84.511 693.96 84.5717 693.96 84.6021 693.99C84.7236 694.051 84.8755 694.081 85.0274 694.142C87.64 694.932 96.875 695.661 106.049 695.661C115.679 695.661 125.249 694.841 127.132 692.471C127.223 692.35 127.345 692.198 127.466 692.077C127.497 692.016 127.557 691.985 127.588 691.925C127.679 691.833 127.77 691.742 127.861 691.621C127.922 691.56 127.952 691.499 128.013 691.469C128.135 691.347 128.256 691.226 128.378 691.104C128.408 691.074 128.438 691.044 128.469 691.013C128.621 690.861 128.803 690.679 128.985 690.527C129.046 690.467 129.076 690.436 129.137 690.375C129.289 690.254 129.41 690.102 129.562 689.981C129.623 689.92 129.684 689.889 129.714 689.829C129.896 689.677 130.079 689.494 130.291 689.343C130.322 689.312 130.322 689.312 130.352 689.282C136.458 684.118 147.789 677.01 151.678 677.01C151.739 677.01 151.769 677.01 151.83 677.01C155.02 677.161 155.232 684.209 155.08 688.614C155.08 688.796 155.08 688.978 155.05 689.16C155.05 689.191 155.05 689.221 155.05 689.251C155.05 689.434 155.02 689.586 155.02 689.737C155.02 689.798 155.02 689.829 155.02 689.889C155.02 689.981 155.02 690.072 154.989 690.163C154.989 690.224 154.989 690.315 154.989 690.375C154.989 690.436 154.989 690.497 154.989 690.527C154.959 690.801 154.959 691.044 154.928 691.256C154.928 691.287 154.928 691.287 154.928 691.317C154.928 691.378 154.928 691.439 154.898 691.499C154.898 691.53 154.898 691.53 154.898 691.56C154.898 691.682 154.868 691.773 154.868 691.833V691.864C154.868 691.894 154.868 691.925 154.868 691.955V691.985V692.016V692.046C154.868 692.046 158.27 692.471 161.186 692.471C162.645 692.471 163.981 692.38 164.71 692.046C164.741 692.016 164.801 691.985 164.832 691.955L164.862 691.925C164.893 691.894 164.923 691.833 164.953 691.773C164.953 691.742 164.984 691.742 164.984 691.712C165.075 691.56 165.136 691.347 165.227 691.104C165.227 691.074 165.257 691.044 165.257 691.013C165.287 690.922 165.318 690.801 165.348 690.679C165.348 690.649 165.348 690.618 165.379 690.618C165.439 690.315 165.53 689.95 165.591 689.555V689.525C166.199 686.062 166.472 679.5 166.411 672.909C166.351 665.071 165.774 657.174 164.68 654.5C164.68 654.5 164.65 654.5 164.619 654.47C167.323 649.701 179.383 629.075 185.368 618.838C190.076 623.394 198.734 628.71 218.389 631.839C249.983 636.882 246.854 638.826 270.124 646.663C277.779 649.245 285.678 650.703 294.487 650.703C312.35 650.703 333.949 644.689 364.874 629.895C365.482 629.591 366.089 629.318 366.667 629.014C366.849 628.923 367.031 628.832 367.214 628.741C367.639 628.528 368.064 628.315 368.489 628.103C368.672 628.012 368.854 627.921 369.006 627.829C369.583 627.526 370.13 627.222 370.677 626.948C370.737 626.918 370.798 626.888 370.859 626.827C371.345 626.554 371.831 626.28 372.317 626.007C372.499 625.916 372.651 625.825 372.834 625.703C373.228 625.49 373.593 625.247 373.988 625.035C374.14 624.944 374.322 624.852 374.474 624.731C374.96 624.427 375.446 624.154 375.932 623.85C376.6 623.425 377.269 623.03 377.907 622.605C378.059 622.513 378.211 622.422 378.362 622.301C378.848 621.997 379.304 621.693 379.76 621.359C379.973 621.207 380.155 621.086 380.367 620.934C380.793 620.66 381.188 620.357 381.613 620.083C381.795 619.962 382.008 619.81 382.19 619.688C382.676 619.324 383.162 618.959 383.648 618.625C383.739 618.564 383.8 618.504 383.891 618.443C384.438 618.018 384.955 617.623 385.501 617.198C385.684 617.046 385.866 616.924 386.048 616.772C386.413 616.499 386.747 616.195 387.081 615.922C387.263 615.77 387.476 615.588 387.658 615.436C387.992 615.162 388.327 614.859 388.661 614.585C388.813 614.433 388.995 614.312 389.147 614.16C389.633 613.734 390.089 613.309 390.575 612.884C411.657 593.504 413.602 572.24 421.804 563.036C432.558 551.006 449.236 551.006 476.303 541.225C485.629 537.853 491.431 531.595 494.591 524.852L501.487 526.553C501.487 526.553 501.487 526.462 501.517 526.28C507.38 527.555 514.215 529.105 520.99 530.775C521.962 541.62 531.804 561.091 531.349 565.435C530.285 575.46 533.87 596.086 533.08 601.31C533.05 601.493 533.05 601.645 533.019 601.827C533.019 601.888 533.019 601.918 533.019 601.979C533.019 602.1 533.019 602.222 532.989 602.343C532.989 602.404 532.989 602.465 532.989 602.495C532.989 602.617 532.989 602.708 532.989 602.829C532.989 602.89 532.989 602.951 532.989 603.011C532.989 603.133 533.019 603.224 533.019 603.315C533.019 603.376 533.019 603.437 533.05 603.497C533.05 603.589 533.08 603.71 533.111 603.801C533.111 603.862 533.141 603.923 533.141 603.953C533.171 604.044 533.171 604.166 533.202 604.257C533.202 604.318 533.232 604.348 533.232 604.409C533.263 604.5 533.293 604.622 533.323 604.713C533.323 604.773 533.354 604.804 533.354 604.865C533.384 604.956 533.414 605.077 533.475 605.168C533.475 605.199 533.506 605.229 533.506 605.259C533.627 605.533 533.749 605.776 533.87 606.019C533.87 606.049 533.9 606.08 533.931 606.08C533.992 606.171 534.052 606.262 534.113 606.353C534.143 606.383 534.174 606.414 534.174 606.444C534.235 606.505 534.295 606.596 534.356 606.657C534.387 606.687 534.417 606.717 534.417 606.748C534.478 606.809 534.538 606.9 534.599 606.961C534.63 606.991 534.66 607.021 534.66 607.021C534.721 607.082 534.812 607.143 534.873 607.203C534.903 607.234 534.903 607.234 534.933 607.264C535.024 607.325 535.085 607.386 535.176 607.447C535.176 607.447 535.207 607.447 535.207 607.477C535.298 607.538 535.419 607.598 535.511 607.659H535.541C535.602 607.69 535.662 607.72 535.693 607.72C535.723 607.75 535.784 607.75 535.814 607.781C535.875 607.811 535.936 607.811 535.966 607.841C536.027 607.841 536.057 607.872 536.118 607.872C536.179 607.872 536.209 607.902 536.27 607.902C536.331 607.902 536.361 607.933 536.422 607.933C536.483 607.933 536.543 607.933 536.604 607.933C536.635 607.933 536.695 607.933 536.726 607.933H536.756C536.817 607.933 536.908 607.933 536.969 607.933C536.999 607.933 537.029 607.933 537.06 607.933C537.212 607.902 537.364 607.872 537.516 607.841C537.85 607.781 538.184 607.69 538.579 607.538C539.247 607.203 539.885 606.596 540.523 605.715C544.928 598.698 550.943 576.887 553.009 564.159C553.647 560.21 553.89 557.142 553.616 555.684C553.282 553.983 552.492 551.826 551.581 549.548C551.52 549.822 551.49 550.095 551.429 550.368C549.971 546.662 548.057 542.501 546.994 539.342C546.994 539.311 546.994 539.311 546.963 539.281C546.902 539.099 546.842 538.916 546.781 538.734C546.781 538.704 546.751 538.673 546.751 538.643C546.629 538.248 546.538 537.883 546.447 537.549C546.447 537.519 546.416 537.458 546.416 537.428C546.386 537.306 546.356 537.154 546.325 537.033C546.325 537.003 546.325 536.942 546.295 536.911C546.265 536.76 546.234 536.608 546.234 536.456C546.234 536.425 546.234 536.395 546.234 536.365C546.234 536.243 546.204 536.152 546.204 536.03C546.204 536 546.204 535.939 546.204 535.909C546.204 535.818 546.204 535.696 546.204 535.605C546.204 535.575 546.204 535.544 546.204 535.544C546.204 535.423 546.234 535.332 546.265 535.241C546.265 535.21 546.265 535.18 546.295 535.18C546.325 535.119 546.325 535.028 546.356 534.967C546.356 534.937 546.386 534.907 546.386 534.907C546.416 534.815 546.477 534.755 546.538 534.694C546.599 534.603 546.69 534.542 546.781 534.451C546.811 534.421 546.842 534.421 546.842 534.39C546.902 534.329 546.963 534.299 547.024 534.238C547.054 534.238 547.054 534.208 547.085 534.208C547.176 534.147 547.267 534.117 547.358 534.056C547.358 534.056 547.389 534.056 547.389 534.026C547.48 533.995 547.571 533.965 547.632 533.934C547.662 533.934 547.692 533.904 547.723 533.904C547.814 533.874 547.905 533.874 547.966 533.843C547.996 533.843 548.026 533.843 548.026 533.843C548.148 533.843 548.239 533.813 548.361 533.813C548.391 533.813 548.391 533.813 548.421 533.813C548.513 533.813 548.604 533.813 548.725 533.813C548.756 533.813 548.786 533.813 548.816 533.813C548.938 533.813 549.059 533.843 549.181 533.843C549.181 533.843 549.181 533.843 549.211 533.843C549.363 533.874 549.515 533.904 549.667 533.934C549.697 533.934 549.697 533.934 549.728 533.934C549.88 533.965 550.001 533.995 550.153 534.026H550.183C551.186 534.269 552.371 534.664 553.738 535.119C554.102 535.241 554.467 535.362 554.862 535.484C554.892 535.484 554.892 535.484 554.922 535.514C555.044 535.544 555.165 535.605 555.287 535.636C555.408 535.666 555.5 535.696 555.621 535.727C555.712 535.757 555.803 535.787 555.895 535.818C556.107 535.879 556.32 535.939 556.502 536H556.532C556.775 536.061 557.019 536.152 557.292 536.213H557.322C557.565 536.273 557.778 536.334 558.021 536.395C558.082 536.395 558.112 536.425 558.173 536.425C558.386 536.486 558.598 536.517 558.841 536.577C558.902 536.577 558.932 536.608 558.993 536.608C559.267 536.668 559.54 536.729 559.813 536.79C559.844 536.76 559.874 536.699 559.935 536.668C560.056 536.699 560.148 536.729 560.269 536.729C561.545 535.393 562.213 533.691 562.578 532.173C563.094 529.925 562.912 528.041 562.912 528.041C562.912 528.041 557.991 524.396 552.31 521.055C552.492 521.267 552.644 521.45 552.796 521.662C552.492 521.48 552.158 521.298 551.854 521.085C551.793 521.055 551.733 520.994 551.642 520.964C551.52 520.903 551.399 520.812 551.277 520.751C551.155 520.66 551.004 520.599 550.882 520.508C550.761 520.417 550.609 520.356 550.487 520.265C550.426 520.235 550.335 520.174 550.274 520.143C549.971 519.961 549.667 519.779 549.333 519.627C549.211 519.566 549.12 519.505 548.999 519.445C548.847 519.354 548.695 519.293 548.543 519.202C548.421 519.141 548.33 519.08 548.209 519.019C548.057 518.928 547.905 518.868 547.753 518.776C547.632 518.716 547.48 518.655 547.358 518.564C547.146 518.442 546.933 518.351 546.72 518.26C546.568 518.169 546.416 518.108 546.234 518.017C546.113 517.956 545.991 517.895 545.87 517.835C545.718 517.774 545.566 517.683 545.414 517.622C545.292 517.561 545.201 517.531 545.08 517.47C544.897 517.379 544.746 517.318 544.563 517.227C544.472 517.197 544.411 517.166 544.32 517.106C544.077 516.984 543.834 516.893 543.561 516.802C543.5 516.772 543.439 516.741 543.379 516.741C543.196 516.65 542.984 516.589 542.801 516.529C542.71 516.498 542.649 516.468 542.558 516.437C542.376 516.377 542.194 516.316 542.042 516.255C541.981 516.225 541.89 516.194 541.829 516.194C541.586 516.103 541.343 516.042 541.131 515.982C538.366 515.162 536.027 514.888 533.961 514.888C530.042 514.888 527.187 515.982 524.514 516.772C524.514 516.772 524.483 516.772 524.453 516.802C520.048 514.736 508.626 509.511 496.444 504.925C495.137 500.307 492.434 497.209 488.88 497.209C479.432 497.209 432.831 484.754 388.995 465.192C390.332 465.678 391.699 466.255 393.066 466.923L357.584 449.487C357.432 449.396 357.31 449.335 357.158 449.244C372.864 422.907 381.856 375.003 380.793 355.531C380.823 351.096 380.55 347.269 380.003 344.261C378.97 338.793 377.573 334.267 375.932 330.47C375.264 328.891 374.535 327.432 373.806 326.096C373.259 324.942 372.56 323.787 371.74 322.633C365.117 312.487 357.584 308.842 357.128 300.276C357.28 299.698 357.401 299.091 357.432 298.483C357.462 298.058 357.492 297.663 357.523 297.238C357.735 296.539 357.887 295.84 357.948 295.081C358.252 291.709 358.951 288.277 359.892 284.905C365.391 266.557 378.514 249.425 386.99 239.279C387.111 239.522 387.233 239.765 387.354 240.038C387.354 240.038 387.354 240.038 387.354 240.069C387.506 240.403 387.658 240.737 387.81 241.101C387.81 241.101 387.81 241.132 387.841 241.132C387.992 241.466 388.144 241.83 388.296 242.195C388.296 242.195 388.296 242.225 388.327 242.225C388.478 242.59 388.63 242.954 388.782 243.349C388.782 243.38 388.813 243.41 388.813 243.44C388.965 243.805 389.086 244.2 389.238 244.564C389.238 244.595 389.268 244.625 389.268 244.655C389.42 245.05 389.542 245.445 389.694 245.871C389.694 245.901 389.694 245.931 389.724 245.931C389.876 246.357 390.028 246.782 390.149 247.237C390.18 247.298 390.18 247.329 390.21 247.389C390.362 247.815 390.483 248.24 390.635 248.665C390.666 248.726 390.666 248.787 390.696 248.847C390.818 249.273 390.97 249.728 391.091 250.184C391.121 250.275 391.152 250.366 391.152 250.427C391.273 250.852 391.395 251.308 391.547 251.764C391.577 251.885 391.607 252.007 391.638 252.128C391.759 252.553 391.881 252.979 392.002 253.434C392.033 253.586 392.094 253.738 392.124 253.89C392.124 253.92 392.124 253.951 392.154 253.981C392.276 254.376 392.367 254.771 392.488 255.166C392.549 255.378 392.61 255.622 392.671 255.865C392.762 256.229 392.853 256.594 392.944 256.988C393.005 257.201 393.066 257.444 393.126 257.687C393.218 258.082 393.309 258.477 393.43 258.902C393.734 260.178 394.038 261.545 394.342 262.942C397.258 276.308 401.997 288.094 405.855 295.658C406.25 296.448 406.645 297.207 407.04 297.906C407.435 298.605 407.799 299.243 408.164 299.85C408.346 300.154 408.528 300.427 408.68 300.701C409.014 301.248 409.349 301.734 409.652 302.159C409.804 302.372 409.956 302.584 410.078 302.766C410.776 303.708 411.354 304.255 411.748 304.407C411.931 304.468 412.113 304.528 412.326 304.559H412.356C412.569 304.589 412.781 304.619 412.994 304.619C413.298 304.711 413.602 304.741 413.905 304.741C414.361 304.741 414.877 304.65 415.394 304.498C415.941 304.346 416.487 304.103 417.095 303.799C417.308 303.708 417.49 303.587 417.703 303.465C419.343 302.523 421.135 301.096 423.019 299.334C423.505 298.909 423.961 298.423 424.477 297.967C424.72 297.724 424.963 297.481 425.206 297.238C426.33 296.114 427.454 294.899 428.609 293.623C428.973 293.198 429.368 292.772 429.733 292.347C430.249 291.77 430.735 291.162 431.251 290.585C432.527 289.097 433.803 287.517 435.049 285.968C435.535 285.33 436.051 284.723 436.537 284.085C437.023 283.447 437.509 282.809 437.995 282.201C439.211 280.622 440.365 279.072 441.489 277.554C441.945 276.946 442.37 276.339 442.795 275.761C447.079 269.899 450.39 265.008 451.575 263.398C452.486 262.153 454.187 259.692 456.071 256.806C455.463 261.606 455.463 261.606 455.463 261.606L485.173 267.195C485.173 267.195 490.702 251.581 494.013 243.471C495.107 240.798 496.687 240.099 496.869 239.613C496.93 239.491 497.902 236.818 497.416 236.454C497.446 236.363 497.446 236.271 497.477 236.18C502.489 234.722 502.945 232.262 502.945 228.616C505.466 226.581 506.681 224.06 506.226 221.873C505.8 219.959 504.008 218.653 502.064 218.653C502.033 218.653 501.973 218.653 501.942 218.653C503.674 213.064 505.162 208.264 506.135 205.105C506.681 203.343 507.046 202.097 507.228 201.52L508.109 201.703C508.139 201.703 508.2 201.703 508.231 201.703C508.413 201.703 508.595 201.642 508.777 201.52C509.355 201.156 509.719 200.518 509.75 199.819C509.81 198.969 509.75 197.936 509.233 197.845L508.626 197.754C508.686 197.419 508.717 196.842 508.686 195.901C508.96 186.241 502.945 177.401 493.77 174.12L500.454 139.855L494.894 138.974C494.894 138.974 489.426 163.458 487.452 172.814C487.026 172.784 486.601 172.784 486.176 172.784C483.168 172.784 480.282 173.391 477.609 174.485C470.804 177.006 465.579 182.687 463.908 190.463C463.635 190.645 463.422 190.949 463.362 191.283C463.21 191.982 463.696 192.681 464.394 192.832L464.789 192.924C464.729 193.41 464.607 194.169 464.455 195.141C463.908 198.817 462.875 205.682 461.721 213.671C459.2 214.187 456.405 215.524 456.101 218.653C455.676 223.179 459.686 225.7 459.686 225.7C459.686 225.7 459.807 224.819 460.263 223.787C460.081 225.153 459.898 226.46 459.747 227.644C459.686 228.009 459.655 228.404 459.595 228.768C459.26 231.138 458.957 233.507 458.653 235.816C458.379 236.028 458.136 236.302 457.863 236.575C457.742 236.697 457.62 236.818 457.498 236.97C457.468 237 457.438 237.031 457.377 237.092C457.286 237.183 457.195 237.274 457.104 237.365C457.043 237.426 456.982 237.487 456.921 237.547C456.83 237.638 456.739 237.73 456.678 237.821C456.618 237.881 456.557 237.942 456.496 238.003C456.405 238.094 456.314 238.185 456.223 238.276C456.162 238.337 456.101 238.428 456.01 238.489C455.919 238.58 455.828 238.671 455.737 238.762C455.676 238.823 455.585 238.914 455.524 238.975C455.433 239.066 455.342 239.188 455.22 239.279C455.159 239.339 455.068 239.431 455.007 239.491C454.886 239.613 454.764 239.734 454.673 239.826C454.613 239.886 454.552 239.947 454.491 240.008C454.339 240.16 454.218 240.281 454.066 240.433C454.005 240.494 453.975 240.524 453.914 240.585C453.732 240.767 453.519 240.98 453.306 241.193L453.276 241.223C453.094 241.405 452.881 241.618 452.699 241.8C452.668 241.83 452.608 241.891 452.577 241.922C452.395 242.104 452.243 242.256 452.061 242.438C452 242.499 451.939 242.559 451.878 242.62C451.727 242.772 451.575 242.924 451.392 243.106C451.332 243.167 451.241 243.258 451.18 243.319C451.028 243.471 450.876 243.623 450.724 243.775C450.633 243.866 450.542 243.957 450.451 244.018C450.299 244.169 450.147 244.321 449.995 244.473C449.904 244.564 449.843 244.625 449.752 244.716C449.6 244.868 449.448 245.02 449.266 245.202C449.175 245.293 449.114 245.354 449.023 245.445C448.841 245.628 448.628 245.84 448.446 246.022C448.385 246.083 448.355 246.114 448.294 246.174C448.051 246.417 447.808 246.66 447.534 246.903C446.744 247.663 445.955 248.453 445.134 249.242C445.074 249.303 445.013 249.364 444.952 249.425C444.74 249.607 444.557 249.82 444.345 250.002C444.253 250.093 444.193 250.154 444.102 250.245C443.919 250.427 443.707 250.64 443.524 250.822C443.464 250.883 443.372 250.974 443.312 251.035C443.099 251.247 442.886 251.46 442.674 251.673C442.613 251.733 442.552 251.794 442.492 251.855C442.279 252.067 442.066 252.28 441.854 252.493C441.762 252.584 441.702 252.645 441.611 252.736C441.368 252.948 441.155 253.191 440.912 253.404C440.881 253.434 440.851 253.465 440.821 253.495C439.97 254.346 439.089 255.196 438.239 256.047C437.661 256.594 437.084 257.171 436.507 257.717L436.477 257.748C436.203 258.021 435.93 258.295 435.626 258.568L435.596 258.598C435.322 258.872 435.049 259.145 434.775 259.388C434.745 259.419 434.745 259.419 434.715 259.449C431.859 262.244 429.064 264.947 426.573 267.377C426.543 267.408 426.512 267.408 426.512 267.438C426.33 267.62 426.148 267.772 425.996 267.955C425.905 268.046 425.814 268.137 425.723 268.198C425.631 268.289 425.54 268.38 425.449 268.471C425.297 268.623 425.145 268.744 425.024 268.896C421.804 271.995 419.222 274.516 417.733 275.974C416.123 267.985 414.209 256.837 411.84 241.8C411.08 236.818 410.26 231.442 409.44 225.64C406.523 205.226 402.999 194.898 399.324 189.4C395.617 183.476 391.759 182.93 387.871 181.927C381.005 179.163 373.228 180.348 372.955 177.219C372.834 175.548 373.259 170.05 373.927 164.005C375.628 164.552 377.33 164.886 379 164.886C379.486 164.886 380.003 164.855 380.489 164.795C390.544 163.519 385.927 156.471 390.21 155.651C390.666 155.56 391.091 155.53 391.516 155.53C393.005 155.53 394.402 155.925 395.648 155.925C397.592 155.925 399.202 155.013 400.265 150.426C401.116 146.842 402.939 146.204 404.974 146.204C406.098 146.204 407.252 146.386 408.346 146.386C410.017 146.386 411.505 145.931 412.295 143.592C414.482 137 408.012 137.455 408.012 134.235C408.012 130.985 422.138 132.048 419.708 122.328C417.46 113.336 407.769 121.994 404.883 108.324C404.853 108.233 404.853 108.142 404.822 108.051C404.609 106.866 404.306 104.345 404.275 104.132V104.102C404.063 101.763 403.85 99.6362 403.668 97.6617C402.483 85.4806 401.237 78.1598 391.82 76.1549C388.965 75.5474 386.413 75.3347 384.256 75.3347C378.15 75.3347 374.839 77.0966 374.839 77.0966C371.132 71.9629 364.176 68.0443 356.611 68.0443ZM220.911 211.059C225.984 210.785 231.513 210.36 236.525 209.813C236.464 209.965 236.434 210.087 236.373 210.238C236.312 210.299 236.282 210.33 236.282 210.33L220.911 211.059ZM356.611 65.7964C363.872 65.7964 371.132 69.1986 376.023 74.7576C377.755 74.1804 380.732 73.4514 384.742 73.4514C387.324 73.4514 390.028 73.7551 392.792 74.3323C404.366 76.7928 405.308 86.5438 406.402 97.844L406.675 100.791L407.009 104.284C407.009 104.314 407.009 104.345 407.009 104.375V104.436C407.222 106.198 407.404 107.413 407.526 108.081L407.556 108.294C408.832 114.369 411.293 114.855 414.391 115.463C417.186 116.009 421.014 116.769 422.351 122.176C424.416 130.438 417.125 132.929 413.176 134.266C412.508 134.479 411.718 134.752 411.141 135.025C411.354 135.208 411.627 135.39 411.809 135.542C413.541 136.787 416.761 139.126 414.877 144.746C413.905 147.632 411.87 149.09 408.802 149.09C408.194 149.09 407.587 149.029 406.949 148.999C406.432 148.968 405.916 148.908 405.43 148.908C404.336 148.908 403.485 148.908 402.908 151.398C402.179 154.497 400.691 158.628 396.073 158.628C395.314 158.628 394.554 158.537 393.855 158.415C393.187 158.324 392.549 158.233 391.942 158.233C391.607 158.233 391.334 158.264 391.061 158.324C390.939 158.355 390.909 158.385 390.909 158.385C390.787 158.537 390.605 159.266 390.483 159.752C389.876 162.273 388.873 166.526 381.188 167.498C380.61 167.559 380.003 167.62 379.426 167.62C378.423 167.62 377.39 167.529 376.327 167.316C375.78 172.541 375.598 175.913 375.628 177.219C376.357 177.583 378.393 177.887 379.942 178.13C382.585 178.525 385.836 179.011 388.995 180.256L389.724 180.439C393.491 181.38 397.774 182.444 401.693 188.671C406.159 195.354 409.47 207.17 412.143 225.791C412.964 231.563 413.753 236.94 414.543 241.922C416.518 254.528 418.219 264.37 419.616 271.904L423.93 267.742L424.052 267.62L424.356 267.317L424.629 267.043L424.811 266.891L425.449 266.284C428.031 263.793 430.796 261.089 433.682 258.295L434.077 257.9L434.563 257.414L434.866 257.14L435.444 256.594L437.023 254.923L437.175 254.771L437.206 254.741L439.757 252.25L440.152 251.855L440.547 251.49L440.669 251.369L440.79 251.247L441.155 250.883L441.428 250.609L441.55 250.488L441.945 250.093L442.248 249.789L442.461 249.577L443.038 248.999L443.221 248.817L443.737 248.301L443.859 248.179L444.041 247.997L446.41 245.658L446.441 245.628L446.866 245.202L447.17 244.898L447.322 244.747L447.595 244.473L447.899 244.169L448.081 243.987L448.628 243.471L448.871 243.228L449.175 242.954L449.357 242.772L449.539 242.59L449.813 242.316L450.056 242.073L450.268 241.861L450.481 241.648L450.754 241.375L450.906 241.223L451.453 240.676L451.575 240.555L452.121 240.008L452.79 239.34L452.942 239.188L453.367 238.762L453.549 238.58L453.762 238.367L453.914 238.216L454.126 238.003L454.43 237.699L454.643 237.487L454.795 237.335L454.916 237.213L455.099 237L455.22 236.879L455.372 236.727L457.164 238.124L455.524 236.545L455.797 236.271L455.98 236.089L456.253 235.816L456.374 235.694L456.587 235.451L456.739 235.299C456.83 235.208 456.921 235.087 457.043 234.996C457.316 232.96 457.59 230.895 457.863 228.799C457.863 228.768 457.863 228.768 457.863 228.738L458.015 227.614C458.045 227.462 458.045 227.341 458.076 227.189C456.587 225.943 453.944 223.057 454.339 218.683C454.643 215.524 456.709 213.246 460.202 212.091C461.265 204.71 462.207 198.452 462.724 195.02L462.784 194.625L462.815 194.442C461.873 193.622 461.387 192.346 461.66 191.04C461.782 190.463 462.025 189.947 462.389 189.491C464.303 181.532 469.741 175.366 477.336 172.541C480.1 171.386 483.077 170.749 486.145 170.688C488.333 160.39 493.163 138.853 493.193 138.64C493.436 137.577 494.348 136.878 495.411 136.878C495.532 136.878 495.654 136.878 495.775 136.909L501.335 137.79C501.942 137.881 502.489 138.215 502.854 138.731C503.218 139.248 503.34 139.855 503.218 140.463L496.899 172.875C505.952 176.915 511.755 185.998 511.481 196.022C511.481 196.144 511.481 196.295 511.481 196.417C512.149 197.025 512.666 198.118 512.514 200.093C512.423 201.52 511.663 202.827 510.479 203.556C510.114 203.799 509.719 203.95 509.355 204.011L508.777 205.864C507.957 208.568 506.742 212.517 505.284 217.104C507.107 217.924 508.474 219.534 508.899 221.478C509.507 224.242 508.291 227.28 505.648 229.74C505.527 232.9 504.707 235.998 500.211 237.851C500.089 238.58 499.877 239.431 499.421 240.524C499.178 241.132 498.753 241.527 498.358 241.891C497.841 242.347 497.142 242.985 496.565 244.412C493.315 252.371 487.816 267.894 487.755 268.046C487.421 268.957 486.571 269.564 485.629 269.564C485.477 269.564 485.356 269.565 485.204 269.534L455.494 263.945C455.22 263.884 454.947 263.793 454.704 263.641C454.369 264.097 454.096 264.522 453.853 264.856C453.428 265.403 452.759 266.375 451.878 267.651C450.268 269.929 447.868 273.392 445.074 277.219L443.767 279.012C442.643 280.531 441.459 282.11 440.243 283.69C439.757 284.328 439.271 284.966 438.755 285.604C438.269 286.241 437.752 286.879 437.266 287.517C435.99 289.097 434.715 290.676 433.439 292.195C432.922 292.803 432.406 293.41 431.889 293.988C431.494 294.413 431.13 294.838 430.765 295.263C429.55 296.6 428.396 297.845 427.302 298.969L426.543 299.729C426.026 300.215 425.54 300.701 425.054 301.156C422.958 303.101 421.014 304.589 419.313 305.591C419.07 305.743 418.857 305.865 418.614 305.986C417.885 306.351 417.186 306.655 416.518 306.867C415.758 307.08 415.06 307.201 414.361 307.201C413.936 307.201 413.51 307.171 413.115 307.08C412.872 307.05 412.629 307.019 412.417 306.989C412.052 306.928 411.718 306.837 411.445 306.715C410.594 306.412 409.804 305.683 408.771 304.316C408.619 304.103 408.468 303.89 408.285 303.647C407.951 303.192 407.617 302.675 407.252 302.098C407.07 301.794 406.888 301.521 406.706 301.187C406.341 300.579 405.946 299.881 405.551 299.182C405.156 298.453 404.761 297.694 404.336 296.873C402.027 292.317 396.225 279.984 392.64 263.611C392.337 262.213 392.033 260.877 391.729 259.601L391.425 258.416L391.273 257.748L391.091 256.988L391 256.624L390.909 256.229L390.848 255.925L390.575 254.892C390.575 254.892 390.544 254.741 390.544 254.71L390.483 254.467L390.423 254.224L390.058 252.948L389.967 252.645L389.572 251.308L389.511 251.065C389.39 250.609 389.238 250.184 389.116 249.759L391.213 248.908L389.056 249.577C388.934 249.151 388.782 248.726 388.661 248.331L388.6 248.179C388.448 247.754 388.327 247.329 388.175 246.903C388.023 246.448 387.871 246.053 387.719 245.658C387.537 245.202 387.415 244.838 387.263 244.473C387.172 244.23 387.081 243.987 386.99 243.775C374.444 259.236 366.484 272.997 362.687 285.755C361.715 289.127 361.077 292.438 360.834 295.476C360.773 296.235 360.621 297.025 360.378 297.845C360.348 298.149 360.348 298.483 360.318 298.787C360.287 299.425 360.196 300.063 360.044 300.67C360.409 305.075 363.082 308.052 366.727 312.092C369.067 314.705 371.71 317.651 374.261 321.539C375.173 322.815 375.902 324.061 376.479 325.245C377.208 326.582 377.968 328.131 378.636 329.711C380.489 334.024 381.856 338.702 382.858 343.988C383.436 347.086 383.709 351.005 383.679 355.683C384.712 375.063 376.206 421.236 360.925 448.454L394.645 465.04C394.797 465.1 394.919 465.192 395.04 465.283C437.965 483.873 481.285 495.113 489.457 495.113C493.619 495.113 497.082 498.181 498.874 503.375C510.084 507.628 520.473 512.367 525.212 514.554C525.394 514.493 525.577 514.432 525.759 514.402C528.189 513.673 530.954 512.823 534.599 512.823C537.09 512.823 539.642 513.217 542.376 514.007C542.619 514.068 542.893 514.159 543.166 514.25C543.166 514.25 543.287 514.311 543.318 514.311L543.986 514.554L544.199 514.645L544.837 514.888C544.837 514.888 545.019 514.979 545.049 514.979C545.323 515.07 545.566 515.192 545.839 515.313L545.991 515.374L546.659 515.678L547.024 515.83L547.48 516.043L547.844 516.225L548.361 516.468L548.999 516.802L549.394 517.015L549.758 517.197L550.214 517.44L550.7 517.683L551.034 517.865L551.976 518.412L552.097 518.473L552.371 518.625L552.462 518.837L552.614 518.928L552.826 519.05C553.191 519.05 553.555 519.171 553.92 519.354C559.631 522.725 564.522 526.31 564.704 526.462C565.221 526.857 565.555 527.434 565.616 528.072C565.646 528.315 565.798 530.411 565.221 532.932C564.704 535.21 563.732 537.094 562.365 538.552C561.94 538.977 561.393 539.25 560.785 539.25C560.603 539.281 560.451 539.311 560.269 539.311C560.117 539.311 559.965 539.311 559.813 539.281C559.51 539.22 559.236 539.159 558.963 539.099L558.811 539.068L558.112 538.916L557.96 538.886L557.231 538.704L556.381 538.461L555.682 538.248L555.469 538.187L555.044 538.066L554.649 537.944L553.464 537.58L552.826 537.367C551.763 537.033 550.852 536.729 550.062 536.547L549.667 536.456C549.515 536.425 549.394 536.395 549.302 536.395L549.059 536.365H548.847H548.816V536.395C548.847 536.547 548.847 536.668 548.877 536.76L548.968 537.154L548.999 537.306C549.059 537.549 549.15 537.883 549.242 538.218L549.424 538.825C550.062 540.769 551.004 543.017 552.036 545.447C552.371 546.267 552.705 547.057 553.039 547.847C553.434 548.09 553.768 548.455 553.95 548.941C555.135 551.857 555.803 553.862 556.107 555.502C556.229 556.14 556.624 558.054 555.53 564.737C555.53 564.767 555.53 564.767 555.53 564.797C553.616 576.614 547.54 599.518 542.741 607.173C541.86 608.419 540.948 609.299 539.915 609.816C539.824 609.846 539.733 609.907 539.672 609.937C539.217 610.12 538.761 610.241 538.366 610.302C538.123 610.363 537.88 610.423 537.667 610.454C537.607 610.454 537.516 610.454 537.455 610.484C537.364 610.484 537.242 610.484 537.121 610.515C537.09 610.515 537.06 610.515 537.029 610.515C536.969 610.515 536.817 610.515 536.756 610.515C536.665 610.515 536.574 610.515 536.483 610.484C536.422 610.484 536.27 610.454 536.209 610.454C536.088 610.423 535.997 610.423 535.905 610.393C535.875 610.393 535.723 610.332 535.662 610.332C535.632 610.332 535.389 610.241 535.328 610.241L535.116 610.15C534.994 610.089 534.903 610.059 534.812 609.998C534.781 609.998 534.751 609.968 534.721 609.968C534.538 609.877 534.387 609.786 534.235 609.694C534.052 609.573 533.9 609.451 533.749 609.36C533.718 609.33 533.627 609.269 533.627 609.239C533.566 609.208 533.475 609.087 533.354 608.996C533.323 608.965 533.232 608.874 533.232 608.874C533.141 608.783 533.05 608.692 532.959 608.601C532.928 608.57 532.837 608.449 532.807 608.449C532.746 608.388 532.655 608.267 532.594 608.176C532.594 608.145 532.503 608.054 532.473 608.024C532.412 607.933 532.321 607.781 532.23 607.659C531.956 607.234 531.804 606.869 531.622 606.505C531.622 606.474 531.561 606.353 531.561 606.323C531.531 606.262 531.47 606.11 531.44 605.958C531.44 605.928 531.379 605.776 531.379 605.745C531.349 605.654 531.318 605.502 531.258 605.351L531.227 605.168L531.136 604.804L531.075 604.53C531.045 604.439 531.045 604.287 531.015 604.166L530.984 603.923L530.954 603.528V603.285C530.954 603.133 530.954 603.012 530.954 602.86V602.647C530.954 602.495 530.954 602.343 530.984 602.161C530.984 602.161 530.984 602.009 530.984 601.979C531.015 601.766 531.014 601.553 531.045 601.341C531.349 599.275 530.832 593.868 530.285 588.127C529.526 580.259 528.675 571.359 529.313 565.557C529.465 564.129 527.278 558.357 525.546 553.71C522.964 546.814 520.048 539.038 519.137 532.962C513.972 531.687 508.322 530.411 502.337 529.074C502.125 529.135 501.912 529.165 501.699 529.165C501.517 529.165 501.335 529.135 501.152 529.105L496.018 527.829C493.072 533.327 487.543 539.979 477.275 543.685C468.07 546.997 460.141 549.184 453.154 551.128C439.94 554.773 430.401 557.385 423.687 564.858C420.923 567.957 418.796 572.847 416.305 578.528C411.718 589.099 405.977 602.252 392.276 614.859C391.79 615.284 391.304 615.739 390.818 616.165L390.483 616.438L390.301 616.59C389.967 616.894 389.633 617.167 389.268 617.471L388.691 617.957C388.327 618.261 387.992 618.534 387.628 618.838L387.476 618.959L387.081 619.263C386.534 619.688 385.987 620.114 385.441 620.539L385.198 620.721C384.712 621.086 384.195 621.45 383.709 621.815L383.193 622.179C382.707 622.513 382.312 622.817 381.856 623.091L381.248 623.516C380.793 623.82 380.307 624.154 379.821 624.458L379.638 624.579L379.365 624.761C378.697 625.187 378.028 625.612 377.36 626.037C376.874 626.341 376.357 626.645 375.871 626.948L375.537 627.131L375.355 627.222L374.17 627.89L373.958 628.012L373.654 628.194C373.168 628.467 372.682 628.741 372.165 629.014L371.953 629.136C371.406 629.439 370.829 629.743 370.251 630.047L369.887 630.229L369.705 630.32C369.279 630.533 368.854 630.746 368.429 630.989L367.851 631.262C367.244 631.566 366.636 631.87 366.029 632.143C335.62 646.693 313.626 653.164 294.67 653.164C286.103 653.164 277.901 651.797 269.577 649.002C262.56 646.633 257.82 644.78 254.023 643.261C245.031 639.707 240.11 637.763 218.237 634.269C203.382 631.9 193.084 628.164 186.158 622.574C179.839 633.388 170.482 649.397 167.353 654.865C168.629 659.361 168.872 668.929 168.903 673.061C168.963 680.138 168.629 686.669 168.052 690.102C167.961 690.588 167.87 690.983 167.809 691.347C167.748 691.59 167.687 691.742 167.657 691.894C167.505 692.411 167.353 692.714 167.201 693.018C167.171 693.049 167.141 693.109 167.11 693.17C167.019 693.322 166.928 693.474 166.806 693.565C166.776 693.595 166.685 693.686 166.655 693.717C166.381 693.99 166.077 694.203 165.774 694.324C164.801 694.719 163.404 694.932 161.338 694.932C158.331 694.932 154.898 694.507 154.746 694.507C153.531 694.355 152.65 693.261 152.771 692.046C152.771 692.016 152.771 691.985 152.771 691.985C152.771 691.955 152.771 691.925 152.771 691.894C152.771 691.864 152.802 691.742 152.802 691.712V691.56L152.832 691.347L152.893 690.558L152.923 690.193L152.954 689.92L152.984 689.312V689.069V688.705C153.227 682.022 152.164 679.683 151.769 679.409C149.065 679.44 138.463 685.697 131.993 691.165L131.385 691.682L131.233 691.803L130.808 692.168L129.137 690.649L130.686 692.32C130.534 692.471 130.352 692.623 130.2 692.775L130.079 692.897L129.775 693.2L129.653 693.322L129.41 693.595L129.289 693.717C129.198 693.838 129.107 693.93 129.016 694.051C128.226 695.053 125.795 698.122 106.14 698.122C96.9662 698.122 87.4577 697.423 84.4502 696.512C84.2376 696.451 84.0249 696.36 83.8427 696.299C83.8123 696.299 83.7211 696.238 83.6908 696.238C83.5085 696.177 83.387 696.117 83.2655 696.056C83.2351 696.056 83.1136 695.965 83.0832 695.965C82.9313 695.874 82.8098 695.813 82.7186 695.752C82.6579 695.722 82.5667 695.661 82.506 695.6C82.4149 695.539 82.3237 695.479 82.2326 695.388C82.2022 695.357 82.0807 695.236 82.0503 695.205C81.9592 695.145 81.8984 695.053 81.8073 694.962C81.7769 694.932 81.6554 694.78 81.625 694.75C81.5642 694.659 81.4731 694.567 81.4124 694.446C81.3212 694.294 81.2301 694.142 81.139 693.99C81.139 693.96 81.0479 693.838 81.0479 693.808C80.3795 692.441 80.3491 690.861 80.9871 689.069C81.0478 688.917 81.1086 688.735 81.1693 688.583C81.1693 688.583 81.2301 688.462 81.2301 688.431L81.3516 688.128C81.3516 688.097 81.4124 687.976 81.4427 687.945L81.5946 687.641L81.6858 687.459L81.8073 687.247C81.8073 687.247 81.8984 687.095 81.8984 687.064L82.0199 686.852L82.1111 686.7L82.263 686.457L82.3541 686.305L82.4756 686.123C82.4756 686.123 82.5363 686.062 82.5363 686.001C82.5667 685.971 82.5667 685.94 82.5971 685.94L82.749 685.728C83.4781 684.665 84.6325 684.027 85.9388 683.935H86.1514L100.49 683.115C112.125 673.03 137.157 651.766 145.116 648.546C148.093 641.256 160.761 615.223 166.533 605.107L166.563 605.077C166.715 604.834 166.867 604.561 166.989 604.318C166.655 604.257 166.32 604.196 165.986 604.166C165.227 604.075 164.528 603.619 164.194 602.92C163.86 602.222 163.89 601.401 164.285 600.733C181.206 572.786 300.745 355.835 301.9 344.687L301.93 344.018L304.208 343.927L301.93 343.866L301.96 343.137V342.773L301.991 342.165V342.013V341.801L302.021 341.406V341.072L302.052 340.646L302.082 339.887L302.112 339.401L302.143 338.945V338.733L302.173 338.004L302.203 337.7V337.487L302.264 336.394C302.568 331.685 302.993 325.731 303.571 318.623L305.849 318.562L303.601 318.38L303.662 317.773V317.621L303.722 316.831L303.753 316.649C304.026 313.246 304.3 310.27 304.482 308.143C304.451 307.657 304.482 307.171 304.512 306.715C304.998 302.28 305.636 296.478 306.274 290.312C300.836 298.969 297.009 302.827 293.698 303.222C293.546 303.252 293.242 303.283 292.968 303.283C291.966 303.283 290.538 302.979 289.323 301.491C288.989 301.126 288.715 300.731 288.442 300.276C276.777 288.975 244.484 250.852 234.672 236.059L234.186 235.299L234.095 235.148L233.761 234.601L233.639 234.388L233.396 233.963L235.219 232.596L233.275 233.781L232.849 233.051C232.424 232.292 232.09 231.563 231.847 230.925C231.452 230.378 230.753 229.801 229.842 229.011C228.566 227.948 226.834 226.49 224.799 224.181C222.703 222.055 220.971 219.929 219.695 217.985C219.635 217.893 219.544 217.772 219.483 217.62C218.45 215.98 217.842 214.613 217.508 213.58C215.139 213.671 212.951 213.701 211.038 213.701C204.233 213.701 202.896 213.185 202.106 212.669C201.742 212.426 201.468 212.091 201.286 211.697C197.185 202.189 174.766 127.249 174.279 123.118C174.128 121.963 174.917 120.87 176.072 120.627C192.78 117.073 222.794 117.042 224.07 117.042C225.042 117.042 225.893 117.65 226.227 118.561C229.113 126.975 254.388 200.943 255.026 205.348C255.421 208.051 252.474 209.327 249.041 210.178C249.102 210.421 249.163 210.633 249.193 210.876C250.469 215.433 249.922 220.02 249.436 224.03C249.314 224.941 249.223 225.852 249.132 226.703C248.98 229.315 249.314 230.804 250.287 232.049C250.378 232.14 250.56 232.292 250.742 232.414C250.773 232.444 250.864 232.505 250.894 232.505L251.046 232.596C251.623 233.021 252.231 233.446 252.838 233.932C253.75 234.631 254.661 235.36 255.603 236.12C256.241 236.636 256.848 237.152 257.486 237.669C258.428 238.459 259.4 239.309 260.372 240.16C261.01 240.737 261.679 241.314 262.316 241.922C263.957 243.44 265.597 245.05 267.207 246.66C267.845 247.329 268.514 247.997 269.152 248.696C271.126 250.822 273.07 252.979 274.863 255.166L275.713 256.199L275.835 256.351L276.291 256.897L276.564 257.231L276.807 257.535L277.08 257.869L277.323 258.143L275.713 259.722L277.445 258.264L277.84 258.75L278.022 258.963L278.235 259.206L278.63 259.662L279.025 260.148L279.42 260.603L279.541 260.755L279.814 261.059L280.027 261.332L280.179 261.515L280.574 261.97L280.756 262.183L280.908 262.365L281.06 262.547L281.303 262.851L281.668 263.276L282.002 263.702L282.336 264.097L282.67 264.522L283.004 264.917L283.247 265.221L283.369 265.342L283.703 265.737L283.824 265.889L283.976 266.071L284.311 266.466L284.462 266.648L284.614 266.831L284.857 267.134L285.222 267.56L285.374 267.742L285.526 267.924L285.799 268.258L285.921 268.41L286.103 268.653L286.224 268.775L286.376 268.957L286.467 269.078L286.71 269.352L286.832 269.504L287.196 269.929L287.409 270.202L287.774 270.628C288.655 271.66 289.444 272.572 290.143 273.392C292.422 263.762 295.581 253.465 297.981 246.114C298.406 244.807 298.831 243.501 299.257 242.256L301.444 242.833L299.287 242.104C299.591 241.223 299.895 240.342 300.199 239.461C300.199 239.461 300.29 239.248 300.29 239.218L300.32 238.945L300.502 238.398L301.079 236.788L301.171 236.514L301.414 235.816L301.474 235.634L301.535 235.482L301.991 234.175L302.052 233.993L302.112 233.811L302.295 233.355L302.446 232.93L302.507 232.778L302.659 232.383L302.841 231.867L303.145 231.077L303.267 230.743L303.327 230.591L303.388 230.439L303.51 230.135L303.722 229.589L303.874 229.163L304.026 228.738L304.148 228.404L304.3 228.039L304.391 227.766L304.482 227.523L304.603 227.189L304.907 226.399L304.998 226.156L305.181 225.7L305.241 225.548L305.332 225.336L305.575 224.698L305.667 224.485L305.94 223.817L306.031 223.604L306.244 223.057L306.335 222.845L306.578 222.237L306.699 222.268C306.699 222.207 306.699 222.146 306.699 222.116L306.639 222.085L306.669 221.751C306.912 218.379 307.429 215.646 308.249 213.61C308.461 213.094 308.765 212.517 309.13 211.94V211.909C310.77 207.535 312.957 203.252 314.902 199.485C315.6 198.118 316.269 196.842 316.846 195.658C317.393 194.564 317.818 193.349 318.304 192.043C320.157 186.939 322.466 180.621 332.157 178.13C332.46 177.857 332.825 177.644 333.25 177.583L336.501 176.915C336.653 176.885 336.805 176.854 336.956 176.854C337.382 176.854 337.777 176.976 338.141 177.188C338.354 177.158 338.567 177.158 338.779 177.128C347.68 176.581 352.753 176.186 355.184 176.004L356.49 160.177C356.034 160.177 355.579 160.147 355.123 160.117C350.657 160.086 346.526 158.172 343.154 154.588C339.205 152.887 337.351 150.001 335.954 147.875C335.316 146.903 334.8 146.082 334.253 145.596C333.615 145.05 332.947 144.564 332.309 144.078C329.909 142.285 327.175 140.25 327.053 136.301C326.992 134.661 327.63 133.446 328.177 132.383C329.18 130.378 330.243 128.312 326.02 121.447C321.129 113.488 324.349 107.838 327.175 102.856C328.511 100.487 329.787 98.2389 330.243 95.7784C330.516 94.2595 330.729 92.7407 330.911 91.2826C331.762 84.8427 332.673 78.1902 339.934 72.1148C344.916 67.9835 350.688 65.7964 356.611 65.7964Z" fill="#262961"/>
</g>
<defs>
<clipPath id="clip0_0_1458">
<rect width="665" height="698" fill="white" transform="matrix(-1 0 0 1 665 0)"/>
</clipPath>
</defs>
</svg>
