<svg width="665" height="750" viewBox="0 0 665 750" fill="none" xmlns="http://www.w3.org/2000/svg">
<g clip-path="url(#clip0_2002_113)">
<path d="M327.998 172.291C334.833 183.409 329.274 184.564 329.395 188.27C329.517 191.976 332.798 193.373 335.775 195.894C338.752 198.446 339.451 205.159 349.627 205.736C356.979 206.162 364.817 212.571 372.381 215.67C375.297 216.854 378.183 217.553 381.008 217.219C391.064 215.943 386.446 208.896 390.73 208.075C395.013 207.255 398.841 211.295 400.785 202.851C402.79 194.224 410.628 202.608 412.815 196.016C415.002 189.424 408.531 189.88 408.531 186.66C408.531 183.409 422.657 184.473 420.227 174.752C417.979 165.76 408.288 174.418 405.402 160.748C405.159 159.655 404.795 156.556 404.795 156.526C404.582 154.187 404.37 152.06 404.187 150.086C403.003 137.905 401.757 130.584 392.34 128.579C381.464 126.27 375.328 129.49 375.328 129.49C368.371 120.347 353.759 115.578 341.425 125.906C333.314 132.68 334.013 139.91 332.524 148.233C331.005 156.556 321.649 161.963 327.998 172.291Z" fill="#FFFDC6"/>
<path d="M327.998 172.291C334.833 183.409 329.274 184.564 329.395 188.27C329.517 191.976 332.798 193.373 335.775 195.894C338.752 198.446 339.451 205.159 349.627 205.736C356.979 206.162 364.817 212.571 372.381 215.67C375.297 216.854 378.183 217.553 381.008 217.219C391.064 215.943 386.446 208.896 390.73 208.075C395.013 207.255 398.841 211.295 400.785 202.851C402.79 194.224 410.628 202.608 412.815 196.016C415.002 189.424 408.531 189.88 408.531 186.66C408.531 183.409 422.657 184.473 420.227 174.752C417.979 165.76 408.288 174.418 405.402 160.748C405.159 159.655 404.977 158.44 404.856 157.042C404.856 156.89 404.825 156.556 404.795 156.526C404.582 154.187 404.37 152.06 404.187 150.086C403.003 137.905 401.757 130.584 392.34 128.579C381.464 126.27 375.328 129.49 375.328 129.49C368.371 120.347 353.759 115.578 341.425 125.906C333.314 132.68 334.013 139.91 332.524 148.233C331.005 156.556 321.649 161.963 327.998 172.291Z" stroke="#262961" stroke-width="2.25714" stroke-miterlimit="10"/>
<path d="M309.984 344.133C308.435 367.736 357.131 367.129 358.012 350.756C359.41 324.783 381.708 298.325 391.125 287.389C400.542 276.423 402.547 257.772 397.292 243.434C392.036 229.096 373.84 234.412 373.445 229.613C373.323 227.912 373.748 222.383 374.417 216.308C374.842 212.419 375.358 208.045 375.875 203.64C376.634 197.14 377.394 190.639 377.789 185.809C377.88 184.685 376.513 184.078 375.753 184.898L360.534 200.694C360.351 200.876 360.23 201.15 360.2 201.423L357.709 229.157C357.648 229.734 357.192 230.19 356.615 230.22C354.64 230.372 349.476 230.767 339.269 231.405C322.257 232.468 322.469 242.006 319.219 248.629C315.968 255.251 309.923 265.397 309.467 273.598C308.647 289.03 312.353 296.958 313.174 298.538C313.265 298.75 313.326 298.963 313.295 299.176C313.113 302.092 311.412 322.293 309.984 344.133Z" fill="#FFB28B"/>
<path d="M387.296 233.987C394.465 236.782 399.296 235.81 408.105 279.644C416.915 323.477 421.381 339.182 420.591 347.505C419.801 355.829 414.728 357.53 412.267 356.619C409.807 355.707 399.812 337.694 394.86 315.154C389.909 292.614 384.987 285.202 380.036 281.497C375.084 277.791 387.296 233.987 387.296 233.987Z" fill="#FFB28B"/>
<path d="M458.381 288.909C450.696 296.989 418.282 328.247 416.884 329.644C415.487 331.042 404.368 354.31 413.482 356.862C422.595 359.414 448.296 320.744 452.063 315.61C454.888 311.722 465.186 296.169 465.946 292.919C466.705 289.668 463.576 283.441 458.381 288.909Z" fill="#FFB28B"/>
<path d="M309.193 273.629C303.877 286.357 286.227 336.114 289.933 349.297C293.639 362.481 307.522 336.327 316.301 319.68C325.081 303.033 309.193 273.629 309.193 273.629Z" fill="#FFB28B"/>
<path d="M292.696 352.852C284.616 346.503 242.025 296.533 234.856 283.805C227.686 271.078 253.599 284.96 273.041 308.563C292.484 332.165 295.947 335.416 295.947 335.416L292.696 352.852Z" fill="#FFB28B"/>
<path d="M273.042 308.562C282.307 319.802 287.927 326.424 291.299 330.282C295.461 310.263 305.425 282.651 309.192 273.629C309.192 273.629 325.111 303.003 316.301 319.68C309.04 333.441 298.681 353.095 293.092 352.852C293.092 352.852 291.542 353.034 290.327 350.756C278.662 339.577 241.509 295.652 234.826 283.805C227.687 271.077 253.6 284.959 273.042 308.562Z" stroke="#262961" stroke-width="1.50459" stroke-miterlimit="10"/>
<path d="M366.152 259.413C364.754 259.534 336.867 268.101 335.591 270.166C334.315 272.232 335.014 276.181 335.014 276.181L360.593 272.262L366.152 259.413Z" fill="#262961"/>
<path d="M306.884 360.811C309.072 371.018 339.025 369.013 352.331 357.713C354.184 356.133 355.733 354.341 356.827 352.397C357.131 351.85 357.404 351.303 357.647 350.756C358.103 349.663 358.437 348.539 358.528 347.354C359.561 335.598 365.302 323.447 370.831 314.182C376.391 304.826 381.737 298.417 381.737 298.417C381.737 298.417 375.388 282.104 373.322 269.863C372.684 266.126 372.441 262.754 372.897 260.324C373.535 256.983 381.069 238.483 386.294 233.653C386.294 233.653 384.259 232.985 383.378 232.924C377.849 237.177 370.041 258.957 370.041 258.957C370.041 258.957 344.432 266.673 337.172 273.295C337.324 264.82 332.251 248.447 332.251 247.232C332.251 245.986 337.02 231.132 337.02 231.132L333.769 231.8C333.769 231.8 331.582 243.435 329.881 246.685C328.18 249.935 312.596 260.932 310.378 266.46C308.191 271.989 308.586 283.228 309.801 289.213C311.016 295.197 312.505 298.113 312.201 305.069C311.897 312.026 308.495 343.496 306.824 358.836C306.733 359.535 306.763 360.173 306.884 360.811Z" fill="white"/>
<path d="M377.848 170.743C385.747 163.999 394.04 175.695 378.213 182.347C363.419 188.574 377.848 170.743 377.848 170.743Z" fill="#FFB28B"/>
<path d="M409.928 278.003C413.239 301.15 416.125 317.827 418.221 328.338C424.631 322.141 451.485 296.168 458.381 288.908C463.576 283.471 466.705 289.668 465.946 292.918C465.186 296.168 454.888 311.721 452.063 315.61C448.296 320.743 422.595 359.413 413.482 356.861C413.026 356.861 412.601 356.77 412.267 356.649C409.806 355.738 399.812 337.724 394.86 315.184C389.908 292.675 384.987 285.233 380.035 281.527C375.083 277.821 387.265 234.017 387.265 234.017C394.465 236.812 403.67 233.987 409.928 278.003Z" fill="#FFB28B"/>
<path d="M311.926 298.933C311.926 298.933 308.281 291.005 309.192 273.629C309.618 265.428 315.693 255.282 318.944 248.659C322.194 242.037 321.982 232.499 338.994 231.436C349.505 230.768 354.639 230.373 356.522 230.221C357.008 230.19 357.403 229.795 357.434 229.309L359.044 209.777C359.044 209.777 374.628 209.929 374.172 213.817C373.504 219.893 373.018 227.882 373.17 229.583C373.413 232.59 387.296 233.987 387.296 233.987C395.285 236.296 403.214 234.504 409.928 278.702C413.452 301.819 416.125 317.797 418.221 328.308C424.631 322.111 451.485 296.139 458.381 288.878C463.576 283.441 466.705 289.638 465.946 292.888C465.186 296.139 454.888 311.692 452.063 315.58C448.296 320.713 422.595 359.383 413.482 356.832C413.026 356.832 412.601 356.74 412.267 356.619C409.806 355.708 399.812 337.694 394.86 315.154C392.399 303.915 389.939 296.412 387.478 291.278C376.967 303.824 358.983 327.457 357.707 350.726C356.826 367.129 304.544 381.892 307.066 358.381C309.982 331.315 311.926 298.933 311.926 298.933Z" stroke="#262961" stroke-width="2.25714" stroke-miterlimit="10"/>
<path d="M85.2122 746.203C90.5285 747.813 123.611 749.21 127.317 744.532C131.023 739.854 147.458 728.858 152.075 729.07C156.693 729.313 155.083 744.107 155.083 744.107C155.083 744.107 162.708 745.048 164.925 744.107C166.141 743.59 166.748 734.295 166.657 724.969C166.596 717.132 166.019 709.234 164.925 706.561C164.925 706.561 151.832 702.217 146.759 702.217C141.656 702.217 101.404 737.15 101.404 737.15L86.3059 738.031C85.5768 738.062 84.9085 738.457 84.5136 739.064C84.0579 739.732 83.5111 740.674 83.1769 741.677C82.5389 743.469 82.5997 745.413 85.2122 746.203Z" fill="white" stroke="#262961" stroke-width="2.25714" stroke-miterlimit="10"/>
<path d="M85.2122 746.203C90.5285 747.813 123.611 749.21 127.317 744.532C131.023 739.854 147.458 728.858 152.075 729.07C156.693 729.313 155.083 744.107 155.083 744.107C155.083 744.107 162.708 745.048 164.925 744.107C166.141 743.59 166.748 734.295 166.657 724.969C166.596 717.132 166.019 709.234 164.925 706.561C164.925 706.561 151.832 702.217 146.759 702.217C141.656 702.217 101.404 737.15 101.404 737.15L86.0932 738.031C85.516 738.062 84.9692 738.366 84.6351 738.852C84.1794 739.52 83.5414 740.553 83.1769 741.646C82.5389 743.469 82.5997 745.413 85.2122 746.203Z" stroke="#262961" stroke-width="1.50459" stroke-miterlimit="10"/>
<path d="M172.672 651.336C164.105 663.608 146.759 702.247 146.759 702.247C146.759 702.247 147.184 705.376 153.199 707.533C160.976 710.328 164.105 708.262 164.348 707.563C164.591 706.865 189.046 665.127 189.046 665.127L172.672 651.336Z" fill="#FFB28B" stroke="#262961" stroke-width="2.25714" stroke-miterlimit="10"/>
<path d="M168.541 658.048C170.758 663.546 170.637 662.605 175.163 672.69C178.231 679.525 179.325 681.773 179.325 681.773L187.163 668.012L171.427 653.431L168.541 658.048Z" fill="#262961"/>
<path d="M155.357 739.58C155.296 742.131 155.083 744.106 155.083 744.106C155.083 744.106 162.708 745.048 164.926 744.106C165.746 743.772 166.263 739.458 166.506 733.869C162.435 737.271 158.546 738.82 155.357 739.58Z" fill="#262961"/>
<path d="M83.1158 744.654C83.45 745.322 84.088 745.869 85.212 746.203C90.5282 747.813 123.61 749.21 127.317 744.532C128.015 743.651 129.2 742.527 130.658 741.282C128.957 741.464 127.195 741.737 125.342 742.041C115.226 743.773 90.7712 745.17 83.1158 744.654Z" fill="#262961"/>
<path d="M166.231 653.736C173.856 654.586 175.588 659.872 179.78 664.064C183.942 668.256 187.071 678.888 218.664 683.9C250.258 688.943 247.129 690.887 270.399 698.724C293.669 706.561 319.005 704.04 365.15 681.956C369.19 680.012 372.866 678.007 376.238 675.941C381.949 672.418 386.749 668.742 390.85 665.006C411.933 645.625 413.877 624.361 422.079 615.157C432.833 603.128 449.511 603.128 476.578 593.347C503.645 583.565 501.215 549.452 489.428 549.452C477.611 549.452 407.71 529.98 357.737 501.487C374.415 473.54 382.678 417.282 380.248 400.514C379.671 396.474 378.668 392.434 377.544 388.424C376.815 385.812 376.025 383.169 375.266 380.556C372.349 370.593 355.732 360.66 357.737 350.726H357.677L352.603 351.334L340.239 352.853L307.096 356.893C307.096 356.893 307.036 357.592 306.914 358.837C306.306 365.55 304.362 387.877 304.21 396.626C303.998 406.954 179.415 631.956 166.231 653.736Z" fill="#3AFFDC"/>
<path d="M533.326 653.493C532.901 656.409 534.086 658.991 535.787 659.841C536.182 660.054 536.607 660.145 537.032 660.145C537.488 660.145 537.974 660.054 538.43 659.781C539.098 659.447 539.736 658.839 540.374 657.958C544.779 650.941 550.794 629.13 552.86 616.402C553.497 612.453 553.771 609.385 553.467 607.927C553.133 606.226 552.343 604.069 551.432 601.791C548.971 595.655 545.478 588.517 546.905 586.876C548.242 585.327 550.551 586.208 554.196 587.393C555.897 587.939 557.933 588.577 560.272 589.063C561.548 587.727 562.216 586.026 562.581 584.507C563.097 582.259 562.915 580.376 562.915 580.376C562.915 580.376 557.994 576.73 552.313 573.389C548.698 571.262 544.809 569.227 541.68 568.316C533.66 565.977 529.164 567.891 525.063 569.075C525.063 569.075 524.972 569.106 524.851 569.197C524.152 569.713 521.843 571.961 521.205 580.345C520.415 590.309 532.111 612.909 531.595 617.618C530.531 627.642 534.086 648.237 533.326 653.493Z" fill="white" stroke="#262961" stroke-width="2.25714" stroke-miterlimit="10"/>
<path d="M526.734 573.267C541.954 584.507 552.252 608.292 552.89 616.433C553.528 612.484 553.801 609.416 553.497 607.958C552.282 601.73 544.961 589.185 546.905 586.907C548.85 584.628 552.92 587.575 560.272 589.063C561.548 587.727 562.216 586.026 562.581 584.507C563.097 582.259 562.915 580.376 562.915 580.376C562.915 580.376 549.7 570.655 541.68 568.316C533.66 565.977 529.164 567.891 525.063 569.075C525.063 569.075 525.367 569.258 525.245 569.349L526.734 573.267Z" fill="#40439D"/>
<path d="M533.326 653.493C532.567 658.748 537.002 662.879 540.404 657.988C544.809 650.971 550.824 629.161 552.89 616.433C553.528 612.484 553.801 609.416 553.497 607.958C552.282 601.73 544.961 589.185 546.905 586.907C548.85 584.628 552.92 587.575 560.272 589.063C561.548 587.727 562.216 586.026 562.581 584.507C563.097 582.259 562.915 580.376 562.915 580.376C562.915 580.376 549.7 570.655 541.68 568.316C533.66 565.977 529.164 567.891 525.063 569.075C525.063 569.075 524.972 569.106 524.851 569.197C524.152 569.713 521.843 571.961 521.205 580.345C520.415 590.309 532.111 612.909 531.595 617.618C530.531 627.642 534.086 648.237 533.326 653.493Z" stroke="#262961" stroke-width="2.25714" stroke-miterlimit="10"/>
<path d="M488.639 554.251C507.048 560.448 526.915 570.016 526.915 570.016C526.915 570.016 531.472 579.19 522.602 583.291C504.192 578.674 484.902 574.968 484.902 574.968L488.639 554.251Z" fill="#FFB28B" stroke="#262961" stroke-width="2.25714" stroke-miterlimit="10"/>
<path d="M500.396 558.959C501.975 562.057 501.094 568.923 501.732 571.535C502.37 574.147 501.732 578.704 501.732 578.704L494.502 576.912C494.502 576.912 495.231 556.893 495.444 557.045C495.657 557.197 500.396 558.959 500.396 558.959Z" fill="#262961"/>
<path d="M554.652 587.332C556.353 587.878 558.388 588.516 560.727 589.002C562.003 587.666 562.671 585.965 563.036 584.446C563.552 582.198 563.37 580.315 563.37 580.315C563.37 580.315 558.449 576.669 552.768 573.328C556.626 577.733 555.654 585.661 554.652 587.332Z" fill="#262961"/>
<path d="M536.243 659.78C536.516 660.054 536.941 660.145 537.488 660.115C537.914 660.084 538.369 659.963 538.886 659.75C539.554 659.416 540.192 658.808 540.83 657.927C545.235 650.91 551.25 629.1 553.315 616.372C553.953 612.423 554.227 609.355 553.923 607.897C553.589 606.196 552.799 604.039 551.888 601.76C549.852 613.759 545.933 629.768 544.475 634.476C542.106 642.192 534.238 657.684 536.243 659.78Z" fill="#262961"/>
<path d="M328.209 495.685C305.851 532.259 319.187 555.072 363.691 569.623C399.629 581.378 383.681 650.03 376.238 675.972C381.949 672.448 386.749 668.773 390.85 665.036C411.933 645.656 413.877 624.392 422.079 615.188C432.833 603.159 449.511 603.159 476.578 593.377C503.645 583.596 501.215 549.483 489.428 549.483C477.611 549.483 407.71 530.011 357.737 501.518C374.415 473.571 383.498 421.292 381.068 404.524C380.491 400.484 377.635 386.723 376.511 382.714C376.481 382.714 376.42 416.827 328.209 495.685Z" fill="#40439D"/>
<path d="M165.655 654.039C166.08 654.221 166.566 654.403 167.082 654.525C167.66 654.616 167.842 654.707 168.237 654.798C168.905 654.98 169.573 655.193 170.181 655.497C171.427 656.074 172.551 656.924 173.553 657.896C175.558 659.871 177.077 662.423 179.234 664.61C181.087 666.645 182.727 669.257 184.915 671.353C187.041 673.48 189.502 675.272 192.114 676.73C202.625 682.623 214.655 684.294 226.077 686.299C231.819 687.362 237.561 688.486 243.12 690.126C248.679 691.736 253.995 694.106 259.524 696.202C265.023 698.267 270.552 700.333 276.354 701.821C282.126 703.28 288.11 704.039 294.065 704.1C306.003 704.191 317.76 701.7 329.03 698.176C340.301 694.622 351.207 690.096 361.869 685.145C372.623 680.375 383.074 674.27 391.883 666.189C400.724 658.139 407.65 648.054 412.632 637.301C415.184 631.955 417.28 626.426 419.953 621.414C422.444 616.341 426.667 612.635 431.588 609.931C436.54 607.258 442.099 605.557 447.689 603.978C453.309 602.398 458.99 600.909 464.64 599.208C467.465 598.358 470.29 597.477 473.085 596.535L477.278 595.077C478.705 594.5 480.133 593.953 481.5 593.224C486.999 590.429 491.768 586.086 494.927 580.739C498.087 575.423 499.758 569.226 499.606 562.999C499.515 559.901 498.968 556.741 497.57 553.765C496.872 552.306 495.93 550.848 494.533 549.694C493.196 548.509 491.252 547.78 489.399 547.811C486.786 547.72 483.839 547.173 481.014 546.626C478.189 546.049 475.333 545.411 472.508 544.712C466.858 543.315 461.207 541.766 455.618 540.125C444.378 536.875 433.259 533.23 422.262 529.25C400.298 521.231 378.578 512.3 358.103 500.97L358.346 501.85C365.302 490.216 369.92 477.427 373.565 464.456C377.18 451.486 379.884 438.241 381.524 424.845C382.314 418.132 382.861 411.388 382.709 404.584C382.679 397.718 381.069 390.914 378.669 384.535C376.299 378.095 372.472 372.172 367.854 367.19C365.606 364.668 363.206 362.299 361.292 359.717C359.348 357.135 358.285 354.037 358.437 350.786V350.756C358.437 350.422 358.163 350.118 357.799 350.118H357.708L307.067 356.284C306.763 356.315 306.55 356.558 306.52 356.862L304.788 377.518L304.059 387.876L303.786 393.071C303.603 394.802 303.877 396.625 303.3 398.022C300.9 404.401 297.71 410.598 294.672 416.765C291.604 422.931 288.445 429.098 285.255 435.234C272.496 459.748 259.403 484.11 246.218 508.412C233.034 532.713 219.728 556.954 206.362 581.134L165.655 654.039ZM166.809 653.461C167.113 653.249 167.325 653.158 167.477 652.915L168.115 651.821L169.422 649.573L172.004 645.077L177.138 636.056L187.284 617.981L207.425 581.742C220.792 557.531 234.097 533.291 247.282 508.989C260.466 484.688 273.559 460.325 286.318 435.811C289.508 429.675 292.667 423.508 295.735 417.342C298.773 411.115 301.963 405.009 304.424 398.417C304.728 397.597 304.91 396.473 304.849 395.683L304.94 393.101L305.214 387.937L305.943 377.609L307.674 356.953L307.127 357.53L357.768 351.363L357.07 350.695C356.705 354.158 357.738 357.834 359.713 360.719C361.596 363.666 363.996 366.066 366.123 368.617C370.436 373.66 373.93 379.249 376.178 385.416C378.395 391.613 379.884 398.083 380.005 404.644C380.218 411.267 379.732 417.919 379.003 424.541C377.514 437.816 374.932 450.969 371.469 463.879C367.854 476.729 363.753 489.578 357.161 501.182C356.979 501.486 357.1 501.881 357.404 502.063C377.727 513.88 399.265 523.54 421.259 531.802C432.257 535.933 443.375 539.761 454.646 543.163C460.266 544.894 465.946 546.474 471.657 547.902C474.513 548.631 477.399 549.299 480.285 549.876C483.201 550.453 486.057 551.031 489.307 551.182C491.495 551.122 493.317 552.884 494.411 555.253C495.505 557.592 496.021 560.356 496.082 563.09C496.203 568.588 494.684 574.178 491.829 578.917C489.004 583.686 484.751 587.513 479.799 590.004C477.369 591.28 474.635 592.131 471.87 593.103C469.106 594.044 466.341 594.925 463.546 595.776C457.987 597.477 452.337 598.996 446.656 600.606C441.006 602.246 435.264 603.977 429.887 606.924C427.183 608.352 424.692 610.266 422.444 612.362C420.166 614.427 418.313 617.191 416.946 619.804C414.121 625.181 412.116 630.648 409.625 635.904C404.794 646.444 398.233 656.074 389.727 663.881C381.251 671.718 371.226 677.672 360.594 682.441C350.022 687.392 339.238 691.919 328.149 695.473C317.092 698.966 305.608 701.457 294.065 701.396C270.612 702.034 250.289 686.238 226.472 684.112C220.67 683.079 214.868 682.411 209.217 681.044C203.597 679.677 197.977 678.006 192.965 675.181C190.444 673.814 188.074 672.174 186.039 670.169C183.943 668.194 182.424 665.825 180.297 663.516C178.262 661.542 176.712 659.02 174.525 656.864C173.431 655.8 172.156 654.859 170.758 654.251C170.06 653.917 169.33 653.674 168.571 653.492C168.237 653.431 167.72 653.249 167.568 653.279C167.325 653.31 167.113 653.401 166.809 653.461Z" fill="#262961"/>
<path d="M302.601 397.294L303.968 413.485C304.332 418.861 304.727 424.268 304.363 429.615C304.332 429.827 304.514 430.04 304.727 430.07C304.94 430.101 305.152 429.918 305.183 429.706C305.79 424.268 305.669 418.831 305.547 413.424L304.909 397.233V397.203C304.879 396.565 304.362 396.079 303.725 396.109C303.087 396.139 302.601 396.656 302.631 397.294C302.601 397.263 302.601 397.294 302.601 397.294Z" fill="#262961"/>
<path d="M335.774 173.659C335.774 193.647 342.882 209.868 355.277 209.868C367.671 209.868 379.124 193.556 379.124 173.568C379.124 153.58 371.924 141.368 359.53 141.368C347.135 141.368 335.774 149.115 335.774 173.659Z" fill="#FFB28B"/>
<path d="M355.976 141.429C355.976 141.429 355.216 135.323 356.583 131.162C357.951 127 388.056 123.598 387.904 157.073C383.59 168.161 376.846 171.229 376.846 171.229C376.846 171.229 357.343 163.088 355.976 141.429Z" fill="#FFFDC6"/>
<path d="M382.193 298.416C380.066 292.554 375.388 278.428 373.231 265.852C373.231 265.852 372.867 261.539 376.299 252.304C378.183 247.231 380.492 242.918 381.707 240.792C382.193 239.941 382.74 239.09 383.347 238.301L386.75 233.683" stroke="#262961" stroke-width="2.25714" stroke-miterlimit="10" stroke-linecap="round" stroke-linejoin="round"/>
<path d="M327.419 306.315C324.777 305.313 322.225 304.158 319.734 302.852C318.488 302.214 317.273 301.516 316.119 300.756C314.995 300.027 313.719 299.177 312.959 298.387L312.899 298.296C312.443 297.84 311.744 297.84 311.288 298.296C310.833 298.751 310.833 299.45 311.288 299.906C311.319 299.936 311.349 299.966 311.349 299.966C312.686 301.09 313.871 301.698 315.177 302.396C316.453 303.065 317.759 303.672 319.096 304.219C321.739 305.343 324.442 306.285 327.176 307.075C327.389 307.135 327.632 307.014 327.693 306.801C327.754 306.619 327.632 306.406 327.419 306.315Z" fill="#262961"/>
<path d="M358.558 140.275L357.13 145.834C357.13 145.834 338.265 157.407 334.954 164.272C331.643 171.138 338.417 144.284 338.569 143.981C338.721 143.677 350.599 132.65 350.599 132.65L358.558 140.275Z" fill="#FFFDC6"/>
<path d="M376.421 196.29C374.78 201.029 365.424 210.871 355.277 209.868C346.65 209.018 342.792 202.639 340.027 197.474C333.557 184.473 336.595 163.179 336.595 163.179C339.42 157.407 348.928 150.785 356.219 145.834" stroke="#262961" stroke-width="1.50459" stroke-miterlimit="10" stroke-linecap="round" stroke-linejoin="round"/>
<path d="M375.6 217.279C373.413 216.641 363.206 213.452 359.014 211.447C359.165 209.746 359.014 209.776 359.014 209.776C359.014 209.776 369.038 207.194 371.529 203.245C374.02 199.296 376.846 196.775 376.846 196.775L375.6 217.279Z" fill="#262961"/>
<path d="M374.781 210.81L377.758 182.347C377.758 182.347 386.78 179.947 387.114 173.416C387.418 166.854 379.277 167.735 377.272 171.046" stroke="#262961" stroke-width="2.25714" stroke-miterlimit="10" stroke-linecap="round" stroke-linejoin="round"/>
<path d="M378.242 280.069C381.948 283.077 384.986 287.086 386.141 291.552V291.582C386.262 292.068 386.748 292.372 387.234 292.22C387.72 292.099 388.024 291.612 387.872 291.126C387.872 291.096 387.872 291.066 387.842 291.066C386.11 286.175 382.586 282.348 378.546 279.583C378.394 279.492 378.212 279.522 378.121 279.674C378.09 279.766 378.121 279.948 378.242 280.069Z" fill="#262961"/>
<path d="M311.29 264.699C312.687 261.995 328.393 249.662 329.577 247.354C330.732 245.015 334.438 232.165 334.438 232.165" stroke="#262961" stroke-width="1.50459" stroke-miterlimit="10" stroke-linecap="round" stroke-linejoin="round"/>
<path d="M366.365 235.021L363.479 236.236C362.537 236.661 361.535 236.995 360.654 237.572L361.444 237.876L359.591 234.443C359.53 234.352 359.408 234.292 359.317 234.352C359.226 234.413 359.196 234.504 359.226 234.595L360.38 238.332C360.472 238.605 360.745 238.757 361.018 238.666L361.17 238.635C362.173 238.332 363.084 237.815 364.026 237.36L366.821 235.962C367.064 235.841 367.185 235.537 367.064 235.264C366.912 235.021 366.608 234.929 366.365 235.021Z" fill="#262961"/>
<path d="M381.373 172.596C377.788 171.107 374.356 169.285 371.227 167.006C368.128 164.728 365.364 161.964 363.176 158.805C360.928 155.706 359.197 152.213 357.982 148.537C356.858 144.831 356.189 141.004 355.825 137.116C355.825 136.903 355.643 136.751 355.43 136.781C355.248 136.781 355.096 136.964 355.096 137.176C355.248 141.125 355.764 145.074 356.918 148.902C358.073 152.699 359.804 156.344 362.083 159.625C364.422 162.875 367.308 165.7 370.528 168.039C373.748 170.378 377.363 172.14 381.069 173.507C381.312 173.598 381.586 173.477 381.677 173.234C381.738 172.96 381.616 172.687 381.373 172.596Z" fill="#262961"/>
<path d="M463.263 276.464C463.263 276.464 463.06 277.493 456.078 290.907L464.872 295.405C464.872 295.405 469.11 285.523 470.846 285.919C475.367 286.988 475.412 283.876 477.293 284.844C479.198 285.781 484.473 285.606 490.708 281.376C496.942 277.145 494.267 272.512 492.103 266.319C489.939 260.125 487.168 260.07 484.321 262.403C478.096 264.17 475.521 260.803 475.012 258.899C478.405 248.601 473.809 243.815 471.117 244.991C468.426 246.166 469.237 258.012 465.705 263.469C462.196 268.896 463.263 276.464 463.263 276.464Z" fill="#FFB28B" stroke="#2B2D60" stroke-width="2" stroke-miterlimit="10" stroke-linecap="round" stroke-linejoin="round"/>
<path d="M480.04 266.807C477.552 270.005 472.584 277.535 476.825 284.695" stroke="#2B2D60" stroke-width="2" stroke-miterlimit="10" stroke-linecap="round" stroke-linejoin="round"/>
<path d="M484.05 269.626C480.275 272.985 476.32 273.211 476.32 273.211L484.05 269.626Z" fill="#FCB28D"/>
<path d="M484.05 269.626C480.275 272.985 476.32 273.211 476.32 273.211" stroke="#2B2D60" stroke-width="2" stroke-miterlimit="10" stroke-linecap="round" stroke-linejoin="round"/>
<path d="M486.082 275.866C483.234 278.01 477.459 280.175 475.339 280.538L486.082 275.866Z" fill="#FCB28D"/>
<path d="M486.082 275.866C483.234 278.01 477.459 280.175 475.339 280.538" stroke="#2B2D60" stroke-width="2" stroke-miterlimit="10" stroke-linecap="round" stroke-linejoin="round"/>
<path d="M224.041 171.198C224.041 171.198 252.111 253.276 252.749 257.59C253.387 261.903 206.3 264.698 203.384 262.693C199.526 253.732 177.015 178.61 176.529 174.752C193.207 171.198 224.041 171.198 224.041 171.198Z" fill="white" stroke="#262961" stroke-width="1.50459" stroke-miterlimit="10"/>
<path d="M221.641 176.667C224.77 186.144 245.701 250.148 245.944 251.303C246.187 252.457 208.335 256.376 206.846 256.193C205.328 256.042 181.754 180.008 181.632 178.854C181.511 177.73 221.641 176.667 221.641 176.667Z" fill="#3AFFDC" stroke="#262961" stroke-width="1.50459" stroke-miterlimit="10" stroke-linecap="round" stroke-linejoin="round"/>
<path d="M248.769 285.719C245.944 282.53 246.764 278.702 247.584 271.199C248.405 263.666 244.121 253.733 241.326 249.115C238.562 244.498 239.473 243.222 238.076 242.28C236.678 241.369 234.035 243.101 236.344 251.667C238.653 260.233 236.283 262.36 236.283 262.36L219.332 263.18C219.332 263.18 218.968 269.255 233.61 280.95C248.253 292.615 248.769 285.719 248.769 285.719Z" fill="#FFB28B"/>
<path d="M350.599 183.623C349.839 186.63 348.472 188.483 347.591 189.243L350.599 183.623Z" fill="#FFB28B"/>
<path d="M350.599 183.623C349.839 186.63 348.472 188.483 347.591 189.243" stroke="#262961" stroke-width="1.50459" stroke-miterlimit="10" stroke-linecap="round" stroke-linejoin="round"/>
<path d="M352.057 200.238C350.598 200.238 349.414 199.055 349.414 197.596C349.414 196.136 350.598 194.953 352.057 194.953C353.517 194.953 354.7 196.136 354.7 197.596C354.7 199.055 353.517 200.238 352.057 200.238Z" fill="#F4259A"/>
<path d="M357.342 195.895C355.914 197.931 350.264 199.753 346.771 196.898" stroke="#262961" stroke-width="1.50459" stroke-miterlimit="10" stroke-linecap="round" stroke-linejoin="round"/>
<path d="M368.827 178.185C367.369 174.509 364.422 172.504 361.02 172.686C357.617 172.869 355.643 175.876 355.035 178.185" stroke="#262961" stroke-width="1.41582" stroke-miterlimit="10" stroke-linecap="round" stroke-linejoin="round"/>
<path d="M347.105 177.79C346.953 174.57 340.877 169.102 336.108 175.299" stroke="#262961" stroke-width="1.43448" stroke-miterlimit="10" stroke-linecap="round" stroke-linejoin="round"/>
<path d="M359.925 177.79C358.817 177.79 357.92 176.566 357.92 175.056C357.92 173.547 358.817 172.323 359.925 172.323C361.032 172.323 361.93 173.547 361.93 175.056C361.93 176.566 361.032 177.79 359.925 177.79Z" fill="#262961"/>
<path d="M339.632 177.79C338.525 177.79 337.627 176.566 337.627 175.056C337.627 173.547 338.525 172.323 339.632 172.323C340.74 172.323 341.637 173.547 341.637 175.056C341.637 176.566 340.74 177.79 339.632 177.79Z" fill="#262961"/>
<path d="M249.438 286.205C247.92 285.203 246.401 282.925 246.826 278.429C247.251 273.933 248.436 268.496 246.947 263.362C245.489 258.198 244.456 254.036 241.479 249.419C238.502 244.832 239.383 242.797 238.047 242.281C236.71 241.764 235.069 242.159 235.495 247.536C235.92 252.912 238.928 255.829 236.193 262.572C230.422 262.603 219.303 263.149 219.303 263.149C220.275 268.01 222.857 270.44 226.503 274.602C230.148 278.763 232.73 279.917 233.885 281.801" stroke="#262961" stroke-width="1.50459" stroke-miterlimit="10"/>
<path d="M231.212 256.436C232.822 257.53 232.61 258.988 231.212 259.049C229.815 259.109 228.113 258.289 228.964 256.953C229.845 255.646 231.212 256.436 231.212 256.436Z" fill="#00C3EB" stroke="#262961" stroke-width="1.50459" stroke-miterlimit="10" stroke-linecap="round" stroke-linejoin="round"/>
<path d="M393.615 519.196C375.114 510.386 360.198 516.796 354.882 518.649C349.566 520.502 346.103 519.803 346.103 519.803C348.806 515.338 355.581 505.526 357.677 501.516" fill="#262961"/>
<path d="M383.104 283.532C383.65 284.322 386.081 291.764 386.202 292.675C386.324 293.587 387.478 290.883 387.478 290.883L383.104 283.532Z" fill="#262961"/>
<path d="M335.804 169.771C337.202 169.589 340.118 169.163 341.698 168.981C342.336 168.89 342.822 168.769 343.156 168.617C344.007 168.222 343.612 167.037 342.67 167.219C342.609 167.219 342.548 167.25 342.518 167.25L342.64 167.766L342.427 167.827L342.305 167.28C342.123 167.31 341.91 167.371 341.698 167.402L341.759 167.675L341.546 167.736L341.485 167.462C341.06 167.554 340.604 167.645 340.118 167.736C338.63 168.04 336.716 168.981 335.713 169.498C335.561 169.589 335.622 169.801 335.804 169.771Z" fill="#262961"/>
<path d="M366.852 169.709C365.181 169.618 361.687 169.466 359.834 169.375C359.075 169.345 358.498 169.254 358.072 169.071C357.04 168.677 357.435 167.127 358.528 167.218C358.589 167.218 358.65 167.218 358.71 167.249L358.619 167.947L358.862 167.978L358.953 167.279C359.196 167.31 359.439 167.34 359.683 167.37L359.622 167.735L359.865 167.765L359.956 167.431C360.442 167.492 360.989 167.553 361.596 167.613C363.389 167.856 365.697 168.798 366.913 169.345C367.125 169.436 367.064 169.74 366.852 169.709Z" fill="#262961"/>
<path d="M220.912 263.058C225.985 262.785 231.514 262.36 236.526 261.813C236.465 261.965 236.435 262.086 236.374 262.238C236.313 262.299 236.283 262.329 236.283 262.329L220.912 263.058Z" fill="#262961"/>
<path d="M397.874 141.923C397.865 142.279 397.676 142.49 397.443 142.596C397.301 142.789 397.08 142.929 396.78 142.943C387.198 143.613 377.467 142.487 368.218 139.731C360.438 137.407 349.517 133.646 344.335 127.212C344.257 127.118 344.299 126.976 344.399 126.923C343.944 126.851 343.51 126.313 343.844 125.899C358.688 107.122 373.338 88.1433 388.361 69.5112C388.32 69.509 388.282 69.5284 388.24 69.5269C385.987 69.3447 383.75 68.931 381.554 68.3759C381.207 68.2946 380.98 67.8793 381.087 67.5518C381.585 66.0795 381.911 64.3626 382.64 63.0001C382.971 62.3803 383.469 61.9845 384.203 62.2929C385.316 62.7543 386.447 64.2653 387.241 65.1246C387.924 65.8584 388.555 66.6281 389.156 67.4201C389.118 64.4993 389.381 61.596 389.808 58.7098C389.86 58.3869 390.31 58.1918 390.609 58.2898C392.232 58.8502 393.841 59.4571 395.394 60.1818C396.13 60.5215 397.091 60.8867 397.057 61.8296C397.015 62.8316 395.591 63.8251 394.998 64.4705C394.064 65.4858 393.155 66.5598 392.182 67.5644C394.358 67.1093 396.615 66.8835 398.783 66.5286C399.262 66.4444 399.697 66.8387 399.558 67.3102C399.06 69.1408 398.534 70.963 398.027 72.7908C397.933 73.1113 397.516 73.3775 397.177 73.2367C394.913 72.3033 392.578 71.3185 390.445 70.0852C391.348 73.5885 392.069 77.1405 392.685 80.7232C392.696 80.7573 392.707 80.7911 392.706 80.8322C394.073 88.7234 394.915 96.7467 395.724 104.628C397.002 116.988 398.027 129.521 397.874 141.923ZM396.192 141.243C396.011 137.368 395.84 133.496 395.669 129.625C387.68 135.733 375.174 137.169 364.914 136.799C366.17 137.241 367.441 137.667 368.716 138.042C377.7 140.731 386.885 141.625 396.192 141.243ZM395.397 127.855C395.452 127.81 395.523 127.789 395.572 127.763C395.377 123.649 395.161 119.539 394.873 115.418C379.72 121.668 363.224 127.85 346.41 124.984C345.908 125.574 345.406 126.164 344.907 126.744C344.807 126.868 344.678 126.912 344.547 126.925C348.462 128.324 351.893 131.006 355.621 132.862C357.734 133.915 359.884 134.877 362.072 135.747C362.094 135.743 362.106 135.736 362.129 135.733C372.97 135.598 386.676 134.72 395.397 127.855ZM394.751 113.712C394.544 110.967 394.312 108.235 394.041 105.492C394.035 105.48 394.037 105.47 394.033 105.449C388.868 108.435 381.866 109.864 376.126 110.744C370.563 111.594 364.308 112.178 358.913 110.128C355.05 114.798 351.15 119.416 347.239 124C364.158 125.431 379.431 119.739 394.751 113.712ZM393.826 103.636C393.438 100.141 392.991 96.6694 392.491 93.1932C385.882 96.2341 377.269 97.8145 369.982 96.4766C366.58 100.77 363.117 105.015 359.641 109.236C372.011 110.74 382.43 108.094 393.826 103.636ZM392.275 91.6648C391.797 88.4405 391.316 85.2251 390.838 82.0014C387.486 83.2162 383.598 83.8428 380.041 83.5627C377.031 87.5314 373.955 91.4701 370.852 95.391C374.602 95.2669 378.291 95.3189 382.01 94.6533C385.574 94.0126 388.897 92.8613 392.275 91.6648ZM396.921 71.664C397.303 70.4039 397.672 69.1502 398.055 67.8902C395.777 68.2234 393.431 68.607 391.144 68.5789C391.083 68.643 391.021 68.7069 390.953 68.7582C392.959 69.7076 394.907 70.7429 396.921 71.664ZM394.352 63.2552C394.661 62.9264 395.595 62.126 395.361 61.5547C395.242 61.2426 393.581 60.7739 393.242 60.6332C392.495 60.3311 391.721 60.0515 390.958 59.7654C390.545 62.4609 390.31 65.1577 390.145 67.8747C391.409 66.2396 392.941 64.7753 394.352 63.2552ZM390.622 80.5437C390.169 77.3781 389.728 74.2054 389.352 71.0316C386.582 74.8663 383.746 78.6711 380.872 82.4651C384.222 82.0488 387.373 81.4813 390.622 80.5437ZM388.252 68.2286C388.333 68.2424 388.401 68.2624 388.467 68.2918C387.379 67.1004 386.316 65.8957 385.139 64.7915C384.999 64.658 384.321 63.8331 384.104 63.8512C383.549 63.9026 383.452 64.8063 383.319 65.1873C383.091 65.8882 382.856 66.5771 382.621 67.2665C384.482 67.7015 386.35 68.0062 388.252 68.2286Z" fill="#262961"/>
<path d="M395.668 129.626C395.84 133.497 396.01 137.368 396.191 141.243C386.884 141.625 377.699 140.732 368.715 138.043C367.44 137.667 366.169 137.241 364.913 136.8C375.173 137.169 387.679 135.733 395.668 129.626Z" fill="#F4259A"/>
<path d="M395.572 127.763C395.522 127.789 395.452 127.81 395.397 127.855C386.676 134.72 372.97 135.598 362.128 135.732C362.106 135.736 362.094 135.743 362.071 135.746C359.884 134.876 357.733 133.915 355.621 132.861C351.893 131.005 348.461 128.324 344.546 126.924C344.677 126.911 344.806 126.867 344.906 126.743C345.405 126.163 345.907 125.574 346.409 124.984C363.223 127.849 379.721 121.667 394.872 115.417C395.16 119.539 395.377 123.649 395.572 127.763ZM386.291 131.646C387.044 131.428 386.755 130.288 385.982 130.469C383.144 131.16 380.353 131.761 377.456 132.187C377.013 132.252 377.1 132.963 377.548 132.952C380.477 132.852 383.494 132.451 386.291 131.646ZM385.764 129.739C386.469 129.609 386.189 128.584 385.492 128.686C383.76 128.964 382.044 129.33 380.331 129.686C379.782 129.79 380.006 130.573 380.546 130.497C382.287 130.261 384.045 130.042 385.764 129.739Z" fill="#3AFFDC"/>
<path d="M394.041 105.492C394.312 108.236 394.544 110.967 394.751 113.712C379.432 119.739 364.158 125.431 347.239 124C351.15 119.415 355.05 114.798 358.913 110.127C364.308 112.178 370.563 111.594 376.125 110.743C381.865 109.864 388.868 108.434 394.033 105.448C394.037 105.47 394.034 105.48 394.041 105.492Z" fill="#F4259A"/>
<path d="M385.982 130.469C386.755 130.288 387.044 131.428 386.291 131.646C383.494 132.451 380.476 132.852 377.548 132.952C377.1 132.963 377.014 132.251 377.456 132.187C380.354 131.761 383.145 131.159 385.982 130.469Z" fill="#262961"/>
<path d="M385.493 128.686C386.189 128.583 386.469 129.609 385.764 129.739C384.045 130.041 382.287 130.261 380.547 130.496C380.006 130.572 379.782 129.789 380.331 129.684C382.044 129.329 383.76 128.964 385.493 128.686Z" fill="#262961"/>
<path d="M392.491 93.193C392.991 96.6693 393.438 100.141 393.826 103.636C382.43 108.094 372.011 110.74 359.641 109.235C363.118 105.015 366.58 100.769 369.983 96.4759C377.269 97.8144 385.882 96.2339 392.491 93.193ZM373.88 107.736C374.453 107.659 374.282 106.84 373.758 106.788C371.336 106.566 368.721 106.861 366.297 107.007C365.76 107.033 365.729 107.823 366.287 107.834C368.76 107.877 371.426 108.057 373.88 107.736ZM374.2 105.464C374.775 105.346 374.684 104.398 374.078 104.444C372.285 104.603 370.553 104.809 368.748 104.759C368.193 104.739 368.188 105.546 368.744 105.598C370.538 105.757 372.436 105.815 374.2 105.464Z" fill="#3AFFDC"/>
<path d="M390.838 82.0008C391.317 85.2253 391.797 88.4404 392.275 91.6642C388.897 92.8605 385.574 94.0126 382.01 94.6527C378.291 95.3189 374.603 95.2665 370.852 95.3904C373.955 91.4695 377.03 87.53 380.041 83.562C383.598 83.8422 387.486 83.2156 390.838 82.0008ZM389.759 87.6041C390.531 87.3507 390.112 86.2634 389.334 86.5675C387.755 87.1878 386.12 87.4233 384.411 87.4421C383.825 87.4538 383.811 88.2898 384.399 88.3403C386.231 88.4796 388.053 88.187 389.759 87.6041ZM389.445 85.3295C389.874 85.0565 389.65 84.2738 389.091 84.4467C388.356 84.6811 387.658 84.9664 386.882 85.0862C386.05 85.2199 385.243 85.1563 384.41 85.075C383.886 85.0233 383.777 85.8208 384.279 85.9481C385.899 86.374 388.038 86.2261 389.445 85.3295Z" fill="#F4259A"/>
<path d="M398.054 67.8901C397.672 69.1502 397.303 70.404 396.92 71.6639C394.906 70.7428 392.958 69.7075 390.952 68.7581C391.021 68.7068 391.081 68.6427 391.143 68.5788C393.431 68.6077 395.776 68.2232 398.054 67.8901Z" fill="#F4259A"/>
<path d="M389.334 86.5669C390.111 86.2634 390.532 87.3503 389.758 87.6034C388.052 88.1864 386.23 88.4796 384.399 88.3397C383.811 88.2891 383.824 87.453 384.41 87.4414C386.119 87.4226 387.754 87.1878 389.334 86.5669Z" fill="#262961"/>
<path d="M389.091 84.4467C389.65 84.2731 389.874 85.0565 389.445 85.3295C388.038 86.2261 385.899 86.3745 384.279 85.9478C383.777 85.8206 383.885 85.0224 384.409 85.0748C385.243 85.1562 386.049 85.2196 386.882 85.086C387.658 84.9664 388.355 84.6802 389.091 84.4467Z" fill="#262961"/>
<path d="M395.361 61.5547C395.595 62.1254 394.661 62.9258 394.352 63.2552C392.941 64.7759 391.409 66.2396 390.144 67.8747C390.31 65.1577 390.544 62.4607 390.958 59.7654C391.72 60.0513 392.495 60.3311 393.242 60.6333C393.581 60.7739 395.241 61.2432 395.361 61.5547Z" fill="#F4259A"/>
<path d="M389.352 71.0316C389.729 74.2055 390.169 77.378 390.622 80.5436C387.373 81.4812 384.222 82.0481 380.872 82.4648C383.746 78.6716 386.582 74.8662 389.352 71.0316Z" fill="#3AFFDC"/>
<path d="M388.466 68.2917C388.401 68.2625 388.333 68.2424 388.252 68.2286C386.35 68.0064 384.482 67.7014 382.621 67.2659C382.856 66.577 383.09 65.8881 383.318 65.1866C383.452 64.8062 383.549 63.9025 384.104 63.8505C384.321 63.8324 384.998 64.6573 385.139 64.7908C386.315 65.8963 387.379 67.1005 388.466 68.2917Z" fill="#F4259A"/>
<path d="M373.758 106.788C374.282 106.84 374.453 107.659 373.88 107.736C371.426 108.058 368.76 107.877 366.286 107.834C365.728 107.823 365.76 107.033 366.297 107.007C368.721 106.861 371.336 106.567 373.758 106.788Z" fill="#262961"/>
<path d="M374.077 104.444C374.684 104.397 374.774 105.346 374.2 105.464C372.436 105.815 370.537 105.757 368.744 105.598C368.187 105.547 368.193 104.739 368.748 104.759C370.553 104.809 372.285 104.603 374.077 104.444Z" fill="#262961"/>
<path d="M475.148 302.361C473.971 304.719 471.078 310.283 467.749 308.57C466.593 307.973 465.676 306.995 464.903 305.925C464.901 305.954 464.905 305.981 464.902 306.014C464.573 307.49 464.328 309.313 463.636 310.658C463.575 310.782 463.438 310.848 463.306 310.851C462.497 310.888 461.943 309.94 461.452 309.417C460.627 308.532 459.948 307.851 458.614 307.923C457.685 307.97 456.304 308.893 455.441 309.257C455.143 309.384 454.799 309.176 454.877 308.827C455.529 305.883 456.331 302.94 456.635 299.935C454.533 302.047 452.396 304.124 450.32 306.261C450.132 306.457 449.725 306.376 449.677 306.089C449.527 305.19 449.378 304.291 449.225 303.39C449.123 302.773 449.174 301.595 448.838 301.082C448.4 300.406 447.299 300.613 446.378 300.575C445.574 300.544 444.767 300.507 443.958 300.474C443.569 300.458 443.436 299.963 443.766 299.754C445.537 298.638 447.157 297.369 448.673 295.936C448.448 295.911 448.223 295.886 447.999 295.851C446.311 295.595 444.085 295.237 442.917 293.84C441.935 292.665 442.27 291.153 442.514 289.763C442.93 287.41 443.642 285.089 444.84 283.013C446.58 279.999 449.311 277.532 452.777 279.578C455.975 281.465 457.832 285.339 458.633 288.823C458.659 288.942 458.635 289.043 458.58 289.121C459.202 289.201 459.817 289.457 460.358 289.729C461.635 290.376 463.905 291.462 464.667 292.75C467.822 291.491 473.151 290.733 475.922 293.075C478.518 295.273 476.342 299.965 475.148 302.361ZM472.099 305.707C473.021 304.559 473.83 303.296 474.478 301.975C475.942 298.991 477.996 293.939 473.4 292.762C470.577 292.039 467.606 292.548 464.849 293.29C464.949 294.136 464.274 295.027 463.881 295.718C463.785 295.892 463.676 296.098 463.559 296.319C464.853 296.678 465.973 297.484 466.75 298.581C467.009 298.945 466.409 299.276 466.153 298.925C465.41 297.907 464.469 297.229 463.303 296.805C462.919 297.531 462.447 298.34 461.898 298.886C462.103 298.91 462.246 299.052 462.26 299.26C462.264 299.297 462.264 299.331 462.266 299.363C462.279 299.53 462.197 299.637 462.085 299.692C462.386 299.931 462.592 300.249 462.707 300.645C462.812 300.86 462.92 301.072 463.027 301.283C463.357 301.912 463.699 302.538 464.054 303.157C464.729 304.32 465.437 305.521 466.375 306.496C466.816 306.976 467.311 307.396 467.858 307.752L470.581 307.389C471.074 307.12 471.752 306.135 472.099 305.707ZM462.885 309.437C463.614 309.324 463.965 306.635 464.208 305.833C464.278 305.6 464.5 305.543 464.678 305.606C464.344 305.124 464.035 304.631 463.748 304.152C462.938 302.816 461.459 300.905 461.362 299.303C461.277 299.354 461.188 299.398 461.097 299.435C460.1 299.796 458.866 299.134 457.973 298.583C457.703 298.861 457.431 299.133 457.157 299.409C457.165 299.439 457.173 299.468 457.173 299.503C457.242 302.449 456.464 305.361 455.802 308.225C457.185 307.497 459.131 306.337 460.305 307.085C461.014 307.539 462.008 309.574 462.885 309.437ZM461.748 297.677C462.275 296.919 462.757 296.135 463.215 295.333C463.897 294.126 464.356 293.279 463.006 292.31C462.333 291.827 461.633 291.373 460.921 290.947C459.732 290.226 459.083 289.786 457.735 290.324C456.552 290.803 456.262 291.468 455.729 292.556C455.118 293.804 455.13 294.724 455.512 295.488C455.53 295.508 455.544 295.536 455.548 295.563C455.993 296.374 456.862 297.01 457.872 297.688C457.94 297.682 458.009 297.692 458.081 297.739C459.397 298.578 460.689 299.19 461.748 297.677ZM457.555 298.237C457.543 298.206 457.527 298.181 457.523 298.154C456.329 297.639 455.347 296.888 454.829 295.936C453.095 296.082 451.363 296.153 449.63 296.03C449.613 296.085 449.586 296.14 449.533 296.189C448.176 297.504 446.726 298.676 445.176 299.736C446.253 299.755 447.343 299.766 448.388 299.891C448.705 299.929 449.063 299.871 449.328 300.094C449.777 300.473 449.686 301.503 449.776 302.038C449.952 303.082 450.128 304.131 450.304 305.175C452.635 302.777 455.01 300.408 457.555 298.237ZM457.926 289.113C457.915 289.081 457.892 289.059 457.889 289.022C457.229 286.158 455.905 283.279 453.717 281.248C452.311 279.943 450.316 278.96 448.447 279.986C446.941 280.816 445.897 282.597 445.139 284.084C444.311 285.69 443.776 287.42 443.411 289.184C442.915 291.57 442.925 293.66 445.595 294.538C448.457 295.478 451.599 295.452 454.6 295.41C454.331 294.606 454.361 293.681 454.832 292.642C454.968 292.336 455.118 291.999 455.284 291.651C454.141 290.911 453.009 290.333 451.703 289.883C451.442 289.792 451.541 289.42 451.807 289.469C453.133 289.712 454.481 290.27 455.591 291.051C456.019 290.275 456.561 289.561 457.316 289.254C457.516 289.175 457.72 289.134 457.926 289.113Z" fill="#262961"/>
<path d="M474.478 301.975C473.83 303.296 473.021 304.559 472.099 305.707C471.753 306.135 471.074 307.12 470.58 307.388L467.858 307.751C467.31 307.395 466.815 306.975 466.374 306.495C465.436 305.52 464.729 304.319 464.053 303.156C463.698 302.537 463.356 301.911 463.026 301.282C462.919 301.071 462.812 300.859 462.707 300.644C462.591 300.248 462.386 299.93 462.085 299.691C462.196 299.636 462.278 299.529 462.265 299.362C462.263 299.331 462.263 299.296 462.26 299.259C462.245 299.051 462.103 298.909 461.897 298.885C462.446 298.339 462.919 297.53 463.303 296.804C464.469 297.228 465.409 297.906 466.153 298.924C466.408 299.275 467.008 298.944 466.75 298.58C465.972 297.483 464.852 296.677 463.558 296.318C463.676 296.097 463.785 295.891 463.88 295.717C464.274 295.026 464.948 294.134 464.848 293.289C467.605 292.547 470.576 292.038 473.4 292.761C477.996 293.939 475.942 298.991 474.478 301.975ZM474.927 295.947C475.011 296.199 475.396 296.163 475.397 295.884C475.396 294.781 474.39 293.647 473.353 293.363C473.155 293.308 473.033 293.597 473.216 293.703C473.636 293.935 474.027 294.181 474.329 294.564C474.664 294.987 474.769 295.452 474.927 295.947ZM474.088 296.165C474.146 296.428 474.596 296.374 474.56 296.099C474.461 295.338 473.931 294.718 473.231 294.429C473.025 294.345 472.886 294.688 473.084 294.787C473.652 295.081 473.961 295.548 474.088 296.165Z" fill="#F4259A"/>
<path d="M475.397 295.884C475.396 296.163 475.01 296.199 474.927 295.947C474.769 295.452 474.663 294.987 474.329 294.565C474.027 294.181 473.635 293.935 473.216 293.703C473.033 293.597 473.155 293.308 473.353 293.363C474.39 293.647 475.396 294.781 475.397 295.884Z" fill="#262961"/>
<path d="M474.56 296.099C474.596 296.374 474.146 296.428 474.088 296.165C473.96 295.548 473.652 295.081 473.083 294.788C472.886 294.689 473.025 294.345 473.23 294.429C473.931 294.718 474.46 295.339 474.56 296.099Z" fill="#262961"/>
<path d="M464.208 305.833C463.965 306.635 463.614 309.324 462.885 309.437C462.009 309.574 461.015 307.539 460.305 307.085C459.131 306.337 457.185 307.497 455.802 308.225C456.464 305.361 457.242 302.449 457.173 299.503C457.173 299.468 457.166 299.438 457.158 299.409C457.431 299.133 457.703 298.861 457.973 298.583C458.867 299.134 460.1 299.796 461.097 299.434C461.188 299.397 461.278 299.354 461.362 299.303C461.459 300.905 462.938 302.816 463.748 304.151C464.035 304.631 464.344 305.123 464.679 305.606C464.5 305.543 464.278 305.6 464.208 305.833ZM458.979 304.873C458.982 305.204 459.466 305.195 459.49 304.869C459.558 303.991 459.418 303.007 459.161 302.166C459.096 301.949 458.799 302.042 458.83 302.255C458.957 303.14 458.984 303.984 458.979 304.873ZM458.069 304.488C458.284 304.462 458.48 304.321 458.388 304.083C458.365 304.02 458.316 303.982 458.266 303.958C458.266 303.923 458.26 303.88 458.239 303.823C458.24 303.683 458.238 303.548 458.237 303.412C458.237 303.178 458.234 302.942 458.234 302.708C458.234 302.199 458.241 301.695 458.24 301.186C458.238 300.965 457.911 300.97 457.9 301.188C457.867 301.798 457.846 302.404 457.814 303.013C457.793 303.42 457.638 303.999 457.852 304.362C457.897 304.433 457.983 304.498 458.069 304.488Z" fill="#F4259A"/>
<path d="M459.49 304.869C459.466 305.195 458.982 305.204 458.979 304.873C458.984 303.983 458.957 303.14 458.83 302.254C458.799 302.042 459.096 301.949 459.161 302.166C459.418 303.008 459.558 303.991 459.49 304.869Z" fill="#262961"/>
<path d="M458.388 304.083C458.48 304.321 458.284 304.462 458.069 304.488C457.983 304.498 457.897 304.433 457.852 304.363C457.638 304 457.793 303.421 457.813 303.014C457.846 302.404 457.867 301.798 457.9 301.189C457.911 300.971 458.238 300.965 458.24 301.186C458.241 301.695 458.234 302.2 458.234 302.709C458.234 302.943 458.237 303.179 458.237 303.413C458.238 303.548 458.24 303.684 458.239 303.823C458.261 303.881 458.266 303.924 458.266 303.958C458.316 303.982 458.365 304.02 458.388 304.083Z" fill="#262961"/>
<path d="M463.215 295.333C462.757 296.135 462.275 296.919 461.748 297.676C460.689 299.189 459.397 298.578 458.082 297.739C458.009 297.692 457.94 297.682 457.872 297.687C456.862 297.01 455.993 296.373 455.548 295.563C455.544 295.536 455.53 295.508 455.512 295.488C455.131 294.724 455.118 293.804 455.729 292.556C456.262 291.468 456.552 290.803 457.736 290.324C459.083 289.786 459.732 290.226 460.921 290.947C461.633 291.373 462.333 291.827 463.006 292.31C464.356 293.279 463.897 294.126 463.215 295.333ZM457.812 295.728C457.941 295.962 458.257 295.761 458.16 295.531C458.065 295.306 457.954 295.093 457.885 294.858C457.818 294.62 457.786 294.382 457.754 294.135C457.733 293.973 457.515 293.971 457.499 294.137C457.449 294.646 457.558 295.278 457.812 295.728ZM457.049 295.796C457.27 295.889 457.487 295.651 457.312 295.454C457.046 295.146 456.797 294.947 456.682 294.532C456.578 294.143 456.642 293.782 456.78 293.412C456.841 293.238 456.595 293.171 456.503 293.297C456.226 293.681 456.18 294.193 456.269 294.643C456.354 295.066 456.626 295.622 457.049 295.796Z" fill="#F4259A"/>
<path d="M457.523 298.154C457.527 298.181 457.543 298.206 457.555 298.237C455.01 300.408 452.635 302.777 450.303 305.175C450.128 304.131 449.951 303.082 449.776 302.038C449.686 301.503 449.777 300.473 449.328 300.094C449.062 299.871 448.705 299.929 448.388 299.891C447.343 299.766 446.253 299.755 445.176 299.737C446.725 298.676 448.175 297.504 449.533 296.189C449.586 296.14 449.613 296.085 449.629 296.03C451.363 296.153 453.095 296.081 454.83 295.936C455.347 296.888 456.329 297.639 457.523 298.154Z" fill="#F4259A"/>
<path d="M458.16 295.53C458.256 295.76 457.941 295.962 457.811 295.728C457.558 295.277 457.449 294.646 457.499 294.136C457.514 293.971 457.733 293.972 457.754 294.134C457.786 294.382 457.818 294.62 457.885 294.858C457.954 295.093 458.065 295.306 458.16 295.53Z" fill="#262961"/>
<path d="M457.311 295.454C457.487 295.651 457.27 295.889 457.049 295.797C456.626 295.622 456.354 295.066 456.269 294.643C456.18 294.193 456.226 293.681 456.503 293.297C456.595 293.171 456.841 293.238 456.78 293.412C456.642 293.781 456.577 294.143 456.682 294.532C456.796 294.948 457.046 295.146 457.311 295.454Z" fill="#262961"/>
<path d="M457.889 289.022C457.893 289.059 457.915 289.081 457.926 289.113C457.72 289.133 457.516 289.175 457.316 289.254C456.561 289.561 456.019 290.275 455.591 291.051C454.481 290.27 453.133 289.712 451.807 289.469C451.541 289.42 451.441 289.792 451.703 289.883C453.009 290.333 454.141 290.911 455.284 291.651C455.118 291.999 454.968 292.336 454.832 292.642C454.361 293.681 454.331 294.606 454.6 295.409C451.599 295.452 448.457 295.478 445.594 294.538C442.925 293.66 442.915 291.57 443.411 289.184C443.776 287.42 444.311 285.69 445.139 284.083C445.897 282.597 446.94 280.816 448.447 279.985C450.316 278.96 452.311 279.943 453.717 281.248C455.905 283.279 457.229 286.158 457.889 289.022ZM450.977 282.279C451.247 282.14 451.062 281.735 450.78 281.801C450.403 281.892 450.032 282.077 449.667 282.225C449.324 282.362 448.974 282.493 448.634 282.641C448.41 282.736 448.564 283.099 448.793 283.032C449.173 282.917 449.545 282.783 449.922 282.656C450.273 282.54 450.644 282.441 450.977 282.279ZM449.79 281.424C450.013 281.289 449.865 280.984 449.629 281.022C448.734 281.173 447.762 282.078 447.412 282.893C447.351 283.032 447.522 283.211 447.647 283.073C447.937 282.743 448.204 282.403 448.553 282.125C448.939 281.82 449.379 281.67 449.79 281.424Z" fill="#F4259A"/>
<path d="M450.78 281.801C451.062 281.735 451.247 282.14 450.977 282.279C450.644 282.441 450.273 282.54 449.921 282.657C449.544 282.783 449.172 282.917 448.792 283.032C448.564 283.1 448.409 282.736 448.634 282.642C448.973 282.494 449.324 282.362 449.667 282.226C450.032 282.077 450.403 281.892 450.78 281.801Z" fill="#262961"/>
<path d="M449.629 281.022C449.865 280.984 450.013 281.289 449.791 281.424C449.379 281.67 448.939 281.82 448.553 282.126C448.204 282.403 447.937 282.743 447.647 283.073C447.522 283.211 447.351 283.032 447.412 282.893C447.762 282.078 448.734 281.173 449.629 281.022Z" fill="#262961"/>
<path d="M550.616 172.517C545.716 195.358 527.195 212.16 504.662 216.191C506.347 219.934 507.29 224.858 502.857 226.975C499.599 228.548 496.632 226.045 495.931 223C495.884 223.038 495.839 223.076 495.792 223.113C485.487 233.712 492.865 243.137 491.325 255.67C490.591 261.591 487.283 266.448 481.344 267.704C479.567 268.064 478.961 265.448 480.687 264.969C494.414 261.18 485.71 243.937 486.795 234.426C487.213 230.733 488.628 227.521 490.884 224.913C488.487 225.03 486.224 223.974 485.365 221.16C483.908 216.443 487.974 213.763 492.121 213.034C474.042 202.664 471.677 177.636 475.557 158.13C479.9 136.317 493.868 115.553 518.836 120.253C544.416 125.052 555.831 148.246 550.616 172.517ZM545.966 178.127C553.496 156.108 546.646 131.497 522.728 124.272C498.651 116.999 483.738 135.059 478.885 156.612C474.133 177.78 476.442 206.452 500.919 213.727C501.207 213.694 501.484 213.639 501.773 213.605C502.036 213.478 502.33 213.429 502.614 213.464C522.367 210.406 539.376 197.414 545.966 178.127ZM502.896 223.272C504.065 221.096 502.965 218.675 501.805 216.62C501.407 216.672 501.026 216.729 500.633 216.765C499.947 216.85 499.439 216.521 499.129 216.062C497.969 215.707 496.866 215.283 495.79 214.833C492.812 215.259 487.71 215.539 487.854 219.611C487.932 221.458 489.862 222.412 491.543 222.197C493.527 221.953 494.71 220.353 495.963 218.982C497.036 217.799 498.605 219.425 497.969 220.653C497.934 220.712 497.898 220.771 497.863 220.829C497.878 222.031 498.166 223.3 499.117 224.112C500.483 225.312 502.083 224.795 502.896 223.272Z" fill="#262961"/>
<path d="M522.728 124.272C546.646 131.497 553.496 156.108 545.966 178.127C539.376 197.414 522.366 210.407 502.613 213.464C502.328 213.429 502.035 213.479 501.771 213.606C501.483 213.639 501.206 213.694 500.918 213.728C476.442 206.453 474.132 177.78 478.884 156.613C483.739 135.059 498.651 116.999 522.728 124.272ZM536.814 140.888C537.324 141.721 538.83 141.278 538.5 140.257C537.239 136.434 534.201 133.249 530.978 130.961C529.978 130.256 528.989 131.846 529.967 132.562C533.028 134.817 534.876 137.69 536.814 140.888ZM532.561 140.49C533.205 141.451 535.152 140.987 534.663 139.691C533.23 135.92 529.83 132.729 526.423 130.698C525.351 130.058 524.351 131.627 525.383 132.341C526.9 133.396 528.295 134.568 529.506 135.945C530.739 137.363 531.541 138.945 532.561 140.49ZM492.791 202.892C493.846 203.527 494.847 201.958 493.822 201.28C490.468 199.075 488.354 196.397 486.661 192.789C486.312 192.057 485.131 192.513 485.345 193.289C486.404 197.208 489.309 200.821 492.791 202.892ZM486.655 202.18C487.571 202.703 488.805 201.449 487.914 200.673C486.452 199.376 485.126 198.206 484.164 196.471C483.24 194.783 482.821 192.97 482.569 191.07C482.464 190.222 481.245 190.457 481.171 191.216C480.783 195.263 483.043 200.138 486.655 202.18Z" fill="#F4259A"/>
<path d="M538.5 140.256C538.83 141.277 537.324 141.719 536.815 140.886C534.876 137.689 533.029 134.816 529.969 132.561C528.99 131.846 529.979 130.256 530.979 130.96C534.202 133.248 537.239 136.434 538.5 140.256Z" fill="#262961"/>
<path d="M534.663 139.692C535.153 140.987 533.205 141.451 532.561 140.49C531.541 138.945 530.74 137.364 529.507 135.945C528.296 134.568 526.9 133.396 525.383 132.341C524.352 131.627 525.352 130.058 526.424 130.698C529.831 132.728 533.229 135.92 534.663 139.692Z" fill="#262961"/>
<path d="M501.804 216.62C502.964 218.675 504.065 221.096 502.895 223.272C502.082 224.795 500.484 225.312 499.115 224.112C498.165 223.301 497.875 222.033 497.861 220.83C497.896 220.771 497.932 220.712 497.967 220.654C498.603 219.425 497.034 217.799 495.961 218.982C494.708 220.353 493.525 221.952 491.54 222.197C489.86 222.413 487.93 221.457 487.851 219.612C487.708 215.54 492.811 215.26 495.787 214.833C496.865 215.285 497.968 215.708 499.126 216.062C499.437 216.521 499.945 216.851 500.63 216.765C501.025 216.729 501.407 216.671 501.804 216.62Z" fill="#F4259A"/>
<path d="M493.821 201.28C494.846 201.957 493.845 203.526 492.79 202.891C489.309 200.821 486.403 197.206 485.345 193.289C485.131 192.512 486.312 192.057 486.661 192.789C488.353 196.397 490.468 199.074 493.821 201.28Z" fill="#262961"/>
<path d="M487.914 200.673C488.805 201.448 487.571 202.703 486.655 202.18C483.043 200.138 480.783 195.263 481.17 191.216C481.246 190.457 482.464 190.222 482.569 191.07C482.821 192.97 483.24 194.782 484.164 196.471C485.126 198.206 486.453 199.375 487.914 200.673Z" fill="#262961"/>
</g>
<path d="M431.177 41.8742C428.849 65.1179 441.337 86.7835 461.555 97.5184C458.805 100.566 456.4 104.965 459.971 108.338C462.591 110.833 466.182 109.358 467.782 106.674C467.815 106.724 467.846 106.774 467.879 106.824C474.445 120.069 464.536 126.783 462.166 139.185C461.051 145.047 462.713 150.683 467.983 153.697C469.565 154.583 470.942 152.279 469.446 151.295C457.537 143.485 471.102 129.734 472.981 120.348C473.714 116.705 473.35 113.214 472.001 110.04C474.247 110.885 476.725 110.573 478.404 108.156C481.235 104.112 478.185 100.316 474.46 98.3526C494.845 94.0147 504.759 70.9129 507.036 51.1551C509.58 29.0598 502.639 5.01707 477.43 1.84774C451.609 -1.41477 433.642 17.1712 431.177 41.8742ZM433.886 48.6381C433.458 25.3708 447.513 4.03856 472.495 4.48245C497.642 4.92872 506.311 26.6873 504.332 48.6913C502.377 70.2977 491.4 96.8861 465.872 96.3186C465.608 96.1991 465.361 96.0625 465.097 95.9419C464.884 95.7398 464.62 95.603 464.339 95.5492C446.471 86.5916 434.256 69.0159 433.886 48.6381ZM461.068 104.801C460.622 102.371 462.41 100.403 464.143 98.8017C464.506 98.9735 464.851 99.144 465.215 99.2985C465.841 99.5898 466.425 99.4317 466.862 99.0897C468.074 99.1072 469.254 99.041 470.417 98.942C473.121 100.259 477.892 102.088 476.509 105.92C475.869 107.654 473.739 107.972 472.205 107.252C470.391 106.413 469.754 104.527 468.981 102.839C468.322 101.384 466.331 102.452 466.56 103.816C466.575 103.882 466.591 103.949 466.607 104.016C466.225 105.155 465.562 106.275 464.408 106.757C462.74 107.481 461.375 106.499 461.068 104.801Z" fill="#262961"/>
<path d="M433.886 48.6381C433.458 25.3708 447.513 4.03856 472.495 4.48245C497.642 4.92872 506.311 26.6873 504.332 48.6913C502.377 70.2977 491.4 96.8861 465.872 96.3186C465.608 96.1991 465.361 96.0625 465.097 95.9419C464.884 95.7398 464.62 95.603 464.339 95.5492C446.471 86.5916 434.256 69.0159 433.886 48.6381Z" fill="#F4259A"/>
<path d="M464.143 98.8019C462.41 100.403 460.621 102.371 461.069 104.801C461.376 106.499 462.74 107.481 464.41 106.758C465.563 106.276 466.227 105.158 466.609 104.017C466.593 103.951 466.577 103.883 466.562 103.817C466.333 102.452 468.324 101.385 468.983 102.84C469.756 104.528 470.393 106.413 472.207 107.253C473.741 107.973 475.871 107.655 476.511 105.922C477.894 102.089 473.122 100.261 470.419 98.9433C469.254 99.0433 468.075 99.1085 466.864 99.091C466.427 99.4329 465.843 99.591 465.217 99.2997C464.852 99.1441 464.505 98.9726 464.143 98.8019Z" fill="#F4259A"/>
<path d="M492.509 21.9406C492.839 22.962 491.332 23.4037 490.824 22.5708C488.885 19.3738 487.038 16.5002 483.977 14.246C482.998 13.5306 483.988 11.9401 484.988 12.645C488.21 14.9328 491.247 18.1184 492.509 21.9406Z" fill="#262961"/>
<path d="M488.672 21.3761C489.161 22.6713 487.213 23.1354 486.57 22.1742C485.549 20.6296 484.748 19.0481 483.515 17.6296C482.304 16.253 480.909 15.0801 479.391 14.0259C478.36 13.3115 479.36 11.7423 480.432 12.3822C483.84 14.4122 487.238 17.6041 488.672 21.3761Z" fill="#262961"/>
<defs>
<clipPath id="clip0_2002_113">
<rect width="665" height="698" fill="white" transform="matrix(-1 0 0 1 665 51.9998)"/>
</clipPath>
</defs>
</svg>
