<svg width="147" height="56" viewBox="0 0 147 56" fill="none" xmlns="http://www.w3.org/2000/svg">
<path fill-rule="evenodd" clip-rule="evenodd" d="M70.851 18.3049C70.851 28.4139 62.6551 36.6098 52.5461 36.6098C42.4371 36.6098 34.2412 28.4139 34.2412 18.3049C34.2412 8.19588 42.4371 0 52.5461 0C62.6551 0 70.851 8.19588 70.851 18.3049ZM51.6681 6.51111L41.7089 10.8671V16.219L51.6681 20.575V15.3487L47.4998 13.5431L51.6681 11.7374V6.51111ZM63.384 25.7426L53.4248 30.0986V24.8723L57.5931 23.0666L53.4248 21.261V16.0347L63.384 20.3907V25.7426Z" fill="#262961"/>
<path d="M15.4453 36.7952C24.0941 36.7952 30.7348 31.9042 30.7348 24.6968C30.7348 17.9004 25.1246 14.5569 16.4758 13.6787C13.2847 13.3175 7.56854 12.7509 7.56854 11.157C7.56854 10.0767 10.5542 9.30461 14.8786 9.30461C19.8227 9.30461 23.1662 10.2822 23.1662 11.6209H30.1151C30.1151 5.18566 23.9383 0.0361328 15.2365 0.0361328C6.99857 0.0361328 0.566644 4.66872 0.566644 11.7236C0.566644 18.4174 6.48827 22.0724 14.312 22.8445C17.7085 23.2057 23.7826 23.875 23.7826 25.4689C23.7826 26.6519 20.333 27.5268 15.9059 27.5268C10.7066 27.5268 6.94887 26.2908 6.94887 24.7466H0C0 31.4403 6.43524 36.7952 15.4453 36.7952ZM81.3883 26.3438V0.6558H74.6946V36.1789H98.686V26.3471H81.3883V26.3438ZM102.195 36.1789H108.889V0.6558H102.195V36.1789ZM128.672 0.6558H114.413V36.1789H128.672C139.123 36.1789 147 28.5607 147 18.4173C147 8.27404 139.123 0.6558 128.672 0.6558ZM128.413 26.3438H121.103V10.4876H128.413C135.054 10.4876 139.998 13.8842 139.998 18.414C139.998 22.9439 135.057 26.3438 128.413 26.3438Z" fill="#262961"/>
<path d="M8.12154 52.9614H2.02539V44.0664H8.12154V45.4394H3.58656V47.7465H8.02912V49.1196H3.58656V51.5884H8.12154V52.9614Z" fill="#262961"/>
<path d="M15.4318 52.9621H14.0324V48.9354C14.0324 48.0475 13.6 47.602 12.7386 47.602C12.4019 47.602 12.0851 47.6878 11.7913 47.8561C11.4976 48.0244 11.2632 48.2291 11.085 48.47V52.9654H9.68555V46.5227H11.085V47.4039C11.3259 47.1201 11.6461 46.8758 12.0455 46.6712C12.4448 46.4666 12.8805 46.3643 13.3525 46.3643C14.0357 46.3643 14.5539 46.5425 14.907 46.899C15.2569 47.2554 15.4351 47.767 15.4351 48.4337V52.9621H15.4318Z" fill="#262961"/>
<path d="M19.8587 55.5761C18.7663 55.5761 17.8685 55.256 17.1655 54.6157L17.819 53.6024C18.3009 54.1536 18.9808 54.4308 19.8587 54.4308C20.3934 54.4308 20.8423 54.2922 21.212 54.0117C21.5816 53.7311 21.7665 53.2888 21.7665 52.6848V51.9125C21.2153 52.6254 20.5255 52.9786 19.7003 52.9786C18.8554 52.9786 18.1689 52.6848 17.6408 52.0973C17.1127 51.5098 16.8486 50.7012 16.8486 49.6714C16.8486 48.6483 17.1127 47.8429 17.6408 47.2521C18.1689 46.6613 18.8554 46.3643 19.7003 46.3643C20.5453 46.3643 21.2351 46.7141 21.7665 47.4171V46.5227H23.1659V52.632C23.1659 53.1832 23.0702 53.6618 22.8788 54.0645C22.6873 54.4704 22.4266 54.7741 22.0998 54.9853C21.7698 55.1933 21.4232 55.3451 21.0536 55.4375C20.6839 55.5299 20.2878 55.5761 19.8587 55.5761ZM20.1129 51.7343C20.4331 51.7343 20.7499 51.6485 21.0602 51.4801C21.3704 51.3118 21.608 51.1072 21.7665 50.8662V48.4667C21.608 48.2258 21.3704 48.0211 21.0602 47.8528C20.7499 47.6845 20.4331 47.5987 20.1129 47.5987C19.5617 47.5987 19.1227 47.7868 18.7927 48.1664C18.4626 48.5459 18.2976 49.0443 18.2976 49.6681C18.2976 50.2919 18.4626 50.7903 18.7927 51.1699C19.1227 51.5461 19.5617 51.7343 20.1129 51.7343Z" fill="#262961"/>
<path d="M26.3809 52.9614H24.9814V44.0664H26.3809V52.9614Z" fill="#262961"/>
<path d="M28.8895 45.7332C28.6585 45.7332 28.4572 45.6474 28.2822 45.479C28.1073 45.3107 28.0215 45.1061 28.0215 44.8651C28.0215 44.6242 28.1073 44.4195 28.2822 44.2512C28.4539 44.0829 28.6585 43.9971 28.8895 43.9971C29.1305 43.9971 29.3351 44.0829 29.5034 44.2512C29.6718 44.4195 29.7576 44.6242 29.7576 44.8651C29.7576 45.1061 29.6718 45.3107 29.5034 45.479C29.3351 45.6474 29.1305 45.7332 28.8895 45.7332ZM29.5959 52.9614H28.1964V46.5187H29.5959V52.9614Z" fill="#262961"/>
<path d="M33.6118 53.1203C32.4566 53.1203 31.5358 52.7869 30.8525 52.1202L31.4928 51.1069C31.7338 51.3545 32.0573 51.569 32.4665 51.7472C32.8758 51.9255 33.2785 52.0146 33.6811 52.0146C34.0904 52.0146 34.404 51.9354 34.6218 51.7736C34.8396 51.6152 34.9485 51.404 34.9485 51.1465C34.9485 50.9155 34.8165 50.734 34.5492 50.6052C34.2818 50.4765 33.9584 50.3742 33.5755 50.2983C33.1926 50.2224 32.8098 50.13 32.4269 50.0177C32.0441 49.9055 31.7206 49.7075 31.4532 49.4236C31.1859 49.1398 31.0539 48.7701 31.0539 48.318C31.0539 47.7668 31.2816 47.3014 31.7338 46.9251C32.186 46.5489 32.8065 46.3574 33.5887 46.3574C34.5756 46.3574 35.4106 46.6611 36.0971 47.2651L35.5096 48.2519C35.305 48.0209 35.0344 47.8328 34.6944 47.6908C34.3577 47.5489 33.9914 47.4763 33.6019 47.4763C33.2389 47.4763 32.9451 47.5489 32.7273 47.6975C32.5094 47.8427 32.4005 48.0341 32.4005 48.2651C32.4005 48.4434 32.4962 48.5886 32.6877 48.6975C32.8791 48.8097 33.12 48.8923 33.4072 48.9451C33.6976 48.9979 34.0079 49.0705 34.3478 49.1662C34.6845 49.2586 34.9981 49.3675 35.2885 49.493C35.579 49.6184 35.8166 49.8197 36.008 50.1003C36.1995 50.3808 36.2952 50.7208 36.2952 51.1201C36.2952 51.7076 36.0608 52.1862 35.5889 52.5592C35.1136 52.9354 34.4568 53.1203 33.6118 53.1203Z" fill="#262961"/>
<path d="M43.4685 52.962H42.069V48.9089C42.069 48.437 41.9568 48.1036 41.7291 47.9023C41.5013 47.7009 41.1812 47.6019 40.762 47.6019C40.432 47.6019 40.1217 47.6877 39.8279 47.8561C39.5342 48.0244 39.2933 48.229 39.1084 48.47V52.9653H37.709V44.0703H39.1084V47.4039C39.3494 47.12 39.6695 46.8758 40.0755 46.6712C40.4815 46.4665 40.9171 46.3642 41.3891 46.3642C42.7754 46.3642 43.4685 47.0441 43.4685 48.404V52.962Z" fill="#262961"/>
<path d="M50.4421 52.962H49.0426V47.7471H47.9766V46.5193H49.0426V46.1595C49.0426 45.4664 49.2275 44.9218 49.5971 44.5257C49.9668 44.1297 50.4619 43.9316 51.0857 43.9316C51.7524 43.9316 52.2673 44.1198 52.6337 44.4927L52.0858 45.3608C51.8811 45.1727 51.6336 45.0802 51.3398 45.0802C51.0626 45.0802 50.8448 45.1727 50.6863 45.3542C50.5279 45.5357 50.4454 45.8064 50.4454 46.1595V46.5193H51.7524V47.7471H50.4454V52.962H50.4421Z" fill="#262961"/>
<path d="M55.7232 53.1199C54.7264 53.1199 53.9277 52.7932 53.3237 52.1396C52.7197 51.4861 52.416 50.6841 52.416 49.7335C52.416 48.783 52.7197 47.9809 53.3237 47.334C53.9277 46.6838 54.7297 46.3604 55.7232 46.3604C56.7266 46.3604 57.5319 46.6838 58.1359 47.334C58.7399 47.9842 59.0435 48.783 59.0435 49.7335C59.0435 50.694 58.7399 51.4993 58.1359 52.1462C57.5352 52.7965 56.7299 53.1199 55.7232 53.1199ZM55.7232 51.8822C56.3008 51.8822 56.7563 51.6743 57.0896 51.2617C57.423 50.8491 57.5913 50.3408 57.5913 49.7335C57.5913 49.1394 57.423 48.6344 57.0896 48.2186C56.7563 47.806 56.3008 47.5981 55.7232 47.5981C55.1555 47.5981 54.7033 47.806 54.3699 48.2186C54.0366 48.6311 53.8683 49.1361 53.8683 49.7335C53.8683 50.3375 54.0333 50.8458 54.3699 51.2617C54.7033 51.6743 55.1555 51.8822 55.7232 51.8822Z" fill="#262961"/>
<path d="M61.8584 52.962H60.459V46.5192H61.8584V47.4665C62.106 47.1464 62.4195 46.8856 62.7925 46.681C63.1655 46.4763 63.5516 46.374 63.9543 46.374V47.7603C63.8289 47.7339 63.6836 47.7207 63.5153 47.7207C63.2216 47.7207 62.908 47.8065 62.5746 47.9814C62.2413 48.1563 62.0036 48.3544 61.8617 48.5755V52.962H61.8584Z" fill="#262961"/>
<path d="M70.1159 52.9614H68.5547V44.0664H70.1159V52.9614Z" fill="#262961"/>
<path d="M75.6919 52.9614H74.1308V45.4394H71.4375V44.0664H78.3852V45.4394H75.6919V52.9614Z" fill="#262961"/>
<path d="M90.5484 52.962H88.7199C88.5252 52.7937 88.2611 52.5362 87.9344 52.1897C87.195 52.8135 86.3633 53.1237 85.4391 53.1237C84.6041 53.1237 83.9175 52.9026 83.3796 52.4636C82.8416 52.0246 82.5742 51.3975 82.5742 50.5889C82.5742 49.9651 82.7458 49.4568 83.0891 49.0607C83.4324 48.6646 83.9044 48.3082 84.5084 47.988C84.0892 47.2421 83.8813 46.5919 83.8813 46.0407C83.8813 45.4367 84.109 44.935 84.5678 44.5323C85.0266 44.1297 85.6008 43.9316 86.294 43.9316C86.9244 43.9316 87.4492 44.0967 87.8683 44.4267C88.2875 44.7568 88.4954 45.1991 88.4954 45.7602C88.4954 46.0803 88.436 46.3708 88.3205 46.6282C88.205 46.8856 88.0235 47.1167 87.7792 47.3147C87.535 47.5161 87.3072 47.6745 87.0993 47.7966C86.8914 47.9187 86.6141 48.0606 86.2643 48.229C86.5217 48.5854 86.8155 48.9485 87.1455 49.3215C87.4756 49.7208 87.7693 50.0641 88.0268 50.3479C88.4195 49.734 88.71 49.1168 88.908 48.493L90.0566 49.0145C89.6374 49.9288 89.2249 50.6648 88.8156 51.216C89.3041 51.7408 89.8817 52.3217 90.5484 52.962ZM85.614 52.0015C86.1487 52.0015 86.6603 51.7936 87.1488 51.3744C86.5877 50.7704 86.2247 50.3611 86.0563 50.1466C85.6834 49.6944 85.3533 49.2654 85.0694 48.866C84.4027 49.3017 84.0694 49.8364 84.0694 50.4668C84.0694 50.9387 84.2212 51.3117 84.5216 51.5857C84.8219 51.8629 85.1883 52.0015 85.614 52.0015ZM85.2939 46.0671C85.2939 46.45 85.4424 46.8988 85.7329 47.4137C86.2312 47.1827 86.6075 46.9484 86.865 46.7074C87.1224 46.4665 87.2511 46.1727 87.2511 45.8262C87.2511 45.5588 87.1653 45.3509 86.997 45.1991C86.8287 45.0472 86.6141 44.9713 86.3567 44.9713C86.053 44.9713 85.8022 45.0736 85.5975 45.2783C85.3962 45.4829 85.2939 45.747 85.2939 46.0671Z" fill="#262961"/>
<path d="M99.6419 52.9614H95.1465V44.0664H99.5197C100.312 44.0664 100.932 44.2809 101.381 44.7133C101.83 45.1457 102.055 45.6837 102.055 46.3339C102.055 46.8686 101.906 47.3175 101.609 47.6871C101.312 48.0568 100.946 48.2845 100.51 48.3736C100.988 48.4463 101.398 48.6905 101.731 49.113C102.064 49.5354 102.233 50.0173 102.233 50.5586C102.233 51.2715 102.005 51.8491 101.546 52.2914C101.084 52.7403 100.45 52.9614 99.6419 52.9614ZM99.2029 47.7465C99.5956 47.7465 99.9026 47.6409 100.124 47.4264C100.345 47.2118 100.457 46.9379 100.457 46.5979C100.457 46.2514 100.345 45.9708 100.124 45.7563C99.9026 45.5418 99.5956 45.4361 99.2029 45.4361H96.7076V47.7432H99.2029V47.7465ZM99.2689 51.5884C99.6947 51.5884 100.028 51.4795 100.269 51.2616C100.51 51.0438 100.629 50.7402 100.629 50.3474C100.629 50.0008 100.51 49.7104 100.269 49.4727C100.028 49.2384 99.6947 49.1196 99.2689 49.1196H96.7076V51.5884H99.2689Z" fill="#262961"/>
<path d="M109.498 52.9616H108.099V52.1068C107.495 52.7834 106.732 53.1201 105.818 53.1201C104.438 53.1201 103.752 52.4401 103.752 51.0803V46.5189H105.151V50.572C105.151 51.044 105.264 51.3774 105.485 51.5787C105.706 51.78 106.026 51.879 106.445 51.879C106.782 51.879 107.099 51.7998 107.392 51.6381C107.686 51.4797 107.921 51.2783 108.099 51.0374V46.5156H109.498V52.9616Z" fill="#262961"/>
<path d="M113.515 53.1203C112.36 53.1203 111.439 52.7869 110.756 52.1202L111.396 51.1069C111.637 51.3545 111.961 51.569 112.37 51.7472C112.779 51.9255 113.182 52.0146 113.584 52.0146C113.994 52.0146 114.307 51.9354 114.525 51.7736C114.743 51.6152 114.852 51.404 114.852 51.1465C114.852 50.9155 114.72 50.734 114.452 50.6052C114.185 50.4765 113.862 50.3742 113.479 50.2983C113.096 50.2224 112.713 50.13 112.334 50.0177C111.951 49.9055 111.627 49.7075 111.36 49.4236C111.093 49.1398 110.96 48.7701 110.96 48.318C110.96 47.7668 111.188 47.3014 111.64 46.9251C112.093 46.5489 112.713 46.3574 113.495 46.3574C114.482 46.3574 115.317 46.6611 116.004 47.2651L115.416 48.2519C115.212 48.0209 114.941 47.8328 114.604 47.6908C114.268 47.5489 113.901 47.4763 113.512 47.4763C113.149 47.4763 112.855 47.5489 112.637 47.6975C112.419 47.8427 112.31 48.0341 112.31 48.2651C112.31 48.4434 112.406 48.5886 112.598 48.6975C112.789 48.8097 113.03 48.8923 113.317 48.9451C113.608 48.9979 113.921 49.0705 114.258 49.1662C114.594 49.2619 114.908 49.3675 115.198 49.493C115.489 49.6184 115.727 49.8197 115.918 50.1003C116.109 50.3808 116.205 50.7208 116.205 51.1201C116.205 51.7076 115.971 52.1862 115.499 52.5592C115.017 52.9354 114.36 53.1203 113.515 53.1203Z" fill="#262961"/>
<path d="M118.302 45.7332C118.071 45.7332 117.869 45.6474 117.694 45.479C117.519 45.3107 117.434 45.1061 117.434 44.8651C117.434 44.6242 117.519 44.4195 117.694 44.2512C117.869 44.0829 118.071 43.9971 118.302 43.9971C118.543 43.9971 118.747 44.0829 118.916 44.2512C119.084 44.4195 119.17 44.6242 119.17 44.8651C119.17 45.1061 119.084 45.3107 118.916 45.479C118.747 45.6474 118.543 45.7332 118.302 45.7332ZM119.008 52.9614H117.609V46.5187H119.008V52.9614Z" fill="#262961"/>
<path d="M126.572 52.9621H125.173V48.9354C125.173 48.0475 124.741 47.602 123.879 47.602C123.543 47.602 123.226 47.6878 122.932 47.8561C122.638 48.0244 122.404 48.2291 122.226 48.47V52.9654H120.826V46.5227H122.226V47.4039C122.467 47.1201 122.787 46.8758 123.186 46.6712C123.585 46.4666 124.021 46.3643 124.493 46.3643C125.176 46.3643 125.695 46.5425 126.048 46.899C126.398 47.2554 126.576 47.767 126.576 48.4337V52.9621H126.572Z" fill="#262961"/>
<path d="M131.358 53.1203C130.381 53.1203 129.572 52.8067 128.938 52.1796C128.301 51.5525 127.984 50.7373 127.984 49.7306C127.984 48.7899 128.295 47.9912 128.912 47.3377C129.529 46.6842 130.311 46.3574 131.252 46.3574C132.203 46.3574 132.972 46.6875 133.552 47.3443C134.133 48.0011 134.427 48.8427 134.427 49.8659V50.1993H129.453C129.506 50.7076 129.714 51.13 130.08 51.4667C130.443 51.8034 130.922 51.975 131.506 51.975C131.836 51.975 132.166 51.9123 132.5 51.7869C132.833 51.6614 133.11 51.4898 133.335 51.2654L133.975 52.1862C133.325 52.81 132.453 53.1203 131.358 53.1203ZM133.067 49.2124C133.051 48.7668 132.886 48.3708 132.582 48.0242C132.275 47.6776 131.833 47.5027 131.255 47.5027C130.704 47.5027 130.272 47.6743 129.961 48.0176C129.651 48.3609 129.476 48.7569 129.44 49.2124H133.067Z" fill="#262961"/>
<path d="M138.015 53.1203C136.86 53.1203 135.939 52.7869 135.256 52.1202L135.896 51.1069C136.137 51.3545 136.461 51.569 136.87 51.7472C137.279 51.9255 137.682 52.0146 138.084 52.0146C138.494 52.0146 138.807 51.9354 139.025 51.7736C139.243 51.6152 139.352 51.404 139.352 51.1465C139.352 50.9155 139.22 50.734 138.952 50.6052C138.685 50.4765 138.362 50.3742 137.979 50.2983C137.596 50.2224 137.213 50.13 136.834 50.0177C136.451 49.9055 136.127 49.7075 135.86 49.4236C135.593 49.1398 135.46 48.7701 135.46 48.318C135.46 47.7668 135.688 47.3014 136.14 46.9251C136.593 46.5489 137.213 46.3574 137.995 46.3574C138.982 46.3574 139.817 46.6611 140.504 47.2651L139.916 48.2519C139.712 48.0209 139.441 47.8328 139.104 47.6908C138.768 47.5489 138.401 47.4763 138.012 47.4763C137.649 47.4763 137.355 47.5489 137.137 47.6975C136.919 47.8427 136.81 48.0341 136.81 48.2651C136.81 48.4434 136.906 48.5886 137.098 48.6975C137.289 48.8097 137.53 48.8923 137.817 48.9451C138.108 48.9979 138.421 49.0705 138.758 49.1662C139.094 49.2619 139.408 49.3675 139.698 49.493C139.989 49.6184 140.226 49.8197 140.418 50.1003C140.609 50.3808 140.705 50.7208 140.705 51.1201C140.705 51.7076 140.471 52.1862 139.999 52.5592C139.517 52.9354 138.86 53.1203 138.015 53.1203Z" fill="#262961"/>
<path d="M144.31 53.1203C143.155 53.1203 142.234 52.7869 141.551 52.1202L142.191 51.1069C142.432 51.3545 142.755 51.569 143.165 51.7472C143.574 51.9255 143.977 52.0146 144.379 52.0146C144.789 52.0146 145.102 51.9354 145.32 51.7736C145.538 51.6152 145.647 51.404 145.647 51.1465C145.647 50.9155 145.515 50.734 145.247 50.6052C144.98 50.4765 144.657 50.3742 144.274 50.2983C143.891 50.2224 143.508 50.13 143.128 50.0177C142.746 49.9055 142.422 49.7075 142.155 49.4236C141.887 49.1398 141.755 48.7701 141.755 48.318C141.755 47.7668 141.983 47.3014 142.435 46.9251C142.888 46.5489 143.508 46.3574 144.29 46.3574C145.277 46.3574 146.112 46.6611 146.799 47.2651L146.211 48.2519C146.007 48.0209 145.736 47.8328 145.399 47.6908C145.063 47.5489 144.696 47.4763 144.307 47.4763C143.944 47.4763 143.65 47.5489 143.432 47.6975C143.214 47.8427 143.105 48.0341 143.105 48.2651C143.105 48.4434 143.201 48.5886 143.393 48.6975C143.584 48.8097 143.825 48.8923 144.112 48.9451C144.402 48.9979 144.716 49.0705 145.053 49.1662C145.389 49.2619 145.703 49.3675 145.993 49.493C146.284 49.6184 146.521 49.8197 146.713 50.1003C146.904 50.3808 147 50.7208 147 51.1201C147 51.7076 146.766 52.1862 146.294 52.5592C145.812 52.9354 145.155 53.1203 144.31 53.1203Z" fill="#262961"/>
</svg>
