<svg width="523" height="577" viewBox="0 0 523 577" fill="none" xmlns="http://www.w3.org/2000/svg">
<g clip-path="url(#clip0_2001_112)">
<path d="M124.344 100.022L124.346 100.019C137.175 81.0873 160.027 71.1874 182.561 75.0412L183.497 75.2285L183.497 75.2286L183.509 75.2307C190.729 76.5884 197.441 80.0414 202.545 85.3285C214.444 97.79 222.201 118.924 225.368 137.623C226.95 146.958 227.374 155.61 226.626 162.188C226.251 165.48 225.588 168.202 224.664 170.218C223.735 172.244 222.601 173.434 221.351 173.898C218.14 175.089 211.332 175.982 202.371 176.504C193.462 177.022 182.563 177.169 171.268 176.924C148.647 176.433 124.591 174.375 111.773 170.648C109.967 170.076 108.733 168.423 108.682 166.573L108.682 166.572C107.8 136.697 114.042 115.132 124.344 100.022Z" fill="#FFFEC8" stroke="#2B2D60" stroke-width="2"/>
<path d="M123.518 99.4582C113.067 114.787 106.796 136.577 107.682 166.601C107.746 168.881 109.266 170.908 111.483 171.605C137.39 179.143 208.207 179.84 221.699 174.836C234.494 170.085 227.463 109.973 203.266 84.6361C198.009 79.1886 191.104 75.6414 183.693 74.2479C183.377 74.1846 183.06 74.1212 182.743 74.0579C159.813 70.1307 136.567 80.2021 123.518 99.4582Z" stroke="#2B2D60" stroke-width="2.53369" stroke-miterlimit="10"/>
<path d="M430.982 302.85C438.773 288.472 437.95 287.332 458.6 285.558C479.249 283.784 507.753 283.024 513.201 271.559C518.648 260.094 506.803 255.217 485.583 258.131C464.427 261.044 454.736 260.918 454.736 260.918C454.736 260.918 467.087 250.023 462.273 245.272C457.459 240.522 448.338 257.434 435.796 262.691C423.255 267.949 421.544 271.243 420.087 274.853C418.631 278.464 414.45 288.725 414.45 288.725L430.982 302.85Z" fill="#FCB28D" stroke="#2B2D60" stroke-width="3" stroke-miterlimit="10"/>
<path d="M366.248 414.462C343.445 439.545 323.429 459.118 317.728 459.118C305.883 459.118 273.515 415.285 258.693 394.319C254.006 387.668 251.092 383.361 251.092 383.361L253.942 365.561L259.643 329.963C259.643 329.963 262.05 333.447 265.787 338.958C279.216 358.53 310.19 403.503 314.308 406.797C324.126 399.83 411.728 282.266 411.728 282.266C411.728 282.266 448.087 302.472 451.571 307.92C453.788 311.34 405.711 371.135 366.248 414.462Z" fill="#43459A" stroke="#2B2D60" stroke-width="3" stroke-miterlimit="10" stroke-linecap="round" stroke-linejoin="round"/>
<path d="M387 802.808C366.117 805.125 281.634 805.644 267.649 805.964C257.334 747.131 229.806 541.438 227.274 515.317C223.794 533.65 220.693 557.814 218.035 584.454C209.428 670.246 204.999 781.52 204.999 805.484C197.025 806.163 168.105 806.044 145.829 805.844C144.437 805.844 143.108 805.804 141.842 805.804C128.3 805.644 99 805.844 99 805.844C99 805.844 107.037 654.709 127.604 544.354C131.591 522.986 136.337 503.135 141.969 486.161C145.956 474.179 150.386 463.594 155.258 454.967L158.612 449.535C163.105 442.825 168.042 437.633 173.547 434.278C174.307 433.799 175.066 433.359 175.825 433L276.255 440.509C276.255 440.509 277.584 445.741 279.672 453.769C279.989 455.047 280.368 456.445 280.748 457.883C280.875 458.402 281.001 458.961 281.191 459.48C287.709 484.883 298.784 527.859 300.935 536.246C303.846 548.268 379.786 776.647 387 802.808Z" fill="#00C3EB" stroke="#2B2D60" stroke-width="3" stroke-miterlimit="10" stroke-linecap="round" stroke-linejoin="round"/>
<path d="M215.11 363.595C209.979 357.704 147.65 268.075 146.7 236.023C146.636 234.883 146.7 233.806 146.827 232.793C148.917 216.704 148.663 204.986 147.903 194.851C147.587 190.29 147.08 185.983 146.7 181.739V181.676C146.383 178.508 146.13 175.405 146.003 172.238L149.55 175.911L174.697 202.008C174.697 202.008 174.634 203.465 174.634 205.809C174.444 214.93 174.254 237.924 175.964 246.158C176.914 250.782 196.677 259.46 196.677 259.46C196.677 259.46 204.278 265.351 210.296 288.471C216.25 311.591 220.43 369.676 215.11 363.595Z" fill="#FCB28D"/>
<path d="M215.11 363.595C209.979 357.704 147.65 268.075 146.7 236.023C146.636 234.883 146.7 233.806 146.827 232.793C148.917 216.704 148.663 204.986 147.903 194.851C147.587 190.29 147.08 185.983 146.7 181.739V181.676C146.383 178.508 146.13 175.405 146.003 172.238L149.55 175.911L174.697 202.008C174.697 202.008 174.634 203.465 174.634 205.809C174.444 214.93 174.254 237.924 175.964 246.158C176.914 250.782 196.677 259.46 196.677 259.46C196.677 259.46 204.278 265.351 210.296 288.471C216.25 311.591 220.43 369.676 215.11 363.595Z" fill="#FCB28D" stroke="#2B2D60" stroke-width="1.90027" stroke-miterlimit="10"/>
<path d="M280.924 470.139C271.612 480.971 259.387 489.775 235.254 486.798C226.576 485.721 201.809 477.677 185.657 493.829C179.196 500.29 173.305 520.053 166.717 541.336C165.641 544.693 164.627 548.113 163.487 551.534C154.302 580.228 143.407 608.225 127.635 607.339C134.413 549.507 143.407 498.643 155.316 465.578L158.673 457.027C163.17 446.386 168.111 438.151 173.622 432.83L280.924 470.139Z" fill="#43459A"/>
<path d="M175.587 483.994C165.451 498.632 146.827 749.126 145.877 806C144.483 806 143.153 805.96 141.886 805.96C128.33 805.8 99 806 99 806C99 806 107.045 654.656 127.633 544.148C131.624 522.75 136.375 502.872 142.013 485.874C157.153 479.834 186.609 468.076 175.587 483.994Z" fill="#43459A"/>
<path d="M143.851 458.673C150.312 463.677 154.303 463.994 158.42 464.817C162.537 465.641 168.428 462.79 173.369 470.835C178.309 478.879 153.289 513.971 151.896 524.929C150.502 535.887 152.212 538.104 153.226 544.185C154.239 550.203 138.34 546.592 134.16 532.34C130.043 518.088 132.323 511.247 132.323 511.247C132.323 511.247 142.521 491.357 143.598 487.557C144.675 483.756 129.536 470.961 129.536 470.961L143.851 458.673Z" fill="#FCB28D" stroke="#2B2D60" stroke-width="3" stroke-miterlimit="10"/>
<path d="M276.299 442.9C276.363 442.773 276.363 442.71 276.426 442.583C275.286 438.339 274.209 434.349 273.069 430.675C265.468 404.831 259.324 392.796 259.577 388.679C259.83 383.991 264.518 344.909 260.591 332.684C256.663 320.522 233.923 279.033 224.865 273.332C215.808 267.632 196.615 259.334 196.615 259.334C196.615 259.334 219.165 319.002 213.464 357.641C208.777 350.927 146.891 231.59 146.891 231.59C121.997 216.071 93.3667 203.339 67.143 246.982C38.1322 295.312 13.5553 343.072 8.2979 377.721C5.63752 395.013 129.028 491.61 129.028 491.61C129.028 491.61 152.212 462.536 154.555 454.998C148.475 445.56 64.3559 373.033 64.3559 373.033C64.3559 373.033 83.422 334.078 98.1807 310.008C101.918 303.927 105.402 298.796 108.252 295.502C108.316 295.566 108.379 295.692 108.506 295.756C119.274 308.741 174.635 422.757 175.902 430.675C175.965 430.992 176.155 431.372 176.472 431.752H174.572C168.617 438.403 161.966 448.284 158.609 456.899C155.252 465.513 230.44 475.331 234.937 471.784C239.434 468.237 241.081 460.446 241.081 460.446C241.081 460.446 242.728 468.744 246.909 472.544C251.089 476.345 278.516 472.988 280.797 470.137C282.317 468.364 279.023 453.858 276.299 442.9Z" fill="#00C3EB" stroke="#2B2D60" stroke-width="3" stroke-miterlimit="10" stroke-linecap="round" stroke-linejoin="round"/>
<path d="M213.462 357.643C213.335 357.643 207.001 357.516 180.587 327.999C153.92 298.228 119.842 219.367 123.706 219.303C127.57 219.24 143.215 229.311 146.889 231.528L146.952 231.655L150.436 238.179L213.462 357.643Z" fill="#43459A" stroke="#2B2D60" stroke-width="1.90027" stroke-miterlimit="10" stroke-linecap="round" stroke-linejoin="round"/>
<path d="M196.615 259.46C200.225 261.044 210.233 265.478 212.513 266.808C216.757 268.962 231.453 321.599 213.464 357.641C213.464 357.641 210.043 319.572 206.369 298.733C202.695 277.893 196.615 259.46 196.615 259.46Z" fill="#43459A" stroke="#2B2D60" stroke-width="1.90027" stroke-miterlimit="10" stroke-linecap="round" stroke-linejoin="round"/>
<path d="M141.506 141.327C128.395 130.179 114.713 149.499 140.936 160.52C165.386 170.845 141.506 141.327 141.506 141.327Z" fill="#FCB28D"/>
<path d="M148.41 206.189L174.507 211.13L173.684 200.869L146.003 178.952L148.41 206.189Z" fill="#2B2D60"/>
<path d="M211.184 146.142C211.184 179.27 198.832 206.191 178.309 206.191C157.786 206.191 139.797 178.827 139.797 145.762C139.797 112.698 151.326 92.6814 171.848 92.6814C192.371 92.6814 211.184 105.54 211.184 146.142Z" fill="#FCB28D"/>
<path d="M173.433 90.9074L175.776 100.092C175.776 100.092 207.004 119.221 212.515 130.623C218.026 141.961 206.751 97.5583 206.497 97.0516C206.244 96.5449 186.608 78.3022 186.608 78.3022L173.433 90.9074Z" fill="#FFFEC8"/>
<path d="M145.689 177.495C148.412 185.35 162.094 207.773 178.817 206.126C193.069 204.733 199.466 194.154 204.027 185.603C214.732 164.067 209.728 128.785 209.728 128.785C205.041 119.284 189.332 108.262 177.233 100.091" stroke="#2B2D60" stroke-width="1.50045" stroke-miterlimit="10" stroke-linecap="round" stroke-linejoin="round"/>
<path d="M160.382 248.059C161.966 248.692 163.55 249.389 165.133 250.086L167.477 251.162C168.237 251.479 169.06 251.859 169.757 252.303L168.87 252.619L171.721 246.855C171.784 246.728 171.911 246.665 172.037 246.728C172.164 246.792 172.164 246.918 172.164 247.045L170.074 253.126C169.947 253.443 169.63 253.569 169.314 253.506L169.187 253.443C168.364 253.189 167.603 252.809 166.78 252.429L164.436 251.289C162.916 250.529 161.333 249.769 159.812 249.009C159.559 248.882 159.432 248.502 159.559 248.249C159.812 248.059 160.129 247.932 160.382 248.059Z" fill="#2B2D60"/>
<path d="M175.965 105.031C175.965 105.031 178.245 96.7334 177.105 90.7159C175.965 84.6983 135.045 74.0568 128.648 120.423C132.385 136.639 141.19 142.213 141.19 142.213C141.19 142.213 169.504 129.988 175.965 105.031Z" fill="#FFFEC8"/>
<path d="M135.742 144.685C138.719 143.482 141.697 142.151 144.484 140.568C147.334 139.048 150.058 137.337 152.655 135.437C157.849 131.637 162.473 127.076 166.147 121.819C169.884 116.624 172.734 110.797 174.698 104.653C176.662 98.5086 177.738 92.111 178.182 85.6501C178.182 85.3967 178.372 85.27 178.625 85.27C178.815 85.27 179.005 85.46 179.005 85.7134C178.879 88.9439 178.562 92.2377 178.118 95.4681C177.612 98.6986 176.915 101.866 175.965 105.033C174.064 111.304 171.214 117.321 167.414 122.705C163.613 128.089 158.862 132.777 153.542 136.577C150.881 138.478 148.031 140.188 145.18 141.708C142.267 143.228 139.226 144.495 136.186 145.635C135.932 145.762 135.616 145.572 135.552 145.319C135.362 145.065 135.489 144.749 135.742 144.685Z" fill="#2B2D60"/>
<path d="M186.607 162.674C187.874 167.678 190.155 170.719 191.548 171.985L186.607 162.674Z" fill="#FCB28D"/>
<path d="M186.607 162.674C187.874 167.678 190.155 170.719 191.548 171.985" stroke="#2B2D60" stroke-width="1.90027" stroke-miterlimit="10" stroke-linecap="round" stroke-linejoin="round"/>
<path d="M180.202 185.55C180.145 185.838 180.145 186.126 180.145 186.414C180.145 189.582 182.679 192.116 185.846 192.116C189.014 192.116 191.548 189.582 191.548 186.414C191.548 186.126 191.548 185.838 191.49 185.55C190.166 185.896 188.38 186.241 186.365 186.241C183.831 186.299 181.7 185.896 180.202 185.55Z" fill="white" stroke="#2B2D60" stroke-width="1.90027" stroke-miterlimit="10" stroke-linecap="round" stroke-linejoin="round"/>
<path d="M156.392 153.678C158.799 147.597 163.676 144.303 169.314 144.557C174.951 144.81 178.181 149.814 179.258 153.678" stroke="#2B2D60" stroke-width="1.90027" stroke-miterlimit="10" stroke-linecap="round" stroke-linejoin="round"/>
<path d="M192.372 153.047C192.625 147.726 202.696 138.668 210.551 148.929" stroke="#2B2D60" stroke-width="1.90027" stroke-miterlimit="10" stroke-linecap="round" stroke-linejoin="round"/>
<path d="M171.153 153.68C173.007 153.68 174.51 151.638 174.51 149.119C174.51 146.6 173.007 144.559 171.153 144.559C169.299 144.559 167.796 146.6 167.796 149.119C167.796 151.638 169.299 153.68 171.153 153.68Z" fill="#2B2D60"/>
<path d="M204.786 153.047C206.64 153.047 208.143 151.005 208.143 148.486C208.143 145.967 206.64 143.926 204.786 143.926C202.932 143.926 201.428 145.967 201.428 148.486C201.428 151.005 202.932 153.047 204.786 153.047Z" fill="#2B2D60"/>
<path d="M209.473 139.806C207.129 139.996 202.252 140.376 199.655 140.63C198.578 140.693 197.755 140.693 197.184 140.566C195.664 140.25 195.918 138.159 197.438 138.159C197.501 138.159 197.628 138.159 197.691 138.159V139.046H198.008V138.159C198.325 138.159 198.705 138.159 199.021 138.159V138.603H199.338V138.096C200.035 138.096 200.795 138.096 201.682 138.033C204.215 138.033 207.636 138.856 209.41 139.363C209.79 139.426 209.79 139.806 209.473 139.806Z" fill="#2B2D60"/>
<path d="M160.127 139.174C162.914 139.174 168.678 139.174 171.782 139.238C173.049 139.238 173.999 139.111 174.696 138.921C176.469 138.351 175.963 135.754 174.126 135.817C173.999 135.817 173.936 135.817 173.809 135.817L173.936 136.957L173.556 137.021L173.429 135.881C173.049 135.881 172.669 135.944 172.226 135.944L172.289 136.577L171.909 136.641L171.845 136.007C171.022 136.071 170.135 136.134 169.122 136.197C166.145 136.451 162.217 137.781 160.19 138.604C159.747 138.668 159.81 139.174 160.127 139.174Z" fill="#2B2D60"/>
<path d="M141.192 142.214C136.884 138.033 128.143 136.259 126.306 143.037C123.709 152.665 138.468 160.266 140.875 160.52C141.318 162.673 145.372 176.608 145.372 176.608" stroke="#2B2D60" stroke-width="1.50045" stroke-miterlimit="10" stroke-linecap="round" stroke-linejoin="round"/>
<path d="M136.629 460.637C138.098 460.637 139.289 459.446 139.289 457.977C139.289 456.508 138.098 455.316 136.629 455.316C135.159 455.316 133.968 456.508 133.968 457.977C133.968 459.446 135.159 460.637 136.629 460.637Z" fill="#00C3EB" stroke="#2B2D60" stroke-width="1.90027" stroke-miterlimit="10" stroke-linecap="round" stroke-linejoin="round"/>
<path d="M413.371 305.002C415.085 305.002 416.475 303.613 416.475 301.898C416.475 300.184 415.085 298.795 413.371 298.795C411.657 298.795 410.267 300.184 410.267 301.898C410.267 303.613 411.657 305.002 413.371 305.002Z" fill="#43459A" stroke="#2B2D60" stroke-width="1.90027" stroke-miterlimit="10" stroke-linecap="round" stroke-linejoin="round"/>
<path d="M136.629 517.772C134.602 525.183 135.235 535.254 135.235 535.254L136.629 517.772Z" fill="#FCB28D"/>
<path d="M136.629 517.772C134.602 525.183 135.235 535.254 135.235 535.254" stroke="#2B2D60" stroke-width="1.90027" stroke-miterlimit="10" stroke-linecap="round" stroke-linejoin="round"/>
<path d="M146.067 513.212C143.66 517.709 140.81 540.449 142.14 543.806L146.067 513.212Z" fill="#FCB28D"/>
<path d="M146.067 513.212C143.66 517.709 140.81 540.449 142.14 543.806" stroke="#2B2D60" stroke-width="1.90027" stroke-miterlimit="10" stroke-linecap="round" stroke-linejoin="round"/>
<path d="M477.603 265.921C488.624 266.238 509.78 259.65 509.78 259.65L477.603 265.921Z" fill="#FCB28D"/>
<path d="M477.603 265.921C488.624 266.238 509.78 259.65 509.78 259.65" stroke="#2B2D60" stroke-width="1.90027" stroke-miterlimit="10" stroke-linecap="round" stroke-linejoin="round"/>
<path d="M480.199 273.649C490.714 272.699 511.237 267.568 514.467 265.921L480.199 273.649Z" fill="#FCB28D"/>
<path d="M480.199 273.649C490.714 272.699 511.237 267.568 514.467 265.921" stroke="#2B2D60" stroke-width="1.90027" stroke-miterlimit="10" stroke-linecap="round" stroke-linejoin="round"/>
<path d="M242.981 350.548C257.613 345.67 261.033 334.396 261.033 334.396L242.981 350.548Z" fill="#00C3EB"/>
<path d="M242.981 350.548C257.613 345.67 261.033 334.396 261.033 334.396" stroke="#2B2D60" stroke-width="1.90027" stroke-miterlimit="10" stroke-linecap="round" stroke-linejoin="round"/>
<path d="M519.411 245.432C519.426 250.774 520.455 257.007 519.38 262.227C518.413 267.001 514.882 267.923 510.522 268.414C499.883 269.627 488.891 269.519 478.191 269.611C467.736 269.672 456.161 270.64 445.829 268.905C440.103 267.938 439.013 265.635 438.629 259.863C437.124 237.511 435.313 214.375 436.265 191.992C436.311 191.117 437.063 190.81 437.677 190.994C437.877 190.779 438.168 190.641 438.552 190.641C443.004 190.61 447.471 190.61 451.939 190.626C447.379 183.886 446.643 172.357 456.606 170.3C465.111 168.534 473.8 174.813 476.057 182.873C476.487 182.735 476.963 182.627 477.454 182.597C478.774 182.49 479.941 182.797 480.923 183.38C485.237 175.305 494.218 169.164 503.536 172.971C510.966 176.011 514.037 185.375 509.032 191.624C512.317 191.731 515.603 191.823 518.888 191.977C520.469 192.039 520.546 194.28 519.118 194.526C519.179 194.679 519.225 194.864 519.225 195.079C519.271 206.915 519.317 218.767 519.348 230.619L519.411 245.432ZM516.709 258.757C517.738 254.95 516.678 249.331 516.663 245.431C516.602 228.636 516.54 211.856 516.479 195.077C516.479 194.878 516.51 194.724 516.571 194.57C507.59 194.631 498.594 194.585 489.582 194.478C489.659 194.647 489.72 194.831 489.72 195.061C489.459 218.795 488.937 243.021 487.126 266.678C492.484 266.555 497.826 266.371 503.184 266.095C508.926 265.788 514.943 265.282 516.709 258.757ZM506.208 191.055C512.656 184.438 507.006 174.859 498.593 174.352C491.378 173.907 485.928 178.819 482.351 184.561C483.026 185.344 483.502 186.311 483.733 187.34C487.341 185.498 491.378 183.932 495.354 183.425C496.383 183.287 496.49 184.868 495.584 185.144C491.623 186.372 487.755 187.385 483.886 188.921C483.871 189.597 483.763 190.257 483.533 190.917C491.009 191.055 498.47 191.27 505.916 191.5C505.978 191.347 506.07 191.193 506.208 191.055ZM487.172 195.062C487.203 194.816 487.279 194.617 487.402 194.448C480.171 194.356 472.94 194.218 465.71 194.018C466.646 206.131 467.368 218.274 468.182 230.387C468.98 242.377 470.715 254.797 470.101 266.817C472.312 266.832 474.507 266.863 476.718 266.863C479.635 266.848 482.536 266.771 485.453 266.709C485.453 266.709 485.453 266.709 485.453 266.694C484.286 243.129 485.237 218.581 487.172 195.062ZM481.108 190.41C482.351 187.892 480.509 184.899 477.669 185.068C474.614 185.252 473.585 188.307 474.66 190.779C476.763 190.81 478.882 190.825 480.985 190.871C481 190.717 481.031 190.564 481.108 190.41ZM472.48 186.235C472.91 185.222 473.616 184.316 474.537 183.656C471.912 178.037 467.076 173.14 460.536 172.649C456.191 172.327 452.154 174.399 451.187 178.943C450.327 182.981 452.124 186.634 453.782 190.181C453.859 190.335 453.874 190.473 453.874 190.626C460.046 190.641 466.232 190.672 472.419 190.749C472.035 189.843 471.928 188.891 472.02 187.97C467.629 186.558 463.085 184.808 458.94 182.812C457.85 182.29 458.633 180.494 459.754 180.878C464.021 182.335 468.427 184.208 472.48 186.235ZM468.442 266.802C466.339 255.411 466.339 243.406 465.556 231.892C464.696 219.242 463.729 206.607 463.008 193.957C454.841 193.727 446.689 193.466 438.552 193.143C438.552 193.143 438.552 193.143 438.537 193.143C440.011 210.245 439.796 227.623 440.609 244.787C440.824 249.193 440.486 254.014 441.3 258.343C441.853 261.352 442.605 264.484 445.829 266.142C447.119 266.802 450.266 266.357 451.709 266.418C457.282 266.648 462.87 266.756 468.442 266.802Z" fill="#262961"/>
<path d="M516.662 245.432C516.677 249.331 517.737 254.95 516.708 258.758C514.942 265.283 508.925 265.789 503.183 266.096C497.825 266.372 492.483 266.557 487.125 266.679C488.936 243.022 489.458 218.796 489.719 195.062C489.719 194.832 489.658 194.647 489.581 194.479C498.593 194.587 507.589 194.633 516.57 194.571C516.509 194.725 516.478 194.878 516.478 195.078C516.539 211.857 516.601 228.637 516.662 245.432ZM512.885 253.906C513.1 251.25 513.253 248.379 513.054 245.708C512.977 244.772 511.795 244.695 511.503 245.447C511.211 244.618 509.891 244.71 509.845 245.708C509.738 247.566 509.968 249.485 510.045 251.342C510.091 252.186 511.319 252.186 511.365 251.342C511.365 251.142 511.38 250.943 511.396 250.743C511.442 251.818 511.519 252.877 511.596 253.906C511.673 254.735 512.809 254.735 512.885 253.906Z" fill="#00C3EB"/>
<path d="M513.055 245.708C513.255 248.379 513.101 251.25 512.886 253.906C512.809 254.735 511.673 254.735 511.596 253.906C511.519 252.877 511.443 251.818 511.396 250.743C511.381 250.943 511.365 251.142 511.365 251.342C511.319 252.186 510.091 252.186 510.045 251.342C509.968 249.484 509.738 247.565 509.845 245.708C509.891 244.71 511.211 244.618 511.503 245.447C511.796 244.695 512.978 244.772 513.055 245.708Z" fill="#262961"/>
<path d="M498.594 174.352C507.007 174.859 512.656 184.438 506.209 191.055C506.071 191.193 505.979 191.347 505.917 191.5C498.471 191.27 491.01 191.055 483.534 190.917C483.764 190.257 483.872 189.597 483.887 188.921C487.756 187.386 491.624 186.373 495.585 185.144C496.491 184.868 496.383 183.286 495.355 183.425C491.379 183.932 487.341 185.498 483.734 187.34C483.504 186.311 483.028 185.344 482.352 184.561C485.928 178.82 491.378 173.907 498.594 174.352ZM503.169 180.846C503.875 181.307 504.505 180.324 504.013 179.741C501.818 177.162 497.442 175.934 494.172 176.548C493.466 176.671 493.681 177.699 494.326 177.73C495.953 177.807 497.504 177.899 499.054 178.436C500.62 179.004 501.802 179.956 503.169 180.846ZM502.785 182.704C503.476 183.149 504.151 181.998 503.43 181.583C502.033 180.8 500.636 179.986 499.254 179.173C498.655 178.82 498.133 179.726 498.717 180.094C500.067 180.954 501.434 181.813 502.785 182.704Z" fill="#F4259A"/>
<path d="M504.013 179.741C504.504 180.324 503.875 181.307 503.169 180.846C501.803 179.956 500.621 179.004 499.055 178.436C497.504 177.899 495.954 177.807 494.327 177.73C493.682 177.699 493.467 176.671 494.173 176.548C497.442 175.933 501.818 177.162 504.013 179.741Z" fill="#262961"/>
<path d="M503.429 181.583C504.151 181.997 503.475 183.149 502.784 182.704C501.433 181.814 500.067 180.954 498.716 180.094C498.133 179.726 498.655 178.82 499.253 179.173C500.634 179.986 502.032 180.8 503.429 181.583Z" fill="#262961"/>
<path d="M487.401 194.448C487.278 194.617 487.201 194.816 487.171 195.062C485.237 218.581 484.285 243.129 485.452 266.694C485.452 266.709 485.452 266.709 485.452 266.709C482.535 266.77 479.634 266.847 476.717 266.863C474.506 266.863 472.311 266.832 470.1 266.817C470.714 254.796 468.979 242.377 468.181 230.387C467.367 218.274 466.646 206.131 465.709 194.018C472.94 194.218 480.17 194.356 487.401 194.448ZM484.177 205.778C484.254 204.565 484.515 203.383 484.515 202.186C484.515 201.403 483.425 201.28 483.195 202.002C482.489 204.289 482.75 207.191 483.134 209.509C483.241 210.092 484.147 209.939 484.147 209.386C484.131 208.173 484.116 206.975 484.177 205.778ZM481.521 200.834C481.659 199.928 480.339 199.514 480.109 200.45C479.618 202.492 479.572 204.902 480.032 206.959C480.17 207.573 481.107 207.42 481.107 206.821C481.107 204.764 481.199 202.876 481.521 200.834Z" fill="#F4259A"/>
<path d="M484.516 202.185C484.516 203.382 484.255 204.565 484.178 205.777C484.117 206.974 484.132 208.172 484.147 209.385C484.147 209.938 483.241 210.091 483.134 209.508C482.75 207.19 482.489 204.288 483.195 202.001C483.426 201.28 484.516 201.402 484.516 202.185Z" fill="#262961"/>
<path d="M480.109 200.45C480.339 199.514 481.659 199.928 481.521 200.834C481.199 202.876 481.106 204.764 481.106 206.821C481.106 207.42 480.169 207.573 480.031 206.959C479.572 204.903 479.618 202.492 480.109 200.45Z" fill="#262961"/>
<path d="M477.669 185.068C480.509 184.899 482.351 187.893 481.108 190.41C481.031 190.564 481.001 190.717 480.985 190.871C478.882 190.825 476.763 190.81 474.66 190.779C473.585 188.307 474.614 185.252 477.669 185.068Z" fill="#F4259A"/>
<path d="M474.536 183.656C473.615 184.316 472.909 185.222 472.479 186.235C468.426 184.209 464.02 182.336 459.752 180.877C458.631 180.493 457.848 182.289 458.938 182.811C463.083 184.807 467.627 186.557 472.018 187.969C471.926 188.89 472.033 189.842 472.417 190.748C466.23 190.671 460.043 190.64 453.872 190.625C453.872 190.471 453.857 190.333 453.78 190.18C452.122 186.634 450.326 182.98 451.185 178.942C452.152 174.398 456.19 172.325 460.534 172.648C467.075 173.139 471.911 178.037 474.536 183.656Z" fill="#F4259A"/>
<path d="M465.555 231.891C466.338 243.405 466.338 255.41 468.441 266.801C462.868 266.755 457.28 266.647 451.707 266.417C450.264 266.356 447.117 266.801 445.827 266.141C442.603 264.483 441.851 261.351 441.298 258.342C440.484 254.013 440.822 249.192 440.607 244.786C439.793 227.623 440.008 210.244 438.535 193.142C438.55 193.142 438.55 193.142 438.55 193.142C446.686 193.464 454.838 193.725 463.006 193.956C463.728 206.607 464.696 219.241 465.555 231.891ZM455.239 262.303C456.16 262.472 456.559 261.075 455.623 260.891C453.55 260.476 451.754 259.571 450.25 258.082C449.697 257.529 448.899 258.343 449.39 258.926C450.925 260.661 452.967 261.874 455.239 262.303ZM452.552 264.192C453.197 264.023 453.274 262.918 452.552 262.795C451.109 262.549 449.85 262.503 448.591 261.628C447.301 260.722 446.457 259.387 446.104 257.867C445.966 257.207 444.83 257.33 444.907 258.021C445.321 261.352 448.883 265.174 452.552 264.192Z" fill="#00C3EB"/>
<path d="M455.624 260.891C456.56 261.075 456.161 262.472 455.24 262.303C452.968 261.873 450.926 260.66 449.391 258.926C448.9 258.343 449.698 257.529 450.251 258.082C451.755 259.571 453.551 260.477 455.624 260.891Z" fill="#262961"/>
<path d="M452.553 262.795C453.275 262.918 453.198 264.023 452.553 264.192C448.884 265.175 445.322 261.352 444.908 258.02C444.831 257.329 445.967 257.206 446.105 257.866C446.458 259.386 447.302 260.722 448.592 261.627C449.851 262.503 451.11 262.549 452.553 262.795Z" fill="#262961"/>
</g>
<path d="M198.019 81.5933C198.145 78.4761 198.149 75.5337 197.718 72.5521C197.691 72.6049 197.664 72.6577 197.636 72.7106C196.491 74.9413 195.308 77.2465 193.764 79.0137C193.494 79.3265 192.998 79.4306 192.602 79.3248C190.368 78.6926 188.214 76.7246 186.263 75.1407C185.287 78.2027 184.391 81.2994 183.115 84.2436C182.914 84.7074 182.47 84.6855 182.155 84.4585C181.882 85.0262 181.223 85.4157 180.517 84.9959C176.085 82.3366 173.1 78.4271 169.388 83.0991C167.895 84.9704 165.582 89.2668 163.038 89.6943C160.665 90.0759 157.858 86.8815 156.224 85.6934C153.923 84.0189 153.228 82.9043 151.087 84.835C149.262 86.469 148.062 90.0157 146.939 92.1555C146.65 92.7138 146.106 92.6899 145.733 92.4076C145.339 92.6264 144.836 92.648 144.396 92.2712C141.067 89.401 137.91 86.3297 134.78 83.2505C133.053 86.9377 131.339 90.6212 129.625 94.3056C129.341 94.9335 128.539 95.0063 127.988 94.7441C125.49 93.5472 122.95 92.4599 120.39 91.4057C121.672 93.919 123.016 96.4017 124.324 98.9079C124.351 98.9568 124.361 98.9964 124.372 99.0367C150.992 101.903 175.652 97.134 198.201 82.1681C198.089 82.013 198.009 81.8216 198.019 81.5933ZM188.645 69.0432C185.128 65.0496 181.667 60.9988 178.215 56.9317C162.846 57.0474 147.228 57.456 131.898 56.1902C131.709 56.1699 131.575 56.0933 131.477 55.9916C130.655 60.525 129.85 65.0684 129.032 69.6156C148.892 69.0458 168.78 69.642 188.645 69.0432ZM176.478 54.8795C173.269 51.0863 170.071 47.2765 166.84 43.5039C166.056 42.5827 165.254 41.6514 164.466 40.7176C154.488 40.8459 144.378 40.853 134.443 39.8237C133.584 44.5373 132.709 49.2406 131.85 53.9533C131.786 54.2957 131.723 54.638 131.659 54.9803C131.734 54.9463 131.813 54.9251 131.91 54.9131C146.723 54.3533 161.64 54.9236 176.478 54.8795ZM162.82 38.7966C160.041 35.5532 157.273 32.2924 154.495 29.0488C153.856 28.3006 153.217 27.5525 152.575 26.7914C152.399 26.7676 152.222 26.688 152.12 26.5742C152.093 26.5252 152.049 26.4662 152.008 26.42C151.971 26.3876 151.956 26.3343 151.946 26.2948C151.111 26.1362 149.199 26.281 148.672 26.2665C147.471 26.2207 146.268 26.1609 145.054 26.1185C142.391 25.9973 139.719 25.8935 137.045 25.733C137.009 25.9258 136.974 26.1185 136.939 26.3112C136.376 29.3759 135.813 32.4406 135.238 35.5086C135.062 36.4889 134.877 37.4864 134.701 38.4667C144.074 38.5585 153.432 38.9079 162.82 38.7966ZM150.557 24.433C149.813 23.5573 149.07 22.6822 148.326 21.8066C146.014 19.0885 144.516 15.1905 140.847 16.3292C137.403 17.4079 137.775 21.2251 137.255 24.5611C140.667 24.5238 144.075 24.5724 147.478 24.6076C148.217 24.6215 149.417 24.4556 150.557 24.433Z" fill="#262961"/>
<path fill-rule="evenodd" clip-rule="evenodd" d="M199.386 68.6967C200.512 73.0057 201.005 77.4833 200.118 81.8794C200.063 82.1484 199.926 82.3268 199.759 82.4425C200.08 82.9509 200.099 83.7094 199.457 84.1642C178.077 99.538 148.87 106.544 123.064 100.334C122.702 100.247 122.557 99.9184 122.558 99.6075C120.418 96.4758 118.615 93.1258 116.911 89.7217C116.502 88.8833 117.199 87.58 118.253 87.9756C119.971 88.6329 121.669 89.3228 123.348 90.0474C125.429 75.1207 128.561 60.3096 131.28 45.4947C132.724 37.5841 134.172 29.6866 135.616 21.776C135.792 20.8518 135.91 19.5481 136.109 18.1793L136.349 16.7986C136.843 14.4736 137.763 12.2622 139.902 11.7453C141.786 11.2828 143.442 12.5509 144.822 14.0612L145.957 15.3987C146.451 16.0299 146.892 16.6193 147.301 17.0892C152.604 23.2628 157.897 29.4529 163.203 35.6401C173.499 47.6742 184.07 59.5213 194.042 71.8263C194.34 72.1988 194.367 72.6163 194.237 72.9763C193.98 73.6532 193.135 74.0913 192.494 73.387C191.775 72.6042 191.093 71.7968 190.386 71.0104C190.307 71.0316 190.232 71.0657 190.135 71.0777C169.881 71.9652 149.026 72.7731 128.776 70.9869C127.587 77.5843 126.327 84.1734 124.81 90.7032C125.885 91.1787 126.943 91.6451 128.005 92.1243C129.788 88.304 131.568 84.47 133.347 80.636L133.361 80.6054C133.69 79.8807 134.74 79.84 135.245 80.3549C138.732 83.7623 142.327 87.0422 145.814 90.4496C147.351 87.054 149.093 83.8429 151.087 80.6785C151.397 80.1993 152.133 79.8886 152.657 80.2578C154.666 81.6852 157.888 85.1066 160.237 85.6941C165.229 86.9589 168.181 80.8222 170.495 77.5858C170.881 77.0725 171.542 76.7959 172.145 77.1438L181.722 82.9072C181.809 82.9685 181.854 83.0276 181.927 83.0926C182.559 79.6421 183.639 76.2841 184.526 72.893C184.701 72.2235 185.621 71.7513 186.234 72.1949C187.532 73.134 191.249 76.8188 192.859 76.0198C193.26 75.8277 194.109 74.0866 194.624 73.0015C194.797 72.6438 194.944 72.3501 195.022 72.2161C195.742 70.948 196.464 69.6805 197.184 68.4123C197.696 67.5089 199.117 67.6937 199.386 68.6967ZM197.718 72.5521C198.149 75.5337 198.145 78.4761 198.019 81.5933C198.009 81.8216 198.089 82.013 198.201 82.1681C175.652 97.134 150.992 101.903 124.372 99.0367C124.361 98.9964 124.351 98.9568 124.324 98.9079C123.016 96.4017 121.672 93.919 120.39 91.4057C122.95 92.4599 125.49 93.5472 127.988 94.7441C128.539 95.0063 129.341 94.9335 129.625 94.3056C131.339 90.6212 133.053 86.9377 134.78 83.2505C137.91 86.3297 141.067 89.401 144.396 92.2712C144.836 92.648 145.339 92.6264 145.733 92.4076C146.106 92.6899 146.65 92.7138 146.939 92.1555C148.062 90.0157 149.262 86.469 151.087 84.835C153.228 82.9043 153.923 84.0189 156.224 85.6934C157.858 86.8815 160.665 90.0759 163.038 89.6943C165.582 89.2668 167.895 84.9704 169.388 83.0991C173.1 78.4271 176.085 82.3366 180.517 84.9959C181.223 85.4157 181.882 85.0262 182.155 84.4585C182.47 84.6855 182.914 84.7074 183.115 84.2436C184.391 81.2994 185.287 78.2027 186.263 75.1407C188.214 76.7246 190.368 78.6926 192.602 79.3248C192.998 79.4306 193.494 79.3265 193.764 79.0137C195.308 77.2465 196.491 74.9413 197.636 72.7106L197.718 72.5521ZM178.215 56.9317C181.667 60.9988 185.128 65.0496 188.645 69.0432C168.78 69.642 148.892 69.0458 129.032 69.6156C129.85 65.0684 130.655 60.525 131.477 55.9916C131.575 56.0933 131.709 56.1699 131.898 56.1902C147.228 57.456 162.846 57.0474 178.215 56.9317ZM166.84 43.5039C170.071 47.2765 173.269 51.0863 176.478 54.8795C161.64 54.9236 146.723 54.3533 131.91 54.9131C131.813 54.9251 131.734 54.9463 131.659 54.9803L131.85 53.9533C132.709 49.2406 133.584 44.5373 134.443 39.8237C144.378 40.853 154.488 40.8459 164.466 40.7176C165.254 41.6514 166.056 42.5827 166.84 43.5039ZM154.495 29.0488C157.273 32.2924 160.041 35.5532 162.82 38.7966C153.432 38.9079 144.074 38.5585 134.701 38.4667C134.877 37.4864 135.062 36.4889 135.238 35.5086C135.813 32.4406 136.376 29.3759 136.939 26.3112L137.045 25.733C139.719 25.8935 142.391 25.9973 145.054 26.1185C146.268 26.1609 147.471 26.2207 148.672 26.2665C149.199 26.281 151.111 26.1362 151.946 26.2948C151.956 26.3343 151.971 26.3876 152.008 26.42C152.049 26.4662 152.093 26.5252 152.12 26.5742C152.222 26.688 152.399 26.7676 152.575 26.7914C153.217 27.5525 153.856 28.3006 154.495 29.0488ZM148.326 21.8066C149.07 22.6822 149.813 23.5573 150.557 24.433C149.417 24.4556 148.217 24.6215 147.478 24.6076C144.075 24.5724 140.667 24.5238 137.255 24.5611C137.775 21.2251 137.403 17.4079 140.847 16.3292C144.516 15.1905 146.014 19.0885 148.326 21.8066Z" fill="#262961"/>
<path d="M197.718 72.5522C198.149 75.5337 198.145 78.4762 198.019 81.5934C198.009 81.8225 198.089 82.0131 198.201 82.1673C175.652 97.1332 150.993 101.902 124.372 99.0359C124.361 98.9964 124.351 98.9569 124.324 98.907C123.016 96.4009 121.671 93.9182 120.39 91.4049C122.95 92.4583 125.489 93.5455 127.988 94.7433C128.539 95.0055 129.34 94.9329 129.625 94.3048C131.339 90.6213 133.053 86.9378 134.78 83.2497C137.91 86.3281 141.067 89.4002 144.396 92.2704C144.836 92.6472 145.339 92.6256 145.733 92.4068C146.105 92.6884 146.65 92.713 146.939 92.1547C148.062 90.0149 149.262 86.4691 151.087 84.8342C153.228 82.9027 153.923 84.0181 156.224 85.6926C157.858 86.8816 160.665 90.0751 163.038 89.6935C165.582 89.266 167.895 84.9696 169.388 83.0983C173.101 78.4261 176.086 82.3364 180.517 84.9951C181.224 85.4138 181.883 85.0252 182.155 84.4577C182.47 84.6847 182.914 84.7066 183.115 84.2428C184.391 81.2986 185.286 78.2019 186.262 75.1399C188.214 76.7238 190.368 78.6929 192.602 79.324C192.998 79.4298 193.493 79.3257 193.763 79.0129C195.344 77.2047 196.546 74.8312 197.718 72.5522ZM179.517 90.3409C180.348 90.1182 179.99 88.941 179.177 89.074C176.031 89.5781 172.928 90.452 169.835 91.1535C169.115 91.3178 169.415 92.3835 170.128 92.2485C173.242 91.6261 176.439 91.1518 179.517 90.3409ZM176.058 87.9864C177.016 87.8144 176.584 86.2046 175.669 86.5347C173.386 87.3581 170.996 87.8853 168.713 88.7098C168.16 88.9142 168.369 89.6929 168.947 89.5805C171.335 89.1533 173.669 88.4147 176.058 87.9864Z" fill="#00C3EB"/>
<path d="M194.238 72.9751L194.626 72.9983C194.111 74.0843 193.262 75.8245 192.861 76.0166C191.251 76.8156 187.534 73.1308 186.236 72.1917C185.622 71.7481 184.702 72.2203 184.528 72.8898C183.64 76.2809 182.561 79.6397 181.929 83.0894C181.855 83.0244 181.811 82.9653 181.724 82.904L172.146 77.1406C171.544 76.7927 170.883 77.0693 170.497 77.5826C168.182 80.819 165.23 86.9559 160.239 85.6909C157.889 85.1044 154.667 81.6823 152.659 80.2546C152.135 79.8854 151.399 80.1961 151.089 80.6753C149.094 83.8399 147.352 87.051 145.816 90.4464C142.329 87.039 138.734 83.7591 135.247 80.3517C134.742 79.8368 133.691 79.8777 133.363 80.6022C131.579 84.4464 129.795 88.2907 128.007 92.1211C126.945 91.6419 125.887 91.1755 124.812 90.7C126.329 84.1702 127.59 77.5808 128.778 70.9837C149.027 72.7699 169.883 71.9628 190.137 71.0745C190.233 71.0627 190.309 71.0284 190.388 71.0072C191.094 71.7938 191.777 72.601 192.496 73.3838C193.137 74.0901 193.981 73.652 194.238 72.9751ZM144.196 77.0641C145.024 77.0402 145.015 75.7418 144.207 75.7878C142.182 75.9343 140.149 75.9983 138.14 76.2112C137.538 76.2879 137.49 77.1631 138.13 77.1758C140.149 77.2152 142.181 77.0945 144.196 77.0641ZM141.608 74.3774C142.496 74.3661 142.503 73.0202 141.626 73.0149C138.938 73.0137 136.236 73.1159 133.555 73.2402C132.896 73.261 132.889 74.2385 133.545 74.2607C136.227 74.3481 138.932 74.4157 141.608 74.3774Z" fill="#F4259A"/>
<path d="M178.216 56.9315C181.668 60.9987 185.129 65.0495 188.646 69.043C168.781 69.6418 148.893 69.0457 129.034 69.6152C129.852 65.0681 130.657 60.5255 131.479 55.9912C131.577 56.0921 131.711 56.1695 131.9 56.1898C147.229 57.4558 162.846 57.0474 178.216 56.9315Z" fill="#00C3EB"/>
<path d="M166.84 43.504C170.071 47.2775 173.269 51.0873 176.478 54.8797C161.64 54.9238 146.723 54.3526 131.911 54.9138C131.815 54.9256 131.735 54.947 131.66 54.9811C131.724 54.6388 131.788 54.2964 131.852 53.9541C132.71 49.2405 133.585 44.5372 134.444 39.8245C144.379 40.8538 154.489 40.8458 164.467 40.7183C165.254 41.6516 166.056 42.5828 166.84 43.504ZM165.873 52.4602C166.697 52.3667 166.731 51.2262 165.891 51.1546C163.455 50.9303 160.815 51.2139 158.379 51.3572C157.698 51.398 157.668 52.3964 158.368 52.4206C160.811 52.5157 163.443 52.7301 165.873 52.4602ZM164.728 49.7693C165.604 49.8176 165.576 48.3399 164.739 48.4371C162.251 48.7075 159.72 48.7069 157.217 48.8121C156.614 48.8317 156.6 49.7834 157.22 49.773C159.714 49.7411 162.227 49.6188 164.728 49.7693Z" fill="#F4259A"/>
<path d="M179.177 89.074C179.99 88.941 180.348 90.1182 179.517 90.3409C176.439 91.1518 173.242 91.6261 170.128 92.2485C169.415 92.3835 169.115 91.3178 169.835 91.1535C172.927 90.452 176.032 89.5779 179.177 89.074Z" fill="#262961"/>
<path d="M175.669 86.5355C176.585 86.2054 177.016 87.8152 176.058 87.9872C173.67 88.4152 171.336 89.1539 168.947 89.5813C168.369 89.6937 168.16 88.915 168.714 88.7106C170.996 87.8863 173.386 87.3591 175.669 86.5355Z" fill="#262961"/>
<path d="M154.495 29.0491C157.274 32.2925 160.042 35.5533 162.82 38.7969C153.432 38.9082 144.074 38.5588 134.701 38.4678C134.877 37.4875 135.062 36.49 135.238 35.5097C135.849 32.2488 136.447 28.9916 137.045 25.7342C139.718 25.8949 142.391 25.9986 145.054 26.1196C146.268 26.162 147.472 26.2216 148.672 26.2677C149.199 26.2821 151.112 26.1371 151.946 26.2959C151.957 26.3355 151.971 26.3879 152.008 26.4211C152.049 26.4664 152.092 26.5257 152.12 26.5753C152.222 26.69 152.399 26.7696 152.575 26.7926C153.217 27.5528 153.856 28.3009 154.495 29.0491ZM147.518 31.5127C148.474 31.4398 148.479 29.9258 147.529 30.0247C145.492 30.2316 143.431 30.4578 141.412 30.7868C140.788 30.8832 140.931 31.8914 141.563 31.8777C143.544 31.8278 145.539 31.6744 147.518 31.5127ZM146.369 28.9639C147.192 29.0262 147.397 27.6282 146.573 27.5089C144.152 27.1821 141.562 27.2258 139.156 27.6438C138.552 27.7634 138.697 28.7286 139.29 28.7253C141.685 28.6907 143.986 28.7817 146.369 28.9639Z" fill="#00C3EB"/>
<path d="M165.891 51.1544C166.731 51.226 166.697 52.3673 165.873 52.46C163.443 52.7299 160.811 52.5155 158.368 52.4205C157.668 52.396 157.698 51.3978 158.379 51.357C160.816 51.2126 163.455 50.9302 165.891 51.1544Z" fill="#262961"/>
<path d="M164.739 48.4371C165.576 48.3399 165.604 49.8176 164.729 49.7693C162.228 49.6186 159.714 49.7412 157.22 49.773C156.601 49.7832 156.614 48.8326 157.217 48.8121C159.72 48.707 162.252 48.7076 164.739 48.4371Z" fill="#262961"/>
<path d="M148.326 21.8058C149.07 22.6815 149.813 23.5565 150.557 24.4322C149.418 24.4546 148.217 24.6207 147.478 24.6068C144.075 24.5708 140.667 24.5222 137.255 24.5603C137.775 21.2252 137.403 17.4071 140.847 16.3285C144.516 15.1897 146.014 19.0877 148.326 21.8058Z" fill="#F4259A"/>
<path d="M147.529 30.0247C148.479 29.926 148.474 31.4398 147.518 31.5127C145.54 31.6753 143.544 31.8278 141.563 31.8777C140.93 31.8916 140.787 30.8834 141.412 30.7868C143.431 30.4578 145.492 30.2308 147.529 30.0247Z" fill="#262961"/>
<path d="M146.573 27.5089C147.396 27.6271 147.191 29.0262 146.368 28.9639C143.986 28.7823 141.685 28.6915 139.289 28.7253C138.696 28.7286 138.551 27.7634 139.155 27.6438C141.561 27.225 144.151 27.1812 146.573 27.5089Z" fill="#262961"/>
<path d="M144.207 75.7879C145.015 75.7411 145.024 77.0403 144.196 77.0641C142.182 77.0943 140.149 77.2153 138.13 77.1759C137.49 77.164 137.538 76.2879 138.141 76.2113C140.148 75.9995 142.182 75.9355 144.207 75.7879Z" fill="#262961"/>
<path d="M141.626 73.015C142.504 73.0201 142.497 74.3651 141.609 74.3775C138.932 74.4158 136.226 74.3485 133.544 74.2611C132.888 74.2389 132.894 73.2616 133.554 73.2406C136.236 73.116 138.938 73.0138 141.626 73.015Z" fill="#262961"/>
<defs>
<clipPath id="clip0_2001_112">
<rect width="523" height="512" fill="white" transform="translate(0 65)"/>
</clipPath>
</defs>
</svg>
