<svg width="523" height="512" viewBox="0 0 523 512" fill="none" xmlns="http://www.w3.org/2000/svg">
<g clip-path="url(#clip0_0_962)">
<path d="M124.345 35.0215L124.346 35.0191C137.175 16.0873 160.028 6.18743 182.561 10.0412L183.497 10.2285L183.497 10.2286L183.509 10.2307C190.729 11.5884 197.441 15.0414 202.545 20.3285C214.444 32.79 222.201 53.9236 225.369 72.6227C226.95 81.9581 227.374 90.6101 226.626 97.1877C226.251 100.48 225.589 103.202 224.664 105.218C223.735 107.244 222.601 108.434 221.351 108.898C218.14 110.089 211.333 110.982 202.371 111.504C193.462 112.022 182.563 112.169 171.268 111.924C148.648 111.433 124.591 109.375 111.774 105.648C109.967 105.076 108.734 103.423 108.682 101.573L108.682 101.572C107.8 71.6974 114.042 50.1317 124.345 35.0215Z" fill="#FFFEC8" stroke="#2B2D60" stroke-width="2"/>
<path d="M123.518 34.4582C113.067 49.787 106.796 71.5768 107.683 101.601C107.746 103.881 109.266 105.908 111.483 106.605C137.39 114.143 208.207 114.84 221.699 109.836C234.494 105.085 227.463 44.973 203.266 19.6361C198.009 14.1886 191.105 10.6414 183.694 9.24791C183.377 9.18457 183.06 9.12122 182.743 9.05788C159.813 5.13066 136.567 15.2021 123.518 34.4582Z" stroke="#2B2D60" stroke-width="2.53369" stroke-miterlimit="10"/>
<path d="M430.982 237.85C438.773 223.471 437.949 222.331 458.599 220.558C479.248 218.784 507.753 218.024 513.2 206.559C518.647 195.094 506.802 190.217 485.583 193.13C464.426 196.044 454.735 195.918 454.735 195.918C454.735 195.918 467.087 185.023 462.273 180.272C457.459 175.521 448.337 192.434 435.796 197.691C423.254 202.949 421.544 206.242 420.087 209.853C418.63 213.463 414.449 223.725 414.449 223.725L430.982 237.85Z" fill="#FCB28D" stroke="#2B2D60" stroke-width="3" stroke-miterlimit="10"/>
<path d="M366.248 349.462C343.445 374.545 323.429 394.118 317.728 394.118C305.883 394.118 273.515 350.285 258.693 329.319C254.006 322.668 251.092 318.361 251.092 318.361L253.942 300.561L259.643 264.963C259.643 264.963 262.05 268.447 265.787 273.958C279.216 293.53 310.19 338.503 314.307 341.797C324.126 334.83 411.728 217.266 411.728 217.266C411.728 217.266 448.087 237.472 451.57 242.92C453.787 246.34 405.711 306.135 366.248 349.462Z" fill="#43459A" stroke="#2B2D60" stroke-width="3" stroke-miterlimit="10" stroke-linecap="round" stroke-linejoin="round"/>
<path d="M387 737.808C366.117 740.125 281.634 740.644 267.649 740.964C257.334 682.131 229.806 476.438 227.274 450.317C223.794 468.65 220.693 492.814 218.035 519.454C209.428 605.246 204.999 716.52 204.999 740.484C197.025 741.163 168.105 741.044 145.829 740.844C144.437 740.844 143.108 740.804 141.842 740.804C128.3 740.644 99 740.844 99 740.844C99 740.844 107.037 589.709 127.604 479.354C131.591 457.986 136.337 438.135 141.969 421.161C145.956 409.179 150.386 398.594 155.258 389.967L158.612 384.535C163.105 377.825 168.042 372.633 173.547 369.278C174.307 368.799 175.066 368.359 175.825 368L276.255 375.509C276.255 375.509 277.584 380.741 279.672 388.769C279.989 390.047 280.368 391.445 280.748 392.883C280.875 393.402 281.001 393.961 281.191 394.48C287.709 419.883 298.784 462.859 300.935 471.246C303.846 483.268 379.786 711.647 387 737.808Z" fill="#00C3EB" stroke="#2B2D60" stroke-width="3" stroke-miterlimit="10" stroke-linecap="round" stroke-linejoin="round"/>
<path d="M215.11 298.595C209.98 292.704 147.651 203.075 146.701 171.024C146.637 169.883 146.701 168.807 146.827 167.793C148.918 151.704 148.664 139.986 147.904 129.851C147.587 125.29 147.081 120.983 146.701 116.739V116.676C146.384 113.509 146.131 110.405 146.004 107.238L149.551 110.912L174.698 137.009C174.698 137.009 174.635 138.466 174.635 140.809C174.445 149.931 174.255 172.924 175.965 181.158C176.915 185.782 196.678 194.46 196.678 194.46C196.678 194.46 204.279 200.351 210.296 223.471C216.251 246.591 220.431 304.676 215.11 298.595Z" fill="#FCB28D"/>
<path d="M215.11 298.595C209.98 292.704 147.651 203.075 146.701 171.024C146.637 169.883 146.701 168.807 146.827 167.793C148.918 151.704 148.664 139.986 147.904 129.851C147.587 125.29 147.081 120.983 146.701 116.739V116.676C146.384 113.509 146.131 110.405 146.004 107.238L149.551 110.912L174.698 137.009C174.698 137.009 174.635 138.466 174.635 140.809C174.445 149.931 174.255 172.924 175.965 181.158C176.915 185.782 196.678 194.46 196.678 194.46C196.678 194.46 204.279 200.351 210.296 223.471C216.251 246.591 220.431 304.676 215.11 298.595Z" fill="#FCB28D" stroke="#2B2D60" stroke-width="1.90027" stroke-miterlimit="10"/>
<path d="M280.923 405.139C271.612 415.97 259.387 424.775 235.253 421.798C226.576 420.721 201.809 412.676 185.656 428.829C179.195 435.29 173.305 455.053 166.717 476.336C165.64 479.693 164.627 483.113 163.487 486.534C154.302 515.228 143.407 543.225 127.635 542.338C134.412 484.507 143.407 433.643 155.315 400.578L158.673 392.027C163.17 381.385 168.111 373.151 173.621 367.83L280.923 405.139Z" fill="#43459A"/>
<path d="M175.587 418.994C165.451 433.632 146.827 684.126 145.877 741C144.483 741 143.153 740.96 141.886 740.96C128.33 740.8 99 741 99 741C99 741 107.045 589.656 127.633 479.148C131.624 457.75 136.375 437.872 142.013 420.874C157.153 414.834 186.609 403.076 175.587 418.994Z" fill="#43459A"/>
<path d="M143.851 393.673C150.311 398.677 154.302 398.994 158.419 399.817C162.537 400.641 168.427 397.79 173.368 405.835C178.309 413.879 153.289 448.971 151.895 459.929C150.501 470.887 152.212 473.104 153.225 479.185C154.239 485.203 138.34 481.592 134.159 467.34C130.042 453.088 132.322 446.247 132.322 446.247C132.322 446.247 142.52 426.357 143.597 422.557C144.674 418.756 129.535 405.961 129.535 405.961L143.851 393.673Z" fill="#FCB28D" stroke="#2B2D60" stroke-width="3" stroke-miterlimit="10"/>
<path d="M276.3 377.9C276.363 377.773 276.363 377.71 276.427 377.583C275.286 373.339 274.21 369.349 273.069 365.675C265.468 339.831 259.324 327.796 259.577 323.679C259.831 318.991 264.518 279.909 260.591 267.684C256.664 255.522 233.924 214.033 224.866 208.332C215.808 202.632 196.615 194.334 196.615 194.334C196.615 194.334 219.165 254.002 213.464 292.641C208.777 285.927 146.891 166.59 146.891 166.59C121.998 151.071 93.3671 138.339 67.1433 181.982C38.1325 230.312 13.5557 278.072 8.29827 312.721C5.63789 330.013 129.029 426.61 129.029 426.61C129.029 426.61 152.212 397.536 154.556 389.998C148.475 380.56 64.3563 308.033 64.3563 308.033C64.3563 308.033 83.4223 269.078 98.1811 245.008C101.918 238.927 105.402 233.796 108.253 230.502C108.316 230.566 108.379 230.692 108.506 230.756C119.274 243.741 174.635 357.757 175.902 365.675C175.966 365.992 176.156 366.372 176.472 366.752H174.572C168.618 373.403 161.967 383.284 158.61 391.899C155.253 400.513 230.44 410.331 234.937 406.784C239.435 403.237 241.081 395.446 241.081 395.446C241.081 395.446 242.728 403.744 246.909 407.544C251.09 411.345 278.517 407.988 280.797 405.137C282.317 403.364 279.024 388.858 276.3 377.9Z" fill="#00C3EB" stroke="#2B2D60" stroke-width="3" stroke-miterlimit="10" stroke-linecap="round" stroke-linejoin="round"/>
<path d="M213.462 292.643C213.335 292.643 207.001 292.517 180.587 262.999C153.92 233.228 119.842 154.367 123.706 154.304C127.57 154.24 143.215 164.312 146.889 166.529L146.952 166.655L150.436 173.18L213.462 292.643Z" fill="#43459A" stroke="#2B2D60" stroke-width="1.90027" stroke-miterlimit="10" stroke-linecap="round" stroke-linejoin="round"/>
<path d="M196.615 194.46C200.226 196.044 210.234 200.478 212.514 201.808C216.758 203.962 231.454 256.599 213.464 292.641C213.464 292.641 210.044 254.572 206.37 233.733C202.696 212.893 196.615 194.46 196.615 194.46Z" fill="#43459A" stroke="#2B2D60" stroke-width="1.90027" stroke-miterlimit="10" stroke-linecap="round" stroke-linejoin="round"/>
<path d="M141.507 76.3277C128.395 65.1795 114.713 84.4989 140.937 95.5205C165.387 105.845 141.507 76.3277 141.507 76.3277Z" fill="#FCB28D"/>
<path d="M148.411 141.189L174.508 146.13L173.685 135.869L146.004 113.952L148.411 141.189Z" fill="#2B2D60"/>
<path d="M211.184 81.1426C211.184 114.271 198.832 141.191 178.309 141.191C157.786 141.191 139.797 113.827 139.797 80.7625C139.797 47.6978 151.325 27.6816 171.848 27.6816C192.371 27.6816 211.184 40.5401 211.184 81.1426Z" fill="#FCB28D"/>
<path d="M173.432 25.9074L175.775 35.092C175.775 35.092 207.003 54.2214 212.514 65.6231C218.025 76.9613 206.75 32.5583 206.496 32.0516C206.243 31.5449 186.607 13.3022 186.607 13.3022L173.432 25.9074Z" fill="#FFFEC8"/>
<path d="M145.689 112.496C148.413 120.35 162.095 142.773 178.818 141.126C193.07 139.733 199.467 129.155 204.028 120.603C214.733 99.0671 209.729 63.7854 209.729 63.7854C205.041 54.284 189.332 43.2625 177.234 35.0913" stroke="#2B2D60" stroke-width="1.50045" stroke-miterlimit="10" stroke-linecap="round" stroke-linejoin="round"/>
<path d="M160.383 183.059C161.966 183.692 163.55 184.389 165.134 185.086L167.477 186.162C168.237 186.479 169.061 186.859 169.758 187.303L168.871 187.619L171.721 181.855C171.785 181.728 171.911 181.665 172.038 181.728C172.165 181.792 172.165 181.918 172.165 182.045L170.074 188.126C169.948 188.443 169.631 188.569 169.314 188.506L169.188 188.443C168.364 188.189 167.604 187.809 166.78 187.429L164.437 186.289C162.917 185.529 161.333 184.769 159.813 184.009C159.559 183.882 159.433 183.502 159.559 183.249C159.813 183.059 160.13 182.932 160.383 183.059Z" fill="#2B2D60"/>
<path d="M175.965 40.0315C175.965 40.0315 178.246 31.7336 177.105 25.7161C175.965 19.6986 135.046 9.05707 128.648 55.4237C132.386 71.6393 141.19 77.2135 141.19 77.2135C141.19 77.2135 169.504 64.9884 175.965 40.0315Z" fill="#FFFEC8"/>
<path d="M135.742 79.6852C138.72 78.4817 141.697 77.1515 144.484 75.5679C147.334 74.0477 150.058 72.3374 152.655 70.4372C157.849 66.6366 162.473 62.076 166.147 56.8186C169.884 51.6245 172.734 45.797 174.698 39.6528C176.662 33.5086 177.738 27.111 178.182 20.6501C178.182 20.3967 178.372 20.27 178.625 20.27C178.815 20.27 179.005 20.46 179.005 20.7134C178.879 23.9439 178.562 27.2377 178.119 30.4681C177.612 33.6986 176.915 36.8657 175.965 40.0328C174.065 46.3037 171.214 52.3213 167.414 57.7054C163.613 63.0895 158.862 67.7768 153.542 71.5773C150.881 73.4776 148.031 75.1879 145.18 76.7081C142.267 78.2283 139.226 79.4951 136.186 80.6353C135.932 80.762 135.616 80.572 135.552 80.3186C135.362 80.0652 135.489 79.7485 135.742 79.6852Z" fill="#2B2D60"/>
<path d="M186.607 97.6743C187.874 102.678 190.155 105.719 191.548 106.986L186.607 97.6743Z" fill="#FCB28D"/>
<path d="M186.607 97.6743C187.874 102.678 190.155 105.719 191.548 106.986" stroke="#2B2D60" stroke-width="1.90027" stroke-miterlimit="10" stroke-linecap="round" stroke-linejoin="round"/>
<path d="M180.202 120.55C180.145 120.838 180.145 121.126 180.145 121.414C180.145 124.582 182.679 127.116 185.846 127.116C189.014 127.116 191.548 124.582 191.548 121.414C191.548 121.126 191.548 120.838 191.49 120.55C190.166 120.896 188.38 121.241 186.365 121.241C183.831 121.299 181.7 120.896 180.202 120.55Z" fill="white" stroke="#2B2D60" stroke-width="1.90027" stroke-miterlimit="10" stroke-linecap="round" stroke-linejoin="round"/>
<path d="M156.393 88.6779C158.8 82.597 163.677 79.3032 169.314 79.5566C174.952 79.8099 178.182 84.814 179.259 88.6779" stroke="#2B2D60" stroke-width="1.90027" stroke-miterlimit="10" stroke-linecap="round" stroke-linejoin="round"/>
<path d="M192.371 88.047C192.624 82.7262 202.696 73.6683 210.55 83.9297" stroke="#2B2D60" stroke-width="1.90027" stroke-miterlimit="10" stroke-linecap="round" stroke-linejoin="round"/>
<path d="M171.152 88.6799C173.006 88.6799 174.509 86.638 174.509 84.1192C174.509 81.6005 173.006 79.5586 171.152 79.5586C169.298 79.5586 167.795 81.6005 167.795 84.1192C167.795 86.638 169.298 88.6799 171.152 88.6799Z" fill="#2B2D60"/>
<path d="M204.785 88.0471C206.639 88.0471 208.142 86.0052 208.142 83.4864C208.142 80.9677 206.639 78.9258 204.785 78.9258C202.931 78.9258 201.428 80.9677 201.428 83.4864C201.428 86.0052 202.931 88.0471 204.785 88.0471Z" fill="#2B2D60"/>
<path d="M209.474 74.8063C207.13 74.9963 202.253 75.3764 199.656 75.6298C198.579 75.6931 197.755 75.6931 197.185 75.5664C195.665 75.2497 195.919 73.1594 197.439 73.1594C197.502 73.1594 197.629 73.1594 197.692 73.1594V74.0462H198.009V73.1594C198.326 73.1594 198.706 73.1594 199.022 73.1594V73.6028H199.339V73.0961C200.036 73.0961 200.796 73.0961 201.683 73.0327C204.216 73.0327 207.637 73.8562 209.411 74.3629C209.791 74.4262 209.791 74.8063 209.474 74.8063Z" fill="#2B2D60"/>
<path d="M160.126 74.1742C162.913 74.1742 168.678 74.1742 171.781 74.2375C173.048 74.2375 173.998 74.1109 174.695 73.9208C176.469 73.3507 175.962 70.7537 174.125 70.8171C173.998 70.8171 173.935 70.8171 173.808 70.8171L173.935 71.9572L173.555 72.0206L173.428 70.8804C173.048 70.8804 172.668 70.9437 172.225 70.9437L172.288 71.5772L171.908 71.6405L171.845 71.0071C171.021 71.0704 170.135 71.1338 169.121 71.1971C166.144 71.4505 162.217 72.7807 160.19 73.6041C159.746 73.6675 159.81 74.1742 160.126 74.1742Z" fill="#2B2D60"/>
<path d="M141.191 77.2136C136.883 73.033 128.142 71.2594 126.305 78.037C123.708 87.6651 138.467 95.2662 140.874 95.5195C141.317 97.6732 145.371 111.608 145.371 111.608" stroke="#2B2D60" stroke-width="1.50045" stroke-miterlimit="10" stroke-linecap="round" stroke-linejoin="round"/>
<path d="M136.629 395.637C138.098 395.637 139.29 394.446 139.29 392.977C139.29 391.508 138.098 390.316 136.629 390.316C135.16 390.316 133.969 391.508 133.969 392.977C133.969 394.446 135.16 395.637 136.629 395.637Z" fill="#00C3EB" stroke="#2B2D60" stroke-width="1.90027" stroke-miterlimit="10" stroke-linecap="round" stroke-linejoin="round"/>
<path d="M413.371 240.002C415.085 240.002 416.475 238.612 416.475 236.898C416.475 235.184 415.085 233.794 413.371 233.794C411.657 233.794 410.268 235.184 410.268 236.898C410.268 238.612 411.657 240.002 413.371 240.002Z" fill="#43459A" stroke="#2B2D60" stroke-width="1.90027" stroke-miterlimit="10" stroke-linecap="round" stroke-linejoin="round"/>
<path d="M136.63 452.772C134.603 460.183 135.236 470.254 135.236 470.254L136.63 452.772Z" fill="#FCB28D"/>
<path d="M136.63 452.772C134.603 460.183 135.236 470.254 135.236 470.254" stroke="#2B2D60" stroke-width="1.90027" stroke-miterlimit="10" stroke-linecap="round" stroke-linejoin="round"/>
<path d="M146.067 448.211C143.66 452.709 140.81 475.449 142.14 478.806L146.067 448.211Z" fill="#FCB28D"/>
<path d="M146.067 448.211C143.66 452.709 140.81 475.449 142.14 478.806" stroke="#2B2D60" stroke-width="1.90027" stroke-miterlimit="10" stroke-linecap="round" stroke-linejoin="round"/>
<path d="M477.604 200.921C488.625 201.238 509.781 194.65 509.781 194.65L477.604 200.921Z" fill="#FCB28D"/>
<path d="M477.604 200.921C488.625 201.238 509.781 194.65 509.781 194.65" stroke="#2B2D60" stroke-width="1.90027" stroke-miterlimit="10" stroke-linecap="round" stroke-linejoin="round"/>
<path d="M480.199 208.649C490.714 207.699 511.237 202.568 514.467 200.921L480.199 208.649Z" fill="#FCB28D"/>
<path d="M480.199 208.649C490.714 207.699 511.237 202.568 514.467 200.921" stroke="#2B2D60" stroke-width="1.90027" stroke-miterlimit="10" stroke-linecap="round" stroke-linejoin="round"/>
<path d="M242.98 285.548C257.613 280.67 261.033 269.396 261.033 269.396L242.98 285.548Z" fill="#00C3EB"/>
<path d="M242.98 285.548C257.613 280.67 261.033 269.396 261.033 269.396" stroke="#2B2D60" stroke-width="1.90027" stroke-miterlimit="10" stroke-linecap="round" stroke-linejoin="round"/>
</g>
<defs>
<clipPath id="clip0_0_962">
<rect width="523" height="512" fill="white"/>
</clipPath>
</defs>
</svg>
